<svg xmlns="http://www.w3.org/2000/svg" width="116" height="38.616" viewBox="0 0 116 38.616"><defs><style>.a{fill:none;stroke:#e9f1f3;}.b{fill:#fff;}</style></defs><g transform="translate(0.5 0.5)"><path class="a" d="M211.64,968.363a5.083,5.083,0,0,1-5.083,5.083H101.723a5.085,5.085,0,0,1-5.083-5.083v-27.45a5.083,5.083,0,0,1,5.083-5.083H206.557a5.081,5.081,0,0,1,5.083,5.083Z" transform="translate(-96.64 -935.83)"/><path class="b" d="M153.911,1002.791a18.678,18.678,0,0,1-1.684,3.143c-1.1,1.666-2.645,3.747-4.545,3.747-1.7.015-2.134-1.1-4.437-1.1s-2.784,1.1-4.481,1.1c-1.909-.018-3.37-1.889-4.464-3.556-3.06-4.655-3.379-10.118-1.492-13.023a6.764,6.764,0,0,1,5.442-3.273c2.026,0,3.306,1.1,4.971,1.1,1.625,0,2.614-1.1,4.955-1.1a6.615,6.615,0,0,1,4.979,2.63A5.707,5.707,0,0,0,153.911,1002.791Z" transform="translate(-123.922 -977.927)"/><path class="b" d="M184.248,966.568a5.711,5.711,0,0,0,1.263-4.208,6.15,6.15,0,0,0-3.968,2.132,5.273,5.273,0,0,0-1.3,4.1A5.188,5.188,0,0,0,184.248,966.568Z" transform="translate(-161.77 -956.512)"/><path class="b" d="M259.5,1004.42l-4.382,12.9h2.006l1.309-3.968h4.241l1.345,3.968h2.063l-4.409-12.9Zm1.038,2.121c.148.575.309,1.173.514,1.819l1.181,3.419h-3.37l1.164-3.441c.179-.558.355-1.159.5-1.805Z" transform="translate(-220.186 -989.301)"/><path class="b" d="M312.968,1019.59a3.66,3.66,0,0,0-3.1,1.488l-.077-1.283H308l.011.163c.053.8.075,1.68.075,2.943v9.939h1.951v-4.629a3.43,3.43,0,0,0,2.667,1.144,4.014,4.014,0,0,0,2.956-1.256,5.33,5.33,0,0,0,1.307-3.747,5.189,5.189,0,0,0-1.135-3.428A3.7,3.7,0,0,0,312.968,1019.59Zm-.487,1.614c1.739,0,2.517,1.611,2.517,3.21,0,2.059-.992,3.337-2.592,3.337a2.363,2.363,0,0,1-2.3-1.809,2.444,2.444,0,0,1-.071-.633v-1.567a3.11,3.11,0,0,1,.062-.483c.011-.053.022-.106.029-.159A2.471,2.471,0,0,1,312.481,1021.2Z" transform="translate(-261.41 -1001.127)"/><path class="b" d="M358.564,1019.59a3.66,3.66,0,0,0-3.1,1.488l-.077-1.283H353.6v.163c.053.8.075,1.68.075,2.943v9.939h1.951v-4.629a3.43,3.43,0,0,0,2.667,1.144,4.025,4.025,0,0,0,2.958-1.256,5.339,5.339,0,0,0,1.3-3.747,5.189,5.189,0,0,0-1.135-3.428A3.7,3.7,0,0,0,358.564,1019.59Zm-.487,1.614c1.739,0,2.517,1.611,2.517,3.21,0,2.059-.994,3.337-2.592,3.337a2.365,2.365,0,0,1-2.3-1.81,2.446,2.446,0,0,1-.071-.633v-1.567a2.908,2.908,0,0,1,.064-.485l.026-.156A2.471,2.471,0,0,1,358.077,1021.2Z" transform="translate(-296.959 -1001.127)"/><path class="b" d="M416.794,1009.159c-1.821-.705-2.4-1.261-2.4-2.284,0-.864.686-1.735,2.218-1.735a4.439,4.439,0,0,1,2.29.575l.165.1.551-1.629-.108-.064a5.66,5.66,0,0,0-2.841-.637c-2.489,0-4.228,1.468-4.228,3.571,0,1.7,1.089,2.881,3.425,3.73,1.655.619,2.273,1.254,2.273,2.341,0,1.23-.952,1.984-2.48,1.984a5.341,5.341,0,0,1-2.813-.8l-.17-.108-.522,1.666.095.064a6.693,6.693,0,0,0,3.306.846c3.353,0,4.543-2.043,4.543-3.8C420.085,1011.2,419.131,1010.081,416.794,1009.159Z" transform="translate(-342.602 -988.576)"/><path class="b" d="M452.324,1010.44l-1.913.6v1.622H449v1.558h1.4V1019a3.654,3.654,0,0,0,.674,2.475,2.5,2.5,0,0,0,1.889.741,4.629,4.629,0,0,0,1.508-.22l.11-.04-.095-1.561-.187.057a2.959,2.959,0,0,1-.906.1c-.756,0-1.08-.478-1.08-1.6v-4.722h2.354v-1.558h-2.345Z" transform="translate(-371.33 -993.994)"/><path class="b" d="M480.329,1019.583c-2.731,0-4.629,2.037-4.629,4.953,0,2.828,1.845,4.8,4.488,4.8h.018a4.587,4.587,0,0,0,4.629-4.971,4.984,4.984,0,0,0-1.243-3.452A4.338,4.338,0,0,0,480.329,1019.583Zm-.057,1.543c1.763,0,2.555,1.713,2.555,3.306,0,1.957-1.091,3.377-2.592,3.377h-.018c-1.481,0-2.555-1.4-2.555-3.32,0-1.68.807-3.368,2.61-3.368Z" transform="translate(-392.144 -1001.12)"/><path class="b" d="M527.066,1019.68l-.117-.031a1.908,1.908,0,0,0-.485-.06,2.784,2.784,0,0,0-2.447,1.569l-.057-1.364h-1.75v.163c.053.774.075,1.64.075,2.81l-.02,6.373h1.953v-4.971a5.075,5.075,0,0,1,.053-.758,2.157,2.157,0,0,1,2.052-1.966c.2,0,.357.018.525.033l.207.022Z" transform="translate(-428.402 -1001.127)"/><path class="b" d="M548.549,1019.5c-2.6,0-4.409,2.076-4.409,5.048a4.361,4.361,0,0,0,4.6,4.711,7.474,7.474,0,0,0,3.086-.593l.117-.053-.375-1.453-.163.064a6,6,0,0,1-2.445.441,2.713,2.713,0,0,1-2.923-2.83l6.3.02.026-.126a4.359,4.359,0,0,0,.057-.813C552.419,1021.878,551.408,1019.5,548.549,1019.5Zm-.13,1.486a1.926,1.926,0,0,1,1.433.544,2.771,2.771,0,0,1,.672,1.819h-4.45A2.49,2.49,0,0,1,548.419,1020.986Z" transform="translate(-445.498 -1001.057)"/><path class="b" d="M255.08,964.008a14.133,14.133,0,0,1,1.871-.128,4.183,4.183,0,0,1,2.749.752,2.726,2.726,0,0,1,.965,2.2,3.086,3.086,0,0,1-.974,2.361,4.537,4.537,0,0,1-3.009.882,13.448,13.448,0,0,1-1.6-.073Zm.882,5.4a6.1,6.1,0,0,0,.882.037c1.871,0,2.888-.943,2.888-2.59,0-1.459-.9-2.356-2.747-2.356a5.619,5.619,0,0,0-1.027.082Z" transform="translate(-220.155 -957.697)"/><path class="b" d="M286.394,976.023a2.208,2.208,0,0,1-2.334-2.255,2.264,2.264,0,0,1,2.425-2.328,2.181,2.181,0,0,1,2.343,2.246,2.269,2.269,0,0,1-2.414,2.337Zm.031-.6a1.558,1.558,0,0,0,1.479-1.711,1.488,1.488,0,1,0-1.488,1.711Z" transform="translate(-242.747 -963.591)"/><path class="b" d="M308.882,971.89l.661,2.229c.13.487.26.95.35,1.4h.031c.11-.441.271-.915.441-1.393l.8-2.229h.745l.754,2.191c.181.516.322.987.441,1.431h.031a12.448,12.448,0,0,1,.373-1.422l.694-2.2h.882l-1.569,4.382h-.8l-.745-2.09a14.831,14.831,0,0,1-.441-1.45h-.02a12.559,12.559,0,0,1-.441,1.459l-.785,2.081h-.8L308,971.894Z" transform="translate(-261.41 -963.941)"/><path class="b" d="M343.86,972.719a10.91,10.91,0,0,0-.04-1.186h.785l.051.716h.02a1.843,1.843,0,0,1,1.609-.816,1.667,1.667,0,0,1,1.722,1.865v2.617h-.882v-2.526c0-.705-.291-1.3-1.126-1.3a1.265,1.265,0,0,0-1.188.813,1.1,1.1,0,0,0-.06.373v2.645h-.882Z" transform="translate(-289.334 -963.585)"/><path class="b" d="M369.35,962.61h.882v6.428h-.882Z" transform="translate(-309.237 -956.707)"/><path class="b" d="M380.744,976.023a2.208,2.208,0,0,1-2.334-2.255,2.263,2.263,0,0,1,2.425-2.328,2.182,2.182,0,0,1,2.343,2.246,2.269,2.269,0,0,1-2.414,2.337Zm.031-.6a1.559,1.559,0,0,0,1.479-1.711,1.489,1.489,0,1,0-1.49,1.711Z" transform="translate(-316.3 -963.591)"/><path class="b" d="M407.173,974.892a6.564,6.564,0,0,0,.071,1.049h-.8l-.082-.551h-.029a1.876,1.876,0,0,1-1.49.661,1.327,1.327,0,0,1-1.488-1.259c0-1.06,1.045-1.64,2.927-1.631v-.09c0-.362-.11-1.023-1.1-1.014a2.533,2.533,0,0,0-1.279.326l-.2-.533a3.415,3.415,0,0,1,1.609-.381,1.63,1.63,0,0,1,1.863,1.792Zm-.866-1.186c-.965-.018-2.063.134-2.063.988a.741.741,0,0,0,.827.76,1.23,1.23,0,0,0,1.2-.734.725.725,0,0,0,.04-.253Z" transform="translate(-335.75 -963.613)"/><path class="b" d="M430.056,962.61v5.29c0,.39.011.833.042,1.131h-.8l-.04-.76h-.02a1.822,1.822,0,0,1-1.651.862A2.09,2.09,0,0,1,425.5,966.9a2.183,2.183,0,0,1,2.182-2.354,1.675,1.675,0,0,1,1.47.661h.02v-2.6Zm-.882,3.829a1.324,1.324,0,0,0-.042-.344,1.279,1.279,0,0,0-1.276-.915,1.5,1.5,0,0,0-1.459,1.686,1.454,1.454,0,0,0,1.439,1.629,1.323,1.323,0,0,0,1.3-.95,1.236,1.236,0,0,0,.042-.344Z" transform="translate(-353.009 -956.707)"/><path class="b" d="M463.254,976.023a2.208,2.208,0,0,1-2.334-2.255,2.264,2.264,0,0,1,2.425-2.328,2.182,2.182,0,0,1,2.343,2.246,2.27,2.27,0,0,1-2.414,2.337Zm.031-.6a1.559,1.559,0,0,0,1.479-1.711,1.489,1.489,0,1,0-1.49,1.711Z" transform="translate(-380.622 -963.591)"/><path class="b" d="M487.44,972.719a10.91,10.91,0,0,0-.04-1.186h.794l.051.716h.02a1.845,1.845,0,0,1,1.609-.816,1.667,1.667,0,0,1,1.722,1.865v2.617h-.882v-2.526c0-.705-.291-1.3-1.126-1.3a1.265,1.265,0,0,0-1.188.813,1.1,1.1,0,0,0-.06.373v2.645h-.882Z" transform="translate(-401.265 -963.585)"/><path class="b" d="M521.685,967.13v1.049h1.267v.606h-1.267v2.365c0,.542.172.851.661.851a1.792,1.792,0,0,0,.514-.055l.04.606a2.633,2.633,0,0,1-.785.11,1.347,1.347,0,0,1-.957-.335,1.589,1.589,0,0,1-.342-1.151v-2.392h-.756v-.606h.756v-.8Z" transform="translate(-426.726 -960.231)"/><path class="b" d="M537.71,962.61h.882v2.731h.02a1.519,1.519,0,0,1,.635-.56,1.865,1.865,0,0,1,.906-.22,1.661,1.661,0,0,1,1.7,1.874v2.608h-.882V966.52c0-.714-.293-1.3-1.129-1.3a1.27,1.27,0,0,0-1.186.8.882.882,0,0,0-.062.381v2.645h-.882Z" transform="translate(-440.485 -956.707)"/><path class="b" d="M562.3,973.851a1.485,1.485,0,0,0,1.662,1.521,3.65,3.65,0,0,0,1.347-.22l.163.562a4.336,4.336,0,0,1-1.631.282,2.16,2.16,0,0,1-2.4-2.2,2.247,2.247,0,0,1,2.295-2.372,1.918,1.918,0,0,1,2,2.065,1.888,1.888,0,0,1-.029.379Zm2.588-.571a1.174,1.174,0,0,0-1.219-1.294,1.378,1.378,0,0,0-1.358,1.294Z" transform="translate(-458.985 -963.575)"/></g></svg>