<svg xmlns="http://www.w3.org/2000/svg" width="20" height="20" viewBox="0 0 20 20"><defs><style>.a{fill:#edf0f7;}.b{fill:none;stroke:#333;}</style></defs><g transform="translate(-3294.937 -860.08)"><circle class="a" cx="10" cy="10" r="10" transform="translate(3294.937 860.08)"/><path class="b" d="M10.349.979A3.022,3.022,0,0,0,8.1,0,2.828,2.828,0,0,0,6.334.61a3.613,3.613,0,0,0-.714.746A3.611,3.611,0,0,0,4.906.61,2.827,2.827,0,0,0,3.14,0,3.023,3.023,0,0,0,.892.979,3.513,3.513,0,0,0,0,3.378,4.184,4.184,0,0,0,1.115,6.116,23.772,23.772,0,0,0,3.906,8.736c.387.33.825.7,1.28,1.1a.66.66,0,0,0,.869,0c.455-.4.894-.772,1.28-1.1a23.758,23.758,0,0,0,2.79-2.619A4.183,4.183,0,0,0,11.24,3.378a3.513,3.513,0,0,0-.892-2.4Zm0,0" transform="translate(3299.436 865.58)"/></g></svg>