<svg xmlns="http://www.w3.org/2000/svg" xmlns:xlink="http://www.w3.org/1999/xlink" width="116" height="38.62" viewBox="0 0 116 38.62"><defs><style>.a,.b{fill:none;}.b{stroke:#e9f1f3;}.c{clip-path:url(#a);}.d{fill:url(#b);}.e{fill:url(#c);}.f{fill:url(#d);}.g{fill:url(#e);}.h{fill:#f9f9f9;}.i{fill:#f9f9fa;}</style><clipPath id="a"><path class="a" d="M151.306,338.967l-5.187-2.993-10-5.776c-.555-.322-1.108-.126-1.108.544v23.529c0,.5.4.717.877.45l10.232-5.909,5.185-2.995,4.985-2.878c.585-.337.528-.8.036-1.066S151.306,338.967,151.306,338.967Z" transform="translate(-135.01 -330.047)"/></clipPath><linearGradient id="b" x1="0.5" x2="0.5" y2="1" gradientUnits="objectBoundingBox"><stop offset="0" stop-color="#257cb0"/><stop offset="0.21" stop-color="#3c8fb3"/><stop offset="0.74" stop-color="#73bdba"/><stop offset="1" stop-color="#89cfbd"/></linearGradient><linearGradient id="c" y1="0.5" x2="1" y2="0.5" gradientUnits="objectBoundingBox"><stop offset="0" stop-color="#52c1ad"/><stop offset="1" stop-color="#dee89a"/></linearGradient><linearGradient id="d" x1="0.5" x2="0.5" y2="1" gradientUnits="objectBoundingBox"><stop offset="0" stop-color="#ec413d"/><stop offset="0.19" stop-color="#d74352"/><stop offset="0.74" stop-color="#a04888"/><stop offset="1" stop-color="#8a4a9d"/></linearGradient><linearGradient id="e" x1="0.5" x2="0.5" y2="1" gradientUnits="objectBoundingBox"><stop offset="0" stop-color="#f58879"/><stop offset="0.62" stop-color="#fbb276"/><stop offset="1" stop-color="#fec874"/></linearGradient></defs><g transform="translate(0.5 0.5)"><path class="b" d="M211.64,328.6a5.084,5.084,0,0,1-5.081,5.086H101.724A5.086,5.086,0,0,1,96.64,328.6v-27.45a5.086,5.086,0,0,1,5.084-5.084H206.559a5.084,5.084,0,0,1,5.081,5.084Z" transform="translate(-96.64 -296.07)"/><g transform="translate(8.627 7.639)"><g class="c" transform="translate(0 0)"><path class="d" d="M135.01,328.29v25.474l12.845-12.737Z" transform="translate(-135.01 -328.685)"/><path class="e" d="M151.306,337.279l-5.187-2.995L135.01,327.87v.094L147.855,340.7Z" transform="translate(-135.01 -328.36)"/><path class="f" d="M135.01,397.677v.092l11.109-6.415,5.185-2.995-3.449-3.42Z" transform="translate(-135.01 -372.598)"/><path class="g" d="M195.591,369.72l-3.451,3.422,3.449,3.42,5.927-3.42Z" transform="translate(-179.295 -360.8)"/></g></g><path class="h" d="M482.809,380.608a3.209,3.209,0,0,1-1.322-.268,2.487,2.487,0,0,1-1-.821H480.4a9.924,9.924,0,0,1,.081,1.23V383.8H479.36V373.063h.913l.155,1.014h.054a2.615,2.615,0,0,1,1.007-.879,3.065,3.065,0,0,1,1.318-.27,2.738,2.738,0,0,1,2.275,1.007,5.369,5.369,0,0,1-.011,5.666,2.745,2.745,0,0,1-2.262,1.007Zm-.157-6.727a1.988,1.988,0,0,0-1.644.63,3.228,3.228,0,0,0-.519,2v.254a3.721,3.721,0,0,0,.519,2.235,1.974,1.974,0,0,0,1.671.675,1.738,1.738,0,0,0,1.5-.778,3.7,3.7,0,0,0,.544-2.143,3.583,3.583,0,0,0-.544-2.127A1.8,1.8,0,0,0,482.652,373.881Z" transform="translate(-393.31 -355.647)"/><path class="h" d="M516.054,370.218H514.93V359.7h1.124Z" transform="translate(-420.883 -345.394)"/><path class="h" d="M531.011,380.551l-.225-1.054h-.054a3.1,3.1,0,0,1-1.1.944,3.384,3.384,0,0,1-1.376.247,2.473,2.473,0,0,1-1.727-.569,2.064,2.064,0,0,1-.625-1.614q0-2.248,3.6-2.354l1.259-.04v-.45a1.879,1.879,0,0,0-.375-1.288,1.544,1.544,0,0,0-1.2-.416,4.861,4.861,0,0,0-2.1.569l-.346-.859a5.442,5.442,0,0,1,1.2-.468,5.212,5.212,0,0,1,1.309-.169,2.817,2.817,0,0,1,1.963.589,2.449,2.449,0,0,1,.639,1.886v5.054Zm-2.536-.782a2.269,2.269,0,0,0,1.646-.576,2.12,2.12,0,0,0,.6-1.61v-.675l-1.124.047a4.028,4.028,0,0,0-1.929.416,1.255,1.255,0,0,0-.591,1.147,1.147,1.147,0,0,0,.369.924A1.518,1.518,0,0,0,528.474,379.768Z" transform="translate(-429.386 -355.727)"/><path class="h" d="M555.22,373.53h1.2l1.623,4.225a16.526,16.526,0,0,1,.675,2.091h.047q.088-.348.367-1.18t1.837-5.135h1.2l-3.181,8.436a4.139,4.139,0,0,1-1.106,1.776,2.352,2.352,0,0,1-1.551.524,4.539,4.539,0,0,1-1.014-.115v-.9a3.924,3.924,0,0,0,.832.081,1.716,1.716,0,0,0,1.65-1.3l.411-1.055Z" transform="translate(-452.114 -356.114)"/><path class="h" d="M382.321,374.691a2.621,2.621,0,0,1,1.1,2.093,2.58,2.58,0,0,1-1.3,2.2,1.092,1.092,0,0,0-.434.76.852.852,0,0,0,.4.675l.558.434a2.716,2.716,0,0,1,1.3,2.172c0,1.457-1.41,2.923-4.074,2.923-2.248,0-3.332-1.068-3.332-2.217a2.225,2.225,0,0,1,1.194-1.889,6.582,6.582,0,0,1,2.959-.715,1.588,1.588,0,0,1-.465-1.052,1.407,1.407,0,0,1,.155-.6c-.171.016-.34.032-.495.032a2.45,2.45,0,0,1-2.572-2.433,2.784,2.784,0,0,1,.992-2.075,4.224,4.224,0,0,1,2.774-.854h3.19l-.992.558Zm-1.1,6.882a2.5,2.5,0,0,0-.358-.016,6.256,6.256,0,0,0-1.628.247,1.741,1.741,0,0,0-1.331,1.6c0,1.1,1.068,1.891,2.727,1.891,1.486,0,2.278-.715,2.278-1.675C382.91,382.826,382.4,382.41,381.221,381.573Zm.45-2.945a1.574,1.574,0,0,0,.384-1.124c0-1.124-.675-2.851-1.952-2.851a1.443,1.443,0,0,0-1.084.51,1.8,1.8,0,0,0-.342,1.147c0,1.039.6,2.759,1.938,2.759A1.594,1.594,0,0,0,381.671,378.628Z" transform="translate(-313.608 -356.587)"/><path class="h" d="M345.845,380.538a3.651,3.651,0,0,1-3.775-3.651,3.836,3.836,0,0,1,4.009-3.759,3.618,3.618,0,0,1,3.7,3.651A3.78,3.78,0,0,1,345.845,380.538Zm1.934-1.252a2.786,2.786,0,0,0,.465-1.718c0-1.363-.65-3.959-2.568-3.959a2.161,2.161,0,0,0-1.394.526,2.34,2.34,0,0,0-.71,1.889c0,1.529.758,4.047,2.631,4.047A1.976,1.976,0,0,0,347.779,379.285Z" transform="translate(-286.888 -355.801)"/><path class="h" d="M308.555,380.538a3.651,3.651,0,0,1-3.775-3.651,3.835,3.835,0,0,1,4.007-3.759,3.618,3.618,0,0,1,3.687,3.651A3.771,3.771,0,0,1,308.555,380.538Zm1.934-1.252a2.8,2.8,0,0,0,.463-1.718c0-1.362-.65-3.959-2.568-3.959a2.15,2.15,0,0,0-1.392.526,2.335,2.335,0,0,0-.713,1.889c0,1.529.758,4.047,2.631,4.047a1.976,1.976,0,0,0,1.578-.785Z" transform="translate(-257.982 -355.802)"/><path class="h" d="M262.576,368.242l-2.224.513a16.609,16.609,0,0,1-2.568.263,5.519,5.519,0,0,1-5.924-5.621c0-3.017,2.316-5.817,6.284-5.817a8.969,8.969,0,0,1,2.379.319,6.034,6.034,0,0,1,2.053.965l-1.291,1.23-.544.124.389-.623a4.454,4.454,0,0,0-3.33-1.461,4.3,4.3,0,0,0-4.308,4.589A5.5,5.5,0,0,0,259,368.4a4.629,4.629,0,0,0,1.976-.389v-2.5l-2.347.124,1.243-.675h3.3l-.4.389a.357.357,0,0,0-.155.25c-.018.139-.031.591-.031.746Z" transform="translate(-216.961 -343.75)"/><path class="h" d="M412.694,366.583c-.515-.045-.623-.139-.623-.746v-8.9c.063-.544.225-.636.7-.917h-2.226l-1.167.56h1.189v9.6c0,.313-.063.36-.42.825H412.9l.576-.342C413.222,366.635,412.957,366.619,412.694,366.583Z" transform="translate(-339.064 -342.541)"/><path class="h" d="M432.827,380.016c-.169.092-.337.2-.508.279a3.6,3.6,0,0,1-1.5.292,3.3,3.3,0,0,1-2.055-.6,4,4,0,0,1-1.574-3.26,3.5,3.5,0,0,1,3.537-3.566,2.993,2.993,0,0,1,1.592.432,2.566,2.566,0,0,1,1.081,1.529l-3.629,1.468-1.192.092c.387,1.961,1.716,3.105,3.184,3.105a3.986,3.986,0,0,0,1.884-.542Zm-1.45-4.6c.292-.108.45-.2.45-.416a1.532,1.532,0,0,0-1.529-1.329,1.9,1.9,0,0,0-1.776,2.147c0,.263.029.542.047.821Z" transform="translate(-352.87 -355.826)"/><path class="h" d="M457.311,373.266v1.018h-.124v-1.018h-.337v-.106h.8v.106Z" transform="translate(-375.861 -355.827)"/><path class="h" d="M462.189,374.284v-1.03h0l-.315,1.03h-.1l-.315-1.03h0v1.03h-.112V373.16h.193l.286.9h0l.281-.9h.2v1.124Z" transform="translate(-379.349 -355.827)"/><path class="i" d="M255.058,333.245h-.773a5.208,5.208,0,0,0-.225-.9h-1.124a4.544,4.544,0,0,0-.225.9H252q0-.094.564-1.547a12.162,12.162,0,0,0,.56-1.6h.913a13.4,13.4,0,0,0,.51,1.574A13.8,13.8,0,0,1,255.058,333.245Zm-1.124-1.365a13.8,13.8,0,0,1-.411-1.349h-.04q0,.092-.427,1.349Z" transform="translate(-217.069 -322.449)"/><path class="i" d="M270.474,333.23h-.6a5.852,5.852,0,0,0-.675-1.046,5.645,5.645,0,0,1-.791-1.365h-.04a8.44,8.44,0,0,1,.061.956q0,.6.034,1.455h-.594q.036-.749.036-1.646t-.036-1.5h.717a4.611,4.611,0,0,0,.6,1.023,5.971,5.971,0,0,1,.731,1.286h.036a9.212,9.212,0,0,1-.058-.965q0-.659-.034-1.349h.6q-.034.6-.034,1.5C270.44,332.191,270.451,332.738,270.474,333.23Z" transform="translate(-229.371 -322.433)"/><path class="i" d="M285.807,331.564a1.785,1.785,0,0,1-.45,1.2,1.534,1.534,0,0,1-1.232.513c-.238,0-.567-.011-.985-.029q.031-.728.031-1.646c0-.585,0-1.086-.031-1.5h1a1.625,1.625,0,0,1,1.264.434A1.509,1.509,0,0,1,285.807,331.564Zm-.661.1a1.165,1.165,0,0,0-.27-.78,1.025,1.025,0,0,0-.825-.317,2.732,2.732,0,0,0-.286.02c.016.324.025.659.025,1.01,0,.387,0,.767.023,1.147a1.676,1.676,0,0,0,.315.029.9.9,0,0,0,.769-.322,1.248,1.248,0,0,0,.254-.787Z" transform="translate(-241.208 -322.449)"/><path class="i" d="M300.587,333.238h-.715a4.7,4.7,0,0,0-.429-1.057.564.564,0,0,0-.483-.2h-.268c0,.414,0,.832.022,1.255h-.675q.029-.728.031-1.646c0-.585-.011-1.086-.031-1.5h1.147q1.111,0,1.108.758a.85.85,0,0,1-.632.839v.036a.749.749,0,0,1,.427.38A8.473,8.473,0,0,1,300.587,333.238Zm-.9-2.221c0-.322-.2-.481-.618-.481a2.125,2.125,0,0,0-.4.034c.018.25.027.576.027.976h.225c.506,0,.76-.173.76-.528Z" transform="translate(-252.758 -322.441)"/><path class="i" d="M314.177,331.366a1.734,1.734,0,0,1-.45,1.23,1.475,1.475,0,0,1-1.124.488,1.419,1.419,0,0,1-1.068-.45,1.574,1.574,0,0,1-.429-1.138,1.733,1.733,0,0,1,.45-1.23,1.466,1.466,0,0,1,1.124-.488,1.421,1.421,0,0,1,1.068.45A1.574,1.574,0,0,1,314.177,331.366Zm-.675.07a1.252,1.252,0,0,0-.259-.818.8.8,0,0,0-.639-.315.735.735,0,0,0-.6.317,1.261,1.261,0,0,0-.247.8,1.246,1.246,0,0,0,.261.818.8.8,0,0,0,.636.315.735.735,0,0,0,.6-.317,1.266,1.266,0,0,0,.256-.8Z" transform="translate(-262.885 -322.199)"/><path class="i" d="M328.525,333.245h-.674q.029-.749.029-1.646t-.029-1.5h.674c-.022.407-.031.9-.031,1.5S328.5,332.755,328.525,333.245Z" transform="translate(-275.865 -322.449)"/><path class="i" d="M337.227,331.564a1.785,1.785,0,0,1-.45,1.2,1.533,1.533,0,0,1-1.232.513c-.238,0-.567-.011-.985-.029q.029-.728.031-1.646c0-.585-.011-1.086-.031-1.5h1a1.625,1.625,0,0,1,1.264.434A1.509,1.509,0,0,1,337.227,331.564Zm-.661.1a1.165,1.165,0,0,0-.27-.78,1.025,1.025,0,0,0-.825-.317,2.732,2.732,0,0,0-.286.02c.016.324.025.659.025,1.01,0,.387,0,.767.022,1.147a1.658,1.658,0,0,0,.315.029.9.9,0,0,0,.769-.322A1.248,1.248,0,0,0,336.566,331.667Z" transform="translate(-281.067 -322.449)"/><path class="i" d="M356.474,333.245H355.7a5.1,5.1,0,0,0-.225-.9h-1.124a4.718,4.718,0,0,0-.225.9H353.4q0-.094.564-1.547a12.157,12.157,0,0,0,.564-1.6h.913a12.9,12.9,0,0,0,.51,1.574A14.033,14.033,0,0,1,356.474,333.245Zm-1.124-1.365a13.466,13.466,0,0,1-.414-1.349H354.9q0,.092-.427,1.349Z" transform="translate(-295.671 -322.449)"/><path class="i" d="M371.709,330.938a.937.937,0,0,1-.429.852,1.915,1.915,0,0,1-1.05.274,1.454,1.454,0,0,1-.162,0c0,.3,0,.7.027,1.2h-.675q.031-.7.031-1.646c0-.578-.011-1.079-.031-1.5h1.212a1.383,1.383,0,0,1,.773.207A.7.7,0,0,1,371.709,330.938Zm-.623.133c0-.346-.225-.517-.686-.517a1.882,1.882,0,0,0-.362.036c.018.3.027.648.027,1.034h.139Q371.084,331.628,371.086,331.071Z" transform="translate(-308.089 -322.462)"/><path class="i" d="M384.591,330.938a.942.942,0,0,1-.429.852,1.918,1.918,0,0,1-1.052.274,1.454,1.454,0,0,1-.162,0c0,.3,0,.7.027,1.2H382.3q.031-.7.031-1.646c0-.578-.011-1.079-.031-1.5h1.212a1.4,1.4,0,0,1,.776.207A.7.7,0,0,1,384.591,330.938Zm-.625.133c0-.346-.225-.517-.674-.517a1.9,1.9,0,0,0-.362.036c.018.3.027.648.027,1.034h.139C383.674,331.629,383.966,331.44,383.966,331.071Z" transform="translate(-318.073 -322.462)"/><path class="i" d="M402.958,331.366a1.733,1.733,0,0,1-.45,1.23,1.477,1.477,0,0,1-1.124.488,1.416,1.416,0,0,1-1.068-.45,1.574,1.574,0,0,1-.429-1.138,1.74,1.74,0,0,1,.45-1.23,1.475,1.475,0,0,1,1.124-.488,1.421,1.421,0,0,1,1.068.45A1.574,1.574,0,0,1,402.958,331.366Zm-.674.07a1.25,1.25,0,0,0-.256-.818.8.8,0,0,0-.639-.315.733.733,0,0,0-.6.317,1.262,1.262,0,0,0-.247.8,1.232,1.232,0,0,0,.261.818.794.794,0,0,0,.636.315.735.735,0,0,0,.6-.317,1.265,1.265,0,0,0,.252-.8Z" transform="translate(-331.704 -322.2)"/><path class="i" d="M419.141,333.23h-.6a5.852,5.852,0,0,0-.674-1.046,5.724,5.724,0,0,1-.791-1.365h-.038a8.44,8.44,0,0,1,.061.956q0,.6.034,1.455h-.6q.038-.749.038-1.646t-.038-1.5h.717a4.552,4.552,0,0,0,.6,1.023,6.03,6.03,0,0,1,.728,1.286h.036a9.161,9.161,0,0,1-.056-.965q0-.659-.036-1.349h.6q-.034.6-.034,1.5C419.117,332.191,419.117,332.738,419.141,333.23Z" transform="translate(-344.614 -322.433)"/></g></svg>