<svg xmlns="http://www.w3.org/2000/svg" xmlns:xlink="http://www.w3.org/1999/xlink" width="20" height="20" viewBox="0 0 20 20"><defs><style>.a{fill:#fff;stroke:#707070;}.b{clip-path:url(#a);}.c{fill:#c33434;}</style><clipPath id="a"><rect class="a" width="20" height="20"/></clipPath></defs><g transform="translate(-3 -4)"><g class="b" transform="translate(3 4)"><path class="c" d="M15.8,4.5a5.085,5.085,0,0,0-3.857,1.8A5.085,5.085,0,0,0,8.089,4.5,4.644,4.644,0,0,0,3.375,9.21c0,3.253,2.913,5.864,7.327,9.891l1.245,1.113L13.191,19.1c4.413-4.027,7.327-6.638,7.327-9.891A4.644,4.644,0,0,0,15.8,4.5Zm-3.33,13.476-.173.16-.354.319-.354-.319-.173-.16a52.2,52.2,0,0,1-5.056-4.993A5.983,5.983,0,0,1,4.7,9.21a3.332,3.332,0,0,1,3.391-3.4,3.79,3.79,0,0,1,2.848,1.33l1.01,1.191,1.01-1.191A3.776,3.776,0,0,1,15.8,5.81a3.332,3.332,0,0,1,3.4,3.4,6.015,6.015,0,0,1-1.665,3.773A52.3,52.3,0,0,1,12.474,17.976Z" transform="translate(-1.946 -1.643)"/></g></g></svg>