<svg xmlns="http://www.w3.org/2000/svg" xmlns:xlink="http://www.w3.org/1999/xlink" width="250" height="226.915" viewBox="0 0 250 226.915"><defs><style>.a{fill:#c9ddff;}.b{fill:#f3f3f3;}.c{fill:#e0e0e0;}.d,.n{opacity:0.15;}.ac,.ad,.e,.i,.u{fill:#fff;}.f{fill:#37474f;}.g{fill:#263238;}.h{fill:#455a64;}.ab,.i{opacity:0.6;}.j{opacity:0.1;}.k{fill:#f6f9ff;}.l{fill:#f0f0f0;}.m{opacity:0.3;}.o,.z{opacity:0.2;}.p,.u{opacity:0.5;}.ad,.af,.q{opacity:0.4;}.r{opacity:0.25;}.s{opacity:0.05;}.t{fill:#ebebeb;}.v{fill:#f0997a;}.w{opacity:0.8;}.x{fill:#ffbda7;}.y{fill:#f28f8f;}.aa{fill:#b16668;}.ac{opacity:0.45;}.ae{fill:#ffa8a7;}.ag{clip-path:url(#a);}</style><clipPath id="a"><path class="a" d="M390.852,95.8v6.878a1.79,1.79,0,0,1-.81,1.4l-7.222,4.226c-.446.256-.81.046-.81-.467v-6.883a1.764,1.764,0,0,1,.805-1.4c1.97-1.139,5.252-3.077,7.222-4.226C390.488,95.079,390.852,95.284,390.852,95.8Z" transform="translate(-382.01 -95.225)"/></clipPath></defs><g transform="translate(-6.29 -31.828)"><g transform="translate(6.29 119.213)"><ellipse class="b" cx="125" cy="69.765" rx="125" ry="69.765" transform="translate(0 0)"/></g><g transform="translate(24.755 145.942)"><path class="c" d="M56.559,355.788l-13.392-7.524a1.3,1.3,0,0,1,0-2.457l67.191-38.929a4.7,4.7,0,0,1,4.252,0L128,314.387a1.3,1.3,0,0,1,0,2.457L60.811,355.773A4.693,4.693,0,0,1,56.559,355.788Z" transform="translate(-42.29 -279.67)"/><ellipse class="c" cx="32.693" cy="20.193" rx="32.693" ry="20.193" transform="translate(65.488 56.608)"/><path class="c" d="M388.14,286.363l-54.737-31.6a4.2,4.2,0,0,0-3.78,0l-37,21.362a1.154,1.154,0,0,0,0,2.185l54.732,31.595a4.16,4.16,0,0,0,3.78,0l37-21.362a1.328,1.328,0,0,0,.78-1.087A1.514,1.514,0,0,0,388.14,286.363Z" transform="translate(-163.847 -254.313)"/></g><g transform="translate(9.756 158.087)"><g transform="translate(0 0)"><path class="a" d="M39.012,301.918c-3.2-13.259-13.1-28.066-22.947-22.855s7.129,16.849,12.048,27.794c4.3,9.6,9.125,22.614,10.258,25.686l3.683-1.718C42.033,327.553,41.746,313.32,39.012,301.918Z" transform="translate(-13.048 -277.992)"/><path class="d" d="M39.012,301.918c-3.2-13.259-13.1-28.066-22.947-22.855s7.129,16.849,12.048,27.794c4.3,9.6,9.125,22.614,10.258,25.686l3.683-1.718C42.033,327.553,41.746,313.32,39.012,301.918Z" transform="translate(-13.048 -277.992)"/><path class="e" d="M44.593,332.324h0a.344.344,0,0,0,.344-.344c-.087-25.794-10.966-41.817-20.249-47.7a.349.349,0,0,0-.477.108.344.344,0,0,0,.108.472c9.14,5.786,19.844,21.6,19.931,47.115a.344.344,0,0,0,.344.349Z" transform="translate(-18.46 -281.03)"/><path class="a" d="M37.213,341.243c-7.606-15.387-18.229-17.018-22.157-13.525-3.139,2.785-.78,7.027,2.144,8.837,3.806,2.354,16.741,8.509,21.1,19.608l2.872-1.349A35.807,35.807,0,0,0,37.213,341.243Z" transform="translate(-13.301 -301.463)"/><path class="e" d="M44.887,359.174h.077a.364.364,0,0,0,.282-.431c-2.513-12.479-14.4-21.142-20.357-22.486a.364.364,0,0,0-.159.708c5.786,1.308,17.352,9.745,19.8,21.922A.359.359,0,0,0,44.887,359.174Z" transform="translate(-18.615 -306.371)"/></g></g><g transform="translate(32.874 32.532)"><g transform="translate(0 0)"><path class="f" d="M121.371,34.124,61.407,68.729a6.545,6.545,0,0,0-3.267,5.427V211.163a7.243,7.243,0,0,0,3.077,5.8,7.258,7.258,0,0,0,6.55-.241L127.51,182.23A7.729,7.729,0,0,0,131,176.193V39.663a7.265,7.265,0,0,0-3.077-5.8A7.229,7.229,0,0,0,121.371,34.124Z" transform="translate(-58.13 -33.201)"/><path class="g" d="M66.911,253.172a7.155,7.155,0,0,1-5.714-.154,7.309,7.309,0,0,1-3.077-5.8V110.215A6.216,6.216,0,0,1,59,107.23l5.642,3.19a6.775,6.775,0,0,0-1.621,4.062V250.048C63.013,252.726,64.726,253.993,66.911,253.172Z" transform="translate(-58.12 -69.26)"/><path class="h" d="M70.727,76.882a6.822,6.822,0,0,0-3.077,5.324V217.772c0,3,2.129,4.231,4.729,2.729l59.748-34.493a7.729,7.729,0,0,0,3.488-6.037V43.441c0-2.216-1.569-3.118-3.488-2.011Z" transform="translate(-62.762 -36.979)"/><path class="f" d="M76.653,95.154,73.34,97.067V220.8l3.313-1.913,56.163-32.421,3.313-1.913V60.82l-3.308,1.908Z" transform="translate(-65.534 -46.654)"/><path class="a" d="M131.934,184.073V65.53L76.653,97.448,73.34,99.361V217.914L128.621,186C130.447,184.944,131.934,184.073,131.934,184.073Z" transform="translate(-65.534 -48.948)"/><path class="i" d="M131.934,184.073V65.53L76.653,97.448,73.34,99.361V217.914L128.621,186C130.447,184.944,131.934,184.073,131.934,184.073Z" transform="translate(-65.534 -48.948)"/><path d="M124.962,82.551l10.084-5.821c.6-.349,1.087-.1,1.087.549a2.344,2.344,0,0,1-1.087,1.811L124.962,84.91c-.6.344-1.092.1-1.092-.554A2.334,2.334,0,0,1,124.962,82.551Z" transform="translate(-90.147 -54.326)"/><path d="M158.766,68.589c.564-.323,1.026-.062,1.026.59a2.252,2.252,0,0,1-1.026,1.77c-.564.328-1.026.062-1.026-.59A2.262,2.262,0,0,1,158.766,68.589Z" transform="translate(-106.644 -50.371)"/><path d="M166.736,64c.564-.328,1.026-.062,1.026.59a2.262,2.262,0,0,1-1.026,1.77c-.564.323-1.026.062-1.026-.59A2.252,2.252,0,0,1,166.736,64Z" transform="translate(-110.527 -48.133)"/><path d="M103.026,100.8c.564-.328,1.026-.062,1.026.59a2.262,2.262,0,0,1-1.026,1.77c-.564.328-1.026.062-1.026-.59A2.252,2.252,0,0,1,103.026,100.8Z" transform="translate(-79.494 -66.058)"/><path d="M110.966,96.2c.564-.323,1.026-.062,1.026.59a2.252,2.252,0,0,1-1.026,1.77c-.564.328-1.026.062-1.026-.59a2.267,2.267,0,0,1,1.026-1.77Z" transform="translate(-83.361 -63.819)"/><g transform="translate(9.362 59.389)"><path class="j" d="M78.321,193.382a1.98,1.98,0,0,1-1.944-2.1V163.721a3.38,3.38,0,0,1,.477-1.667,3.318,3.318,0,0,1,1.2-1.231l19.973-11.515a2.308,2.308,0,0,1,1.139-.318,1.882,1.882,0,0,1,1.775,1.205h0a2.985,2.985,0,0,1,.144.9v27.569a3.59,3.59,0,0,1-1.662,2.893l-19.957,11.5a3.155,3.155,0,0,1-.359.169A2.139,2.139,0,0,1,78.321,193.382Z" transform="translate(-76.373 -148.99)"/><g transform="translate(1.281 1.222)"><path class="k" d="M103.51,153.746a2.149,2.149,0,0,0-.969-1.682l-.8-.456a2.118,2.118,0,0,0-1.939,0L79.839,163.132a2.144,2.144,0,0,0-.969,1.682v27.563a2.144,2.144,0,0,0,.969,1.682l.79.456a2.149,2.149,0,0,0,1.939,0l19.962-11.535a2.149,2.149,0,0,0,.969-1.677Z" transform="translate(-78.87 -151.372)"/><path class="c" d="M78.87,204.233a2.144,2.144,0,0,0,.969,1.682l.79.456a2.18,2.18,0,0,0,1.775.077c-.456.174-.805-.087-.805-.641V178.244a1.939,1.939,0,0,1,.287-.954l-2.734-1.58a2.021,2.021,0,0,0-.282.959Z" transform="translate(-78.87 -163.227)"/><path class="l" d="M103.752,153.5c-.113-.415-.513-.544-.939-.287L82.841,164.73a1.939,1.939,0,0,0-.682.723l-2.729-1.575a1.939,1.939,0,0,1,.682-.723l19.967-11.515a2.149,2.149,0,0,1,1.939,0l.8.456A2.149,2.149,0,0,1,103.752,153.5Z" transform="translate(-79.143 -151.39)"/></g><g transform="translate(9.092 11.535)"><path class="a" d="M94.336,202.62a.246.246,0,0,1-.118-.036.231.231,0,0,1-.118-.2V187.971a.231.231,0,0,1,.118-.2l11.392-6.581a.241.241,0,0,1,.236,0,.236.236,0,0,1,.118.205v14.4a.241.241,0,0,1-.118.205l-11.4,6.575A.241.241,0,0,1,94.336,202.62Zm.226-14.51v13.848l10.925-6.309V181.8Z" transform="translate(-94.1 -176.195)"/><path class="a" d="M99.043,200.358a.236.236,0,0,1-.236-.231V185.765l-2.052-2.954L94.57,188.52a.236.236,0,0,1-.3.133.231.231,0,0,1-.133-.3l2.359-6.093a.231.231,0,0,1,.19-.149.236.236,0,0,1,.221.1l2.344,3.38a.256.256,0,0,1,.041.133v14.407a.236.236,0,0,1-.246.231Z" transform="translate(-94.108 -176.656)"/><path class="a" d="M101.274,182.278a.226.226,0,0,1-.19-.1l-2.344-3.38a.231.231,0,0,1-.036-.185.236.236,0,0,1,.113-.149l6.7-3.872a.231.231,0,0,1,.308.067l2.344,3.38a.241.241,0,0,1,.036.185.231.231,0,0,1-.113.154l-6.678,3.872A.236.236,0,0,1,101.274,182.278Zm-2.005-3.539,2.052,3,6.3-3.642-2.052-2.99Z" transform="translate(-96.34 -172.979)"/><path class="a" d="M98.931,177.389a.231.231,0,0,1-.231-.236v-1.575a.236.236,0,0,1,.118-.205l6.7-3.862a.241.241,0,0,1,.236,0,.246.246,0,0,1,.118.205v1.569a.236.236,0,1,1-.472,0v-1.169l-6.237,3.59v1.441a.231.231,0,0,1-.236.241Z" transform="translate(-96.341 -171.48)"/><path class="a" d="M106.023,209.264l.456-1.313.031-.067a.133.133,0,0,1,.072-.077l.159-.092a.051.051,0,0,1,.046,0,.056.056,0,0,1,0,.051v2.052a.138.138,0,0,1,0,.072.092.092,0,0,1-.046.051l-.19.113h-.046a.057.057,0,0,1,0-.051v-1.241l-.308.892a.1.1,0,0,1-.036.072.118.118,0,0,1-.056.056l-.123.072a.046.046,0,0,1-.056,0l-.031-.031-.313-.539v1.246a.2.2,0,0,1,0,.072.231.231,0,0,1-.046.051l-.195.113a.041.041,0,0,1-.046,0,.067.067,0,0,1,0-.051v-2.052a.2.2,0,0,1,0-.072.23.23,0,0,1,.046-.051l.164-.092h.067l.036.031Z" transform="translate(-99.551 -189.127)"/><path class="a" d="M109.052,209.261a.051.051,0,0,1-.046,0,.077.077,0,0,1,0-.051v-2.052a.221.221,0,0,1,0-.072.154.154,0,0,1,.046-.051l.195-.113a.031.031,0,0,1,.041,0,.056.056,0,0,1,0,.051v2.052a.18.18,0,0,1-.062.123Z" transform="translate(-101.358 -188.74)"/><path class="a" d="M111.472,207.487h.046a.056.056,0,0,1,0,.051v.226a.139.139,0,0,1,0,.072.113.113,0,0,1-.046.051l-1.026.6a.031.031,0,0,1-.041,0v-2.1a.128.128,0,0,1,0-.072.108.108,0,0,1,.041-.051l.195-.113a.041.041,0,0,1,.046,0,.067.067,0,0,1,0,.051v1.744Z" transform="translate(-102.04 -188.366)"/><path class="a" d="M114.366,205.566a.128.128,0,0,1,0,.072.092.092,0,0,1-.046.051l-.226.133a.087.087,0,0,1-.077,0h-.031l-.564-.513v.831a.159.159,0,0,1,0,.067.179.179,0,0,1-.046.056l-.195.108a.036.036,0,0,1-.046,0,.056.056,0,0,1,0-.046v-2.052a.19.19,0,0,1,0-.072.154.154,0,0,1,.046-.051l.195-.113a.041.041,0,0,1,.046,0,.067.067,0,0,1,0,.051v.749l.513-1.067a.2.2,0,0,1,.046-.077.22.22,0,0,1,.062-.056l.215-.123a.051.051,0,0,1,.046,0,.062.062,0,0,1,0,.051.133.133,0,0,1,0,.056l-.641,1.3Z" transform="translate(-103.37 -187.081)"/></g></g><g transform="translate(37.023 43.412)"><path class="j" d="M132.251,162.237a1.98,1.98,0,0,1-1.944-2.1V132.576a3.38,3.38,0,0,1,.477-1.667,3.283,3.283,0,0,1,1.2-1.231l19.973-11.515a2.241,2.241,0,0,1,1.134-.323,1.877,1.877,0,0,1,1.775,1.205h0a3.077,3.077,0,0,1,.144.9v27.563a3.59,3.59,0,0,1-1.662,2.893l-20,11.515a3.589,3.589,0,0,1-.354.169A2.149,2.149,0,0,1,132.251,162.237Z" transform="translate(-130.303 -117.84)"/><g transform="translate(1.337 1.222)"><path class="k" d="M157.6,122.6a2.139,2.139,0,0,0-.975-1.682l-.79-.456a2.118,2.118,0,0,0-1.939,0l-19.967,11.51a2.139,2.139,0,0,0-.975,1.682v27.564a2.149,2.149,0,0,0,.975,1.682l.79.456a2.149,2.149,0,0,0,1.939,0l19.967-11.515a2.139,2.139,0,0,0,.975-1.682Z" transform="translate(-132.929 -120.222)"/><path class="c" d="M132.91,173.053a2.149,2.149,0,0,0,.975,1.682l.79.456a2.18,2.18,0,0,0,1.775.077c-.456.174-.805-.087-.805-.641V147.064a1.985,1.985,0,0,1,.282-.954l-2.729-1.58a2.052,2.052,0,0,0-.287.959Z" transform="translate(-132.91 -132.062)"/><path class="l" d="M157.792,122.323c-.113-.415-.487-.544-.934-.287L136.886,133.55a1.9,1.9,0,0,0-.682.723L133.47,132.7a1.99,1.99,0,0,1,.687-.723l19.962-11.515a2.164,2.164,0,0,1,1.944,0l.8.456a2.129,2.129,0,0,1,.934,1.405Z" transform="translate(-133.183 -120.226)"/></g><g transform="translate(7.252 11.712)"><path class="a" d="M148.985,168.727a4.016,4.016,0,0,1-3.118-1.826c-2.708-3.477-1.246-11.043,1.79-13.546,2.052-1.682,3.124-1.446,3.867-.949a4.894,4.894,0,0,0,1.652-1.508,8.073,8.073,0,0,1,3.667-2.847,1.949,1.949,0,0,1,2.2.513c1.5,1.569,1.852,6.109-.149,10.992-2.841,6.924-5.729,7.237-6.427,7.211a5,5,0,0,1-3.447,1.959Zm1.385-16.213a4.088,4.088,0,0,0-2.416,1.2c-2.826,2.334-4.242,9.658-1.718,12.9a3.611,3.611,0,0,0,2.78,1.646c1.77-.026,3.144-1.857,3.16-1.877a.251.251,0,0,1,.236-.092c.026,0,3.026.446,6.047-6.914,1.934-4.7,1.641-9.027.246-10.489a1.493,1.493,0,0,0-1.7-.395,7.586,7.586,0,0,0-3.467,2.7,5.837,5.837,0,0,1-1.59,1.539l.087.077c.369.308.615.513.918.451a2.855,2.855,0,0,0,1.636-1.6.233.233,0,1,1,.41.221,3.18,3.18,0,0,1-1.975,1.836,1.626,1.626,0,0,1-1.293-.554A2.052,2.052,0,0,0,150.37,152.514Z" transform="translate(-144.442 -144.197)"/><path class="a" d="M161.05,150.136a.231.231,0,0,1-.236-.221c-.128-3.144,1.78-7.955,3.642-9.2a.233.233,0,0,1,.256.39c-1.723,1.154-3.549,5.837-3.431,8.791a.231.231,0,0,1-.221.241Z" transform="translate(-152.414 -140.675)"/><path class="a" d="M158.608,149.192h-.036a1.093,1.093,0,0,1-.923-.626,5.555,5.555,0,0,1-.272-2.954.277.277,0,0,1,.138-.19,2.454,2.454,0,0,1,2.339-.1c.857.6.662,2.118.149,2.944A1.79,1.79,0,0,1,158.608,149.192Zm-.708-3.349a4.8,4.8,0,0,0,.236,2.462.544.544,0,0,0,.456.333,1.246,1.246,0,0,0,.944-.662h0c.431-.692.513-1.831,0-2.2A1.818,1.818,0,0,0,157.9,145.843Z" transform="translate(-150.7 -142.804)"/></g></g><g transform="translate(9.362 97.062)"><path class="j" d="M78.321,266.837a1.98,1.98,0,0,1-1.944-2.093V237.171a3.39,3.39,0,0,1,.477-1.667,3.319,3.319,0,0,1,1.2-1.231l19.973-11.515a2.308,2.308,0,0,1,1.139-.318,1.882,1.882,0,0,1,1.775,1.205h0a2.985,2.985,0,0,1,.144.9v27.569a3.59,3.59,0,0,1-1.662,2.893l-19.957,11.5a3.16,3.16,0,0,1-.359.169A2.14,2.14,0,0,1,78.321,266.837Z" transform="translate(-76.374 -222.44)"/><g transform="translate(1.28 1.227)"><path class="k" d="M103.51,227.2a2.149,2.149,0,0,0-.969-1.677l-.8-.456a2.118,2.118,0,0,0-1.939,0l-19.967,11.51a2.134,2.134,0,0,0-.969,1.677v27.564a2.144,2.144,0,0,0,.969,1.672l.79.456a2.149,2.149,0,0,0,1.939,0l19.962-11.5a2.149,2.149,0,0,0,.969-1.682Z" transform="translate(-78.87 -224.832)"/><path class="c" d="M78.87,277.663a2.144,2.144,0,0,0,.969,1.667l.79.456a2.18,2.18,0,0,0,1.775.077c-.456.174-.805-.087-.805-.641V251.674a1.939,1.939,0,0,1,.287-.954l-2.734-1.58a2.021,2.021,0,0,0-.282.959Z" transform="translate(-78.87 -236.672)"/><path class="l" d="M103.752,226.932c-.113-.415-.513-.544-.939-.287L82.841,238.16a1.939,1.939,0,0,0-.682.723l-2.729-1.575a1.939,1.939,0,0,1,.682-.723l19.967-11.515a2.149,2.149,0,0,1,1.939,0l.8.457A2.149,2.149,0,0,1,103.752,226.932Z" transform="translate(-79.143 -224.836)"/></g><g transform="translate(5.402 9.592)"><path class="a" d="M97.926,262.062a.2.2,0,0,1-.123-.036.231.231,0,0,1-.113-.205c.174-10.227,7.278-19.675,13.038-20.675a.236.236,0,0,1,.185.041.267.267,0,0,1,.092.169c0,.226.38,5.6-5.268,13.248-4.067,5.509-7.555,7.355-7.694,7.432A.277.277,0,0,1,97.926,262.062Zm12.617-20.4c-5.462,1.2-12.028,10.063-12.371,19.752a27.535,27.535,0,0,0,7.181-7.083C110.2,247.767,110.538,242.828,110.543,241.659Z" transform="translate(-92.159 -241.141)"/><path class="a" d="M114.6,254.279h0c-2.4-.149-3.667-2.226-3.477-5.709a.231.231,0,0,1,.246-.221.236.236,0,0,1,.221.246c-.174,3.185.939,5.088,3.042,5.211a.236.236,0,0,1,.215.251.231.231,0,0,1-.246.221Z" transform="translate(-98.693 -244.652)"/><path class="a" d="M88.308,283.127a1.918,1.918,0,0,1-1.328-.513.236.236,0,0,1-.046-.282c1.728-3.272,4.314-4.585,5.868-4.165a.236.236,0,0,1,.164.287.226.226,0,0,1-.287.164c-1.369-.369-3.683.933-5.242,3.765a1.58,1.58,0,0,0,1.175.231,6.35,6.35,0,0,0,3.862-2.934.236.236,0,0,1,.4.246,6.887,6.887,0,0,1-4.2,3.154A2.953,2.953,0,0,1,88.308,283.127Z" transform="translate(-86.906 -259.14)"/><path class="a" d="M98.3,287.775a.3.3,0,0,1-.128-.036c-1.826-1.19-1.872-4.585-.98-7.181a.231.231,0,0,1,.292-.149.236.236,0,0,1,.149.3c-.816,2.349-.78,5.329.585,6.478,1.313-2.713,1.026-6.155.062-7.032a.226.226,0,0,1,0-.328.231.231,0,0,1,.328,0c1.221,1.149,1.421,4.991-.087,7.842a.236.236,0,0,1-.149.113Z" transform="translate(-91.64 -259.951)"/><path class="a" d="M110.484,259.941h0c-1.457-.056-2.5-2-2.565-3.78a.236.236,0,0,1,.226-.241.226.226,0,0,1,.241.226c.051,1.539.964,3.283,2.108,3.329a.236.236,0,0,1,0,.467Z" transform="translate(-97.142 -248.339)"/><path class="a" d="M107.35,264.639h-.036c-.928-.149-1.959-1.841-2.118-3.077a.236.236,0,1,1,.467-.062c.144,1.113,1.077,2.565,1.728,2.662a.236.236,0,0,1-.041.467Z" transform="translate(-95.813 -250.95)"/><path class="a" d="M104.429,269.186h-.041c-.774-.138-1.682-1.657-1.821-2.5a.231.231,0,0,1,.195-.267.226.226,0,0,1,.267.19c.133.805.964,2.052,1.441,2.118a.236.236,0,0,1-.041.467Z" transform="translate(-94.533 -253.451)"/><path class="a" d="M101.511,274.034h-.051a1.78,1.78,0,0,1-1.205-1.3.235.235,0,0,1,.456-.108,1.344,1.344,0,0,0,.846.949.236.236,0,0,1,.18.277A.231.231,0,0,1,101.511,274.034Z" transform="translate(-93.405 -256.391)"/><path class="a" d="M115.468,249.34a.6.6,0,0,1-.292-.077.831.831,0,0,1-.349-.749,1.857,1.857,0,0,1,.79-1.5.662.662,0,0,1,.677-.031.816.816,0,0,1,.354.749,1.846,1.846,0,0,1-.795,1.493A.821.821,0,0,1,115.468,249.34Zm.513-1.964a.288.288,0,0,0-.149.051,1.38,1.38,0,0,0-.559,1.087c0,.2.062.313.118.344a.23.23,0,0,0,.205-.036,1.39,1.39,0,0,0,.559-1.087c0-.205-.062-.313-.118-.344a.1.1,0,0,0-.036-.015Z" transform="translate(-100.505 -243.95)"/><path class="a" d="M99.979,258.75a.241.241,0,0,1-.215-.138c-.313-.7-1.759-.328-1.775-.328a.231.231,0,0,1-.231-.067.215.215,0,0,1-.051-.231c.421-1.251,2.857-4,4.811-4.37a.231.231,0,0,1,.272.185.226.226,0,0,1-.185.272c-1.59.3-3.59,2.426-4.283,3.672.58-.077,1.539-.072,1.872.677a.231.231,0,0,1-.118.308A.221.221,0,0,1,99.979,258.75Z" transform="translate(-92.16 -247.215)"/></g></g><g transform="translate(37.023 81.028)"><path class="j" d="M132.251,235.572a1.98,1.98,0,0,1-1.944-2.1V205.91a3.38,3.38,0,0,1,.477-1.667,3.283,3.283,0,0,1,1.2-1.231L151.951,191.5a2.236,2.236,0,0,1,1.134-.318,1.877,1.877,0,0,1,1.775,1.2h0a3.155,3.155,0,0,1,.144.9v27.553a3.59,3.59,0,0,1-1.662,2.893l-20,11.515a3.724,3.724,0,0,1-.354.174A2.257,2.257,0,0,1,132.251,235.572Z" transform="translate(-130.303 -191.18)"/><g transform="translate(1.337 1.268)"><path class="k" d="M157.6,196.021a2.139,2.139,0,0,0-.975-1.677l-.79-.456a2.118,2.118,0,0,0-1.939,0L133.925,205.4a2.139,2.139,0,0,0-.975,1.682v27.563a2.154,2.154,0,0,0,.975,1.682l.79.456a2.149,2.149,0,0,0,1.939,0l19.967-11.515a2.139,2.139,0,0,0,.975-1.687Z" transform="translate(-132.93 -193.652)"/><path class="c" d="M132.91,246.5a2.154,2.154,0,0,0,.975,1.682l.79.456a2.18,2.18,0,0,0,1.775.077c-.456.169-.805-.087-.805-.641V220.513a1.985,1.985,0,0,1,.282-.954L133.2,218a2.011,2.011,0,0,0-.287.959Z" transform="translate(-132.91 -205.512)"/><path class="l" d="M157.792,195.768c-.113-.415-.487-.544-.934-.287L136.886,207a1.9,1.9,0,0,0-.682.7l-2.734-1.539a2.005,2.005,0,0,1,.687-.728l19.962-11.51a2.165,2.165,0,0,1,1.944,0l.795.456A2.128,2.128,0,0,1,157.792,195.768Z" transform="translate(-133.183 -193.671)"/></g><g transform="translate(5.832 14.352)"><path class="a" d="M146.8,237.266a6.416,6.416,0,0,1-3.047-.739.226.226,0,0,1-.1-.3l7.76-16.926a.215.215,0,0,1,.169-.133.226.226,0,0,1,.21.067l7.765,7.965a.231.231,0,0,1,.031.282,23.059,23.059,0,0,1-7.847,8.3A10.007,10.007,0,0,1,146.8,237.266Zm-2.631-1.051c2.052,1.026,4.662.708,7.335-.836a22.636,22.636,0,0,0,7.591-7.986l-7.4-7.591Z" transform="translate(-142.624 -219.161)"/><path class="a" d="M145.216,239.538a7.181,7.181,0,0,1-3.416-.831.226.226,0,0,1-.1-.3l8.76-19.106a.215.215,0,0,1,.169-.133.226.226,0,0,1,.21.067l8.76,8.986a.241.241,0,0,1,.031.287,26.151,26.151,0,0,1-8.842,9.361A11.284,11.284,0,0,1,145.216,239.538Zm-3-1.144c2.344,1.149,5.293.821,8.335-.933a25.691,25.691,0,0,0,8.586-9.043l-8.4-8.617Z" transform="translate(-141.674 -219.161)"/><path class="a" d="M141.91,238.752a.221.221,0,0,1-.1,0,.231.231,0,0,1-.113-.308l8.76-19.106a.215.215,0,0,1,.169-.133.226.226,0,0,1,.21.067l8.76,8.986a.236.236,0,0,1,0,.333.231.231,0,0,1-.328,0l-8.524-8.745-8.617,18.8A.246.246,0,0,1,141.91,238.752Z" transform="translate(-141.676 -219.18)"/><path class="a" d="M158.526,227.906a.344.344,0,0,1-.231-.082c-.251-.21-.19-.831.174-1.852a.241.241,0,0,1,.195-.154.236.236,0,0,1,.226.113,2.052,2.052,0,0,1,.318,1.359.831.831,0,0,1-.4.513A.549.549,0,0,1,158.526,227.906Zm.092-.41Zm.108-.769a3.2,3.2,0,0,0-.118.667.374.374,0,0,0,.149-.215.985.985,0,0,0-.031-.451Z" transform="translate(-149.696 -222.403)"/><path class="a" d="M158.526,244.555a.369.369,0,0,1-.231-.082c-.251-.21-.19-.836.174-1.852a.236.236,0,0,1,.195-.154.226.226,0,0,1,.226.108,2.093,2.093,0,0,1,.318,1.364.846.846,0,0,1-.4.513.6.6,0,0,1-.282.1Zm.092-.415Zm.108-.769a3.255,3.255,0,0,0-.118.667.359.359,0,0,0,.149-.215A.985.985,0,0,0,158.726,243.371Z" transform="translate(-149.696 -230.512)"/><path class="a" d="M167.159,237.675a.287.287,0,0,1-.128-.026c-.364-.138-.4-.892-.369-1.508a.241.241,0,0,1,.1-.174.221.221,0,0,1,.195-.036,1.222,1.222,0,0,1,.862.657.836.836,0,0,1-.205.805.615.615,0,0,1-.451.282Zm.072-.441Zm-.108-.733a2.74,2.74,0,0,0,.072.657l.051-.056c.113-.149.154-.267.123-.359A.513.513,0,0,0,167.123,236.5Z" transform="translate(-153.841 -227.326)"/><path class="a" d="M149.893,247.245h-.051a.421.421,0,0,1-.359-.241c-.205-.446.436-1.426.718-1.826a.236.236,0,0,1,.426.123c0,.226.062,1.39-.359,1.8A.513.513,0,0,1,149.893,247.245Zm.236-1.062a1.375,1.375,0,0,0-.221.626c0-.031,0-.036.036-.056A1.113,1.113,0,0,0,150.128,246.184Z" transform="translate(-145.458 -231.787)"/><path class="a" d="M154.518,238.163a.38.38,0,0,1-.323-.159c-.251-.354.144-1.221.513-1.888a.246.246,0,0,1,.241-.118.236.236,0,0,1,.195.185,2.739,2.739,0,0,1-.1,1.687.621.621,0,0,1-.426.282A.363.363,0,0,1,154.518,238.163Zm.067-.415Zm.185-.682a2.2,2.2,0,0,0-.19.615.169.169,0,0,0,.077-.072A1.026,1.026,0,0,0,154.769,237.065Z" transform="translate(-147.734 -227.361)"/><path class="a" d="M162.537,233.822a.3.3,0,0,1-.159-.041c-.282-.149-.339-.708-.174-1.672a.241.241,0,0,1,.138-.174.231.231,0,0,1,.215,0,1.477,1.477,0,0,1,.682.928.872.872,0,0,1-.3.739.6.6,0,0,1-.4.221Zm.092-.431Zm0-.785a3.134,3.134,0,0,0,0,.687h0a.446.446,0,0,0,.164-.354.631.631,0,0,0-.185-.333Z" transform="translate(-151.629 -225.37)"/></g></g><g transform="translate(20.38 122.025)"><path class="j" d="M99.8,304.936a1.975,1.975,0,0,1-1.944-2.082V292.185a3.56,3.56,0,0,1,1.672-2.9l31.041-17.854a2.262,2.262,0,0,1,1.139-.323,1.877,1.877,0,0,1,1.77,1.205h.026a3.123,3.123,0,0,1,.144.9v10.658a3.56,3.56,0,0,1-1.662,2.893l-31.051,17.859a3.589,3.589,0,0,1-.354.169A2.138,2.138,0,0,1,99.8,304.936Z" transform="translate(-97.854 -271.11)"/><g transform="translate(1.275 1.231)"><path class="a" d="M136.084,275.879a2.149,2.149,0,0,0-.975-1.682l-.79-.456a2.149,2.149,0,0,0-1.939,0l-31.036,17.854a2.149,2.149,0,0,0-.975,1.682V303.93a2.149,2.149,0,0,0,.975,1.682l.79.457a2.149,2.149,0,0,0,1.939,0l31.041-17.854a2.154,2.154,0,0,0,.969-1.682Z" transform="translate(-100.355 -273.51)"/><path class="d" d="M136.084,275.879a2.149,2.149,0,0,0-.975-1.682l-.79-.456a2.149,2.149,0,0,0-1.939,0l-31.036,17.854a2.149,2.149,0,0,0-.975,1.682V303.93a2.149,2.149,0,0,0,.975,1.682l.79.457a2.149,2.149,0,0,0,1.939,0l31.041-17.854a2.154,2.154,0,0,0,.969-1.682Z" transform="translate(-100.355 -273.51)"/><path class="m" d="M100.34,321.8a2.149,2.149,0,0,0,.975,1.682l.79.456a2.18,2.18,0,0,0,1.775.077c-.456.174-.805-.087-.805-.641V312.724a1.99,1.99,0,0,1,.282-.959l-2.729-1.575a2,2,0,0,0-.287.954Z" transform="translate(-100.34 -291.376)"/><path class="d" d="M136.3,275.622c-.118-.41-.513-.544-.939-.282l-31.041,17.854a1.9,1.9,0,0,0-.682.723l-2.734-1.575a1.99,1.99,0,0,1,.687-.723l31.036-17.839a2.149,2.149,0,0,1,1.939,0l.795.462A2.154,2.154,0,0,1,136.3,275.622Z" transform="translate(-100.613 -273.529)"/></g><path class="k" d="M111.423,320.825a.087.087,0,0,1-.113,0,.2.2,0,0,1-.051-.154v-6.093a.451.451,0,0,1,.051-.205.307.307,0,0,1,.113-.144l1.975-1.139a1.339,1.339,0,0,1,.687-.221.621.621,0,0,1,.451.19,1.056,1.056,0,0,1,.241.513,2.707,2.707,0,0,1,.077.657,2.974,2.974,0,0,1-.041.513,2.563,2.563,0,0,1-.1.4,1.8,1.8,0,0,1-.113.3,1.662,1.662,0,0,1-.092.19.657.657,0,0,1,.333.4,2.452,2.452,0,0,1,.092.749,4.283,4.283,0,0,1-.072.8,3.562,3.562,0,0,1-.241.795,3.124,3.124,0,0,1-.436.718,2.412,2.412,0,0,1-.662.554Zm2.293-5.919a.431.431,0,0,0-.1-.333c-.062-.061-.154-.056-.277,0l-.949.549V316.2l.949-.549a.672.672,0,0,0,.277-.308A.985.985,0,0,0,113.716,314.906Zm-1.323,3.9,1.026-.585a.749.749,0,0,0,.292-.333,1.123,1.123,0,0,0,.113-.477.462.462,0,0,0-.113-.344q-.108-.1-.292,0l-1.026.585Z" transform="translate(-104.383 -291.451)"/><path class="k" d="M123.228,306.83a.087.087,0,0,1,.113,0,.2.2,0,0,1,.051.154v3.76a5.544,5.544,0,0,1-.133,1.226,4.814,4.814,0,0,1-.385,1.062,3.755,3.755,0,0,1-.59.851,3.232,3.232,0,0,1-.754.61,1.878,1.878,0,0,1-.759.267.821.821,0,0,1-.585-.174,1.252,1.252,0,0,1-.38-.621,3.508,3.508,0,0,1-.138-1.072v-3.76a.513.513,0,0,1,.051-.21.339.339,0,0,1,.118-.144l.8-.462a.092.092,0,0,1,.118,0,.205.205,0,0,1,.046.149v3.724a1.257,1.257,0,0,0,.18.78c.123.144.3.149.549,0a1.267,1.267,0,0,0,.549-.636,2.564,2.564,0,0,0,.18-.99V307.62a.436.436,0,0,1,.051-.205.308.308,0,0,1,.113-.144Z" transform="translate(-108.479 -288.499)"/><path class="k" d="M130.458,308.847a.513.513,0,0,1-.046.205.282.282,0,0,1-.118.144l-.8.462a.092.092,0,0,1-.118,0,.21.21,0,0,1-.046-.154v-1.985l-1.416-3.19a.236.236,0,0,1,0-.108.41.41,0,0,1,.041-.169.236.236,0,0,1,.092-.113l.841-.513c.082-.046.144-.051.185,0a.3.3,0,0,1,.072.1l.769,1.872.78-2.765a1.234,1.234,0,0,1,.072-.185.436.436,0,0,1,.185-.2l.841-.482a.072.072,0,0,1,.092,0,.169.169,0,0,1,.041.123.574.574,0,0,1-.026.138l-1.416,4.821Z" transform="translate(-112.493 -286.033)"/><path class="k" d="M141.694,302.848q-.108.062-.169,0a.3.3,0,0,1-.082-.087l-1.4-2.411v3.185a.452.452,0,0,1-.051.205.334.334,0,0,1-.113.144l-.805.462a.092.092,0,0,1-.113,0,.19.19,0,0,1-.051-.149v-6.083a.436.436,0,0,1,.051-.205.277.277,0,0,1,.113-.144l.636-.369c.072-.036.128-.041.169,0a.3.3,0,0,1,.082.082l1.4,2.416v-3.185a.513.513,0,0,1,.051-.21.292.292,0,0,1,.118-.138l.8-.462a.087.087,0,0,1,.118,0,.205.205,0,0,1,.046.149v6.088a.512.512,0,0,1-.046.21.323.323,0,0,1-.118.138Z" transform="translate(-117.851 -283.173)"/><path class="k" d="M147.29,295.983a5.28,5.28,0,0,1,.149-1.082,4.713,4.713,0,0,1,.374-1.026,4.5,4.5,0,0,1,.585-.887,3.077,3.077,0,0,1,.8-.662,1.61,1.61,0,0,1,.795-.256.862.862,0,0,1,.59.205,1.252,1.252,0,0,1,.374.595,3.349,3.349,0,0,1,.154.908c0,.267,0,.544,0,.841v.836a5.674,5.674,0,0,1-.154,1.082,4.858,4.858,0,0,1-.374,1.026,3.99,3.99,0,0,1-.59.887,3.252,3.252,0,0,1-.805.662,1.657,1.657,0,0,1-.8.262.867.867,0,0,1-.585-.205,1.354,1.354,0,0,1-.374-.6,3.17,3.17,0,0,1-.149-.908c0-.251,0-.513,0-.826S147.28,296.255,147.29,295.983Zm2.688.077v-1.585a1.708,1.708,0,0,0-.067-.395.61.61,0,0,0-.144-.256.364.364,0,0,0-.236-.1.7.7,0,0,0-.333.108,1.21,1.21,0,0,0-.328.277,1.432,1.432,0,0,0-.236.364,1.944,1.944,0,0,0-.149.431,2.324,2.324,0,0,0-.062.467v1.585a1.051,1.051,0,0,0,.21.662c.123.133.313.128.564,0a1.338,1.338,0,0,0,.564-.636,2.647,2.647,0,0,0,.215-.923Z" transform="translate(-121.929 -281.319)"/><path class="k" d="M158.75,289.181l.395-3.411a.61.61,0,0,1,.072-.241.446.446,0,0,1,.113-.123l.805-.462a.072.072,0,0,1,.092,0,.149.149,0,0,1,.041.123.512.512,0,0,1,0,.082l-.79,6.411a.841.841,0,0,1-.1.3.513.513,0,0,1-.21.236l-.513.292c-.082.046-.149.046-.195,0a.308.308,0,0,1-.108-.18l-.462-1.867-.456,2.4a1.225,1.225,0,0,1-.108.308.513.513,0,0,1-.2.226l-.513.3a.185.185,0,0,1-.21,0,.267.267,0,0,1-.1-.19l-.79-5.5a.387.387,0,0,1,0-.072.41.41,0,0,1,.041-.169.277.277,0,0,1,.092-.118l.805-.462a.128.128,0,0,1,.113,0c.041,0,.062.067.077.154l.39,2.959.359-1.913a.945.945,0,0,1,.056-.2.369.369,0,0,1,.154-.195l.574-.328q.108-.067.154,0a.513.513,0,0,1,.056.138Z" transform="translate(-125.941 -277.84)"/></g><g transform="translate(7.806 14.166)"><path class="a" d="M73.34,97.067l13.32,18.68,62.795-36.252L136.125,60.82Z" transform="translate(-73.34 -60.82)"/><path class="k" d="M84.45,121.938l5.709-3.3,13.325,18.68-5.709,3.293Z" transform="translate(-78.752 -88.984)"/><path class="k" d="M106.72,109.088l5.709-3.3,13.33,18.68-5.709,3.293Z" transform="translate(-89.599 -82.725)"/><path class="k" d="M129,96.238l5.709-3.3,13.325,18.675-5.709,3.3Z" transform="translate(-100.452 -76.465)"/><path class="k" d="M151.27,83.388l5.709-3.3L170.3,98.765l-5.709,3.3Z" transform="translate(-111.299 -70.206)"/><path class="k" d="M173.54,70.538l5.709-3.3,13.325,18.675-5.709,3.3Z" transform="translate(-122.147 -63.947)"/><path class="c" d="M110.43,158.353c0,1.821,1.277,2.565,2.857,1.646a6.309,6.309,0,0,0,2.852-4.939Z" transform="translate(-91.406 -106.724)"/><path class="c" d="M132.69,145.5c0,1.821,1.277,2.565,2.852,1.646a6.314,6.314,0,0,0,2.857-4.939Z" transform="translate(-102.249 -100.465)"/><path class="c" d="M154.94,132.653c0,1.821,1.277,2.565,2.857,1.652a6.314,6.314,0,0,0,2.852-4.944Z" transform="translate(-113.087 -94.206)"/><path class="c" d="M177.2,119.8c0,1.821,1.277,2.565,2.852,1.652a6.314,6.314,0,0,0,2.852-4.944Z" transform="translate(-123.93 -87.946)"/><path class="c" d="M199.45,106.958c0,1.816,1.277,2.565,2.852,1.646a6.309,6.309,0,0,0,2.857-4.944Z" transform="translate(-134.768 -81.687)"/><path class="a" d="M99.31,164.773c0,1.821,1.277,2.565,2.852,1.652a6.314,6.314,0,0,0,2.852-4.944Z" transform="translate(-85.99 -109.851)"/><path class="a" d="M121.56,151.928c0,1.816,1.277,2.565,2.852,1.646a6.309,6.309,0,0,0,2.857-4.944Z" transform="translate(-96.828 -103.592)"/><path class="a" d="M143.81,139.078c0,1.821,1.282,2.565,2.857,1.646a6.309,6.309,0,0,0,2.852-4.944Z" transform="translate(-107.666 -97.333)"/><path class="a" d="M166.07,126.228c0,1.821,1.277,2.565,2.852,1.646a6.3,6.3,0,0,0,2.857-4.944Z" transform="translate(-118.508 -91.073)"/><path class="a" d="M188.32,113.383c0,1.821,1.277,2.565,2.857,1.646a6.309,6.309,0,0,0,2.852-4.939Z" transform="translate(-129.346 -84.819)"/><path class="a" d="M210.58,100.533c0,1.821,1.277,2.565,2.852,1.646a6.3,6.3,0,0,0,2.852-4.939Z" transform="translate(-140.189 -78.56)"/><g class="n" transform="translate(13.32 18.68)"><path d="M99.31,164.773c0,1.821,1.277,2.565,2.852,1.652a6.314,6.314,0,0,0,2.852-4.944Z" transform="translate(-99.31 -128.531)"/><path d="M121.56,151.928c0,1.816,1.277,2.565,2.852,1.646a6.309,6.309,0,0,0,2.857-4.944Z" transform="translate(-110.148 -122.272)"/><path d="M143.81,139.078c0,1.821,1.282,2.565,2.857,1.646a6.309,6.309,0,0,0,2.852-4.944Z" transform="translate(-120.986 -116.013)"/><path d="M166.07,126.228c0,1.821,1.277,2.565,2.852,1.646a6.3,6.3,0,0,0,2.857-4.944Z" transform="translate(-131.828 -109.753)"/><path d="M188.32,113.383c0,1.821,1.277,2.565,2.857,1.646a6.309,6.309,0,0,0,2.852-4.939Z" transform="translate(-142.666 -103.499)"/><path d="M210.58,100.533c0,1.821,1.277,2.565,2.852,1.646a6.3,6.3,0,0,0,2.852-4.939Z" transform="translate(-153.509 -97.24)"/></g><path class="a" d="M86.66,150.165l-13.32-9.884V131.49Z" transform="translate(-73.34 -95.243)"/><path class="o" d="M86.66,150.165l-13.32-9.884V131.49Z" transform="translate(-73.34 -95.243)"/></g></g></g><g transform="translate(152.75 89.101)"><path class="a" d="M310.43,281.188l47.869,27.64,30.143-17.4L340.568,263.78Z" transform="translate(-300.895 -202.083)"/><path class="p" d="M310.43,281.188l47.869,27.64,30.143-17.4L340.568,263.78Z" transform="translate(-300.895 -202.083)"/><path class="d" d="M383.959,288.9,343.5,265.52a4.062,4.062,0,0,0-3.688,0l-14.223,8.206a19.491,19.491,0,0,0-10.674,1.949c-4.975,2.657-5.673,6.9-1.539,9.473,3.96,2.472,10.945,2.5,15.9.128l30.461,17.6a4.062,4.062,0,0,0,3.688,0l20.516-11.848C384.979,290.437,384.979,289.483,383.959,288.9Z" transform="translate(-301.017 -202.715)"/><path class="a" d="M333.827,179.96v42.992L303.689,240.36l-7.1-38.9Z" transform="translate(-294.154 -161.255)"/><path class="q" d="M296.59,201.461l37.237-21.5v42.992L303.689,240.36l-7.1-38.9" transform="translate(-294.154 -161.255)"/><path class="a" d="M424.158,211.7l-7.093,38.9L369.19,222.952V179.96Z" transform="translate(-329.517 -161.255)"/><path class="m" d="M424.158,211.7l-7.093,38.9L369.19,222.952V179.96Z" transform="translate(-329.517 -161.255)"/><path class="h" d="M388.917,210.365h-2.436l-54.968-31.718-37.237,21.5.549.313-2.985-.313a1.344,1.344,0,0,1,.785-1.092l37-21.383a4.2,4.2,0,0,1,3.78,0l54.737,31.6A1.535,1.535,0,0,1,388.917,210.365Z" transform="translate(-291.84 -159.922)"/><path class="a" d="M416.639,146.194l-1.3-2.359a3.139,3.139,0,0,1,2.9.026h-.026a2.452,2.452,0,0,1,1.026,2.513c-1.426,5.924-6.422,27.092-6.54,27.3l-2.18-1.272Z" transform="translate(-349.648 -143.491)"/><path class="r" d="M416.639,146.194l-1.3-2.359a3.139,3.139,0,0,1,2.9.026h-.026a2.452,2.452,0,0,1,1.026,2.513c-1.426,5.924-6.422,27.092-6.54,27.3l-2.18-1.272Z" transform="translate(-349.648 -143.491)"/><path class="a" d="M426.567,146.106a3.836,3.836,0,0,1,1.626,2.477l4.826,34.2-2.426-1.4-5.078-33.641-1.805-1.6A3.185,3.185,0,0,1,426.567,146.106Z" transform="translate(-356.073 -144.608)"/><path class="a" d="M345.36,166.261l.78,2.759,38.76-22.5-1.3-2.359Z" transform="translate(-317.909 -143.817)"/><path class="r" d="M345.36,166.261l.78,2.759,38.76-22.5-1.3-2.359Z" transform="translate(-317.909 -143.817)"/><path class="a" d="M386.286,146.48l1.805,1.6-39.781,23.183-1.431-2.221Z" transform="translate(-318.65 -144.947)"/><path class="s" d="M344.825,246.8c5.314,3.077,13.925,3.077,19.239,0s5.314-8.042,0-11.11-13.925-3.077-19.239,0S339.512,243.734,344.825,246.8Z" transform="translate(-315.708 -187.279)"/><path class="t" d="M370.587,226.777h0V203.84H347.634v22.937h0c-.1,1.764,1.026,3.549,3.349,4.9,4.483,2.59,11.756,2.59,16.244,0C369.577,230.326,370.684,228.541,370.587,226.777Z" transform="translate(-319.014 -172.887)"/><path class="k" d="M351.005,202.26c4.483,2.59,11.756,2.59,16.244,0s4.483-6.786,0-9.376-11.761-2.565-16.244,0S346.517,199.66,351.005,202.26Z" transform="translate(-319.021 -166.609)"/><path class="t" d="M352.17,202.364a17.221,17.221,0,0,0,15.254,0c4.211-2.375,4.211-6.237,0-8.617a17.2,17.2,0,0,0-15.254,0C347.959,196.121,347.985,199.984,352.17,202.364Z" transform="translate(-319.693 -167.102)"/><path class="k" d="M367.462,195.925a17.187,17.187,0,0,0-15.254,0,5.568,5.568,0,0,0-3.108,3.749,5.631,5.631,0,0,0,3.108,3.749,17.221,17.221,0,0,0,15.254,0,5.64,5.64,0,0,0,3.113-3.749A5.619,5.619,0,0,0,367.462,195.925Z" transform="translate(-319.731 -168.162)"/><path class="a" d="M347.64,226.416c0,1.708,1.1,3.421,3.365,4.724,4.483,2.565,11.756,2.565,16.244,0,2.241-1.3,3.365-2.99,3.365-4.688V211.1c0,1.7-1.123,3.4-3.365,4.688-4.488,2.565-11.761,2.565-16.244,0-2.262-1.3-3.38-3.016-3.365-4.724Z" transform="translate(-319.02 -176.404)"/><path class="u" d="M347.64,226.416c0,1.708,1.1,3.421,3.365,4.724,4.483,2.565,11.756,2.565,16.244,0,2.241-1.3,3.365-2.99,3.365-4.688V211.1c0,1.7-1.123,3.4-3.365,4.688-4.488,2.565-11.761,2.565-16.244,0-2.262-1.3-3.38-3.016-3.365-4.724Z" transform="translate(-319.02 -176.404)"/><path class="s" d="M363.837,233.035c-4.221,1.087-9.355.646-12.823-1.364-2.334-1.339-3.442-3.124-3.349-4.9h0V203.84c0,1.7,1.128,3.4,3.37,4.693a9.7,9.7,0,0,0,1.108.554v20.48C352.122,231.486,358.523,233.763,363.837,233.035Z" transform="translate(-319.029 -172.887)"/><path class="c" d="M373.077,209.312l-1.216-.708c-.99-.569-1.257-1.344-.59-1.723a3.466,3.466,0,0,1,2.99.339l1.216.7c.99.574,1.257,1.344.59,1.728A3.448,3.448,0,0,1,373.077,209.312Z" transform="translate(-330.352 -174.266)"/><ellipse class="k" cx="0.923" cy="0.533" rx="0.923" ry="0.533" transform="translate(41.181 32.769)"/><path class="k" d="M377.11,210.833a1.467,1.467,0,0,0,1.308,0,.4.4,0,0,0,0-.759,1.467,1.467,0,0,0-1.308,0,.4.4,0,0,0,0,.759Z" transform="translate(-333.241 -175.848)"/><g transform="translate(67.295 16.829)"><path class="v" d="M423.36,227.13c2.052-12.643,5.924-28.666,13.695-40.617s15.064-13.448,17.034-4.3-5.129,34.878-9.976,45.541C431.371,255.857,421.087,241.2,423.36,227.13Z" transform="translate(-423.043 -176.302)"/><g class="w" transform="translate(13.677 6.841)"><path class="x" d="M464.569,189.865s-.236.113-.662.287-1.026.405-1.723.657c-.349.138-.733.277-1.133.415s-.816.313-1.251.451l-2.688,1-1.349.513c-.441.18-.892.339-1.313.513l-1.231.513c-.39.169-.764.323-1.118.456-.682.3-1.287.513-1.708.682a6.02,6.02,0,0,1-.682.236s.154-.215.446-.569a12,12,0,0,1,1.323-1.354c.3-.251.621-.513.985-.785a11.874,11.874,0,0,1,1.169-.78,14.878,14.878,0,0,1,1.323-.728c.456-.241.944-.421,1.426-.626a10.343,10.343,0,0,1,1.477-.482c.5-.128.99-.236,1.467-.344a15.751,15.751,0,0,1,2.647-.277A11.231,11.231,0,0,1,464.569,189.865Z" transform="translate(-449.71 -189.639)"/></g><g class="w" transform="translate(2.517 52.759)"><path class="x" d="M442.809,279.419s-.241.118-.662.287-1.026.41-1.723.662c-.354.133-.733.272-1.134.41s-.816.313-1.257.451l-2.682,1.026-1.349.513c-.446.18-.892.333-1.313.513l-1.236.513c-.385.169-.759.323-1.113.456-.687.3-1.293.513-1.713.682a6.211,6.211,0,0,1-.677.236s.149-.215.441-.569a11.722,11.722,0,0,1,1.328-1.349c.3-.251.616-.513.98-.79a12.961,12.961,0,0,1,1.175-.815c.421-.246.851-.513,1.318-.728s.944-.421,1.426-.621.985-.354,1.482-.513.99-.231,1.462-.339a15.237,15.237,0,0,1,2.647-.277A11.11,11.11,0,0,1,442.809,279.419Z" transform="translate(-427.95 -279.165)"/></g><g class="w" transform="translate(9.436 14.673)"><path class="x" d="M460.135,205.125s-.3.149-.826.369-1.241.544-2.113.9c-1.739.744-4.052,1.616-6.36,2.477l-6.386,2.313-2.159.774c-.513.195-.851.287-.851.287s.19-.272.564-.708a6.669,6.669,0,0,1,.713-.749,10.035,10.035,0,0,1,1.026-.887,21.746,21.746,0,0,1,6.191-3.411,24.352,24.352,0,0,1,6.935-1.539,15.081,15.081,0,0,1,2.37,0C459.807,205.053,460.135,205.125,460.135,205.125Z" transform="translate(-441.44 -204.909)"/></g><g class="w" transform="translate(6.625 23.93)"><path class="x" d="M454.655,223.256s-.3.174-.821.421-1.221.605-2.082,1.026c-1.723.79-4.011,1.713-6.3,2.565l-1.723.615c-.554.221-1.128.39-1.667.59l-3,.985-2.216.7c-.544.169-.882.241-.882.241a8.376,8.376,0,0,1,.533-.754,6.25,6.25,0,0,1,.687-.79,11.009,11.009,0,0,1,.985-.939,20.367,20.367,0,0,1,6.211-3.544,22.465,22.465,0,0,1,6.975-1.41,14.768,14.768,0,0,1,2.4.123A7.477,7.477,0,0,1,454.655,223.256Z" transform="translate(-435.96 -222.957)"/></g><g class="w" transform="translate(2.896 43.339)"><path class="x" d="M445.462,261.1s-.267.154-.733.374-1.1.544-1.877.908c-1.539.708-3.59,1.539-5.642,2.3l-1.539.559c-.513.195-1.026.349-1.5.513l-2.7.9-1.98.61c-.513.154-.795.221-.795.221s.159-.256.482-.672a5.88,5.88,0,0,1,.621-.713,9.4,9.4,0,0,1,.882-.841,18.464,18.464,0,0,1,5.58-3.185,20.177,20.177,0,0,1,6.268-1.267,13.85,13.85,0,0,1,2.154.108C445.164,261.015,445.462,261.1,445.462,261.1Z" transform="translate(-428.69 -260.799)"/></g><g class="w" transform="translate(4.184 33.439)"><path class="x" d="M449.9,241.827s-.292.174-.816.421-1.226.6-2.087,1.026c-1.718.79-4.006,1.713-6.3,2.565l-1.718.615c-.559.221-1.134.39-1.672.59l-3.006,1-2.206.682c-.544.174-.887.246-.887.246s.18-.287.539-.749a6.8,6.8,0,0,1,.692-.821,10.886,10.886,0,0,1,.98-.939,20.516,20.516,0,0,1,6.211-3.544,22.491,22.491,0,0,1,6.975-1.41,14.833,14.833,0,0,1,2.4.123A8.974,8.974,0,0,1,449.9,241.827Z" transform="translate(-431.2 -241.497)"/></g></g><g transform="translate(48.618 1.991)"><ellipse class="j" cx="12.658" cy="7.309" rx="12.658" ry="7.309" transform="translate(0 65.907)"/><g transform="translate(2.293)"><path class="a" d="M405.569,164.294v-10.5l-3.4.138-3.4-.138v10.5a16.972,16.972,0,0,1-4.288,11.371c-1.713,1.908-3.308,4.985-3.385,9.873v35.39h0c0,2.385,2.339,4.811,6.955,5.934a17.341,17.341,0,0,0,8.237,0c4.616-1.128,6.924-3.549,6.945-5.934h0v-35.39c-.077-4.888-1.667-7.965-3.38-9.873A16.926,16.926,0,0,1,405.569,164.294Z" transform="translate(-391.1 -150.498)"/><path class="p" d="M405.569,164.294v-10.5l-3.4.138-3.4-.138v10.5a16.972,16.972,0,0,1-4.288,11.371c-1.713,1.908-3.308,4.985-3.385,9.873v35.39h0c0,2.385,2.339,4.811,6.955,5.934a17.341,17.341,0,0,0,8.237,0c4.616-1.128,6.924-3.549,6.945-5.934h0v-35.39c-.077-4.888-1.667-7.965-3.38-9.873A16.926,16.926,0,0,1,405.569,164.294Z" transform="translate(-391.1 -150.498)"/><path class="f" d="M412.885,149.5a.507.507,0,0,0,0-.087,1.641,1.641,0,0,0-.985-1.467,5.334,5.334,0,0,0-4.811,0,2.005,2.005,0,0,0-.877.9.475.475,0,0,0-.051.1.312.312,0,0,0,0,.067.662.662,0,0,0-.051.226v5.129a1.687,1.687,0,0,0,1,1.4,5.334,5.334,0,0,0,4.811,0,1.81,1.81,0,0,0,.964-1.18.443.443,0,0,0,.036-.108Z" transform="translate(-398.411 -147.372)"/><path class="h" d="M411.851,150.726a5.3,5.3,0,0,1-4.811,0c-1.334-.764-1.334-2.011,0-2.78a5.334,5.334,0,0,1,4.811,0C413.2,148.72,413.2,149.961,411.851,150.726Z" transform="translate(-398.377 -147.372)"/><path class="e" d="M419.228,217.8v19.26c0,1.646-1.077,3.277-3.242,4.519-3.4,1.959-8.478,2.38-12.587,1.241V223.545c4.1,1.144,9.191.728,12.587-1.241C418.151,221.077,419.228,219.441,419.228,217.8Z" transform="translate(-397.091 -181.677)"/></g></g><g transform="translate(6.323 49.886)"><path class="y" d="M312.581,252.638c-2.154.344-5.9,1.026-7.76,6.088-2.123,5.78,1.246,12.361,5.642,14.838,5.529,3.113,13.643,2.513,17.952-2.308,4.785-5.334,4.257-14.479.256-18.1s-9.422-1.929-10.8-1.169C315.822,253.125,314.263,252.371,312.581,252.638Z" transform="translate(-304.168 -245.711)"/><path class="j" d="M328.275,275.887a17.482,17.482,0,0,1-18.085.369,11.567,11.567,0,0,0,3.211,2.759c5.529,3.113,13.643,2.513,17.952-2.308a14.873,14.873,0,0,0,2.518-14.628C334.23,263.29,334.117,271.866,328.275,275.887Z" transform="translate(-307.101 -251.142)"/><g class="z" transform="translate(1.39 9.082)"><path class="e" d="M311.844,258.46c-1.41.026-3.319,1.467-4.185,3.483a13.407,13.407,0,0,0-.256,8.248c1.323,4.816,6.324,6.909,6.74,6.447s-3.349-3.318-1.944-8.386C313.608,263.107,314.157,258.429,311.844,258.46Z" transform="translate(-306.878 -258.46)"/></g><g class="z" transform="translate(2.17 9.753)"><path class="e" d="M311.585,260c-1.375.626-2.8,3.077-3.077,4.729s.051,2.729.292,2.9c.426.3,3.036-2.821,3.847-4.185C313.837,261.5,313.806,258.99,311.585,260Z" transform="translate(-308.4 -259.769)"/></g><path class="aa" d="M324.012,260.412c-.826-.513-1.569-.764-1.857.19s1.882,2.18,4.062,1.3,2.806-2.426,2.682-3.159a4.162,4.162,0,0,1-2.339,2.052,3.755,3.755,0,0,1-2.549-.38Z" transform="translate(-312.917 -249.515)"/><path class="f" d="M320.454,253.312a21.091,21.091,0,0,0-1.641-6.037A11.456,11.456,0,0,0,315,242.5a6.124,6.124,0,0,0-2.5-.118c-1.149.128-2.441,1.026-2.021,1.446s2.113.569,4.319,2.247,4.5,5.129,4.719,7.329A.9.9,0,0,0,320.454,253.312Z" transform="translate(-307.204 -241.507)"/><path class="h" d="M314.964,242.488l-.113-.031h0a6.581,6.581,0,0,0-2.277-.056,3.113,3.113,0,0,0-2.052,1.026c-.062.174.215.374,1.257.415a6.391,6.391,0,0,0,3-.59C315.215,243.057,315.349,242.672,314.964,242.488Z" transform="translate(-307.259 -241.52)"/><path class="j" d="M320.539,252.129c-1.169-2.5-4.139-4.385-6.119-5.129h0a11.669,11.669,0,0,1,2.339,1.39c2.206,1.682,4.5,5.129,4.719,7.329a.9.9,0,0,0,.923-.092s-.077-.785-.308-1.913C322.139,254.755,321.616,254.432,320.539,252.129Z" transform="translate(-309.162 -243.796)"/><path class="a" d="M327.629,248.1a4.986,4.986,0,0,0,4.888-7.329,5.073,5.073,0,0,0-4.283,1.831A6.1,6.1,0,0,0,327.629,248.1Z" transform="translate(-315.406 -240.754)"/><path class="m" d="M327.629,248.1a4.986,4.986,0,0,0,4.888-7.329,5.073,5.073,0,0,0-4.283,1.831A6.1,6.1,0,0,0,327.629,248.1Z" transform="translate(-315.406 -240.754)"/><path class="a" d="M332.536,240.767a5.073,5.073,0,0,0-4.283,1.831,6.011,6.011,0,0,0-.605,5.5C328.536,243.957,332.536,240.767,332.536,240.767Z" transform="translate(-315.409 -240.754)"/></g><g transform="translate(4.315 31.088)"><path class="d" d="M308.826,254.592c4.1,2.565,11.5,2.5,16.505-.159s5.7-6.9,1.539-9.473-11.535-2.5-16.505.159S304.707,252.017,308.826,254.592Z" transform="translate(-303.118 -223.086)"/><path class="y" d="M308.668,215.988c-2.154.344-5.9,1.026-7.765,6.088-2.118,5.775,1.252,12.361,5.642,14.838,5.529,3.113,13.643,2.513,17.952-2.313,4.785-5.334,4.252-14.474.256-18.09s-9.422-1.929-10.8-1.175C311.92,216.475,310.345,215.721,308.668,215.988Z" transform="translate(-300.253 -209.06)"/><path class="j" d="M324.365,239.2c-5.309,3.642-13.079,3.452-18.085.364a11.443,11.443,0,0,0,3.211,2.765c5.529,3.113,13.643,2.513,17.952-2.313,3.631-4.042,4.2-10.258,2.518-14.623C330.32,226.621,330.207,235.192,324.365,239.2Z" transform="translate(-303.189 -214.472)"/><g class="z" transform="translate(1.39 9.081)"><path class="e" d="M307.932,221.81c-1.41,0-3.318,1.467-4.19,3.483a13.406,13.406,0,0,0-.251,8.248c1.323,4.816,6.324,6.909,6.74,6.447s-3.349-3.318-1.949-8.386C309.706,226.457,310.245,221.774,307.932,221.81Z" transform="translate(-302.963 -221.81)"/></g><g class="z" transform="translate(2.176 9.753)"><path class="e" d="M307.678,223.35c-1.38.626-2.8,3.077-3.077,4.724s.056,2.734.292,2.9c.431.3,3.042-2.821,3.852-4.185C309.909,224.853,309.883,222.34,307.678,223.35Z" transform="translate(-304.496 -223.119)"/></g><path class="aa" d="M320.092,223.752c-.821-.513-1.564-.764-1.857.19s1.887,2.18,4.062,1.3,2.811-2.426,2.688-3.16a4.181,4.181,0,0,1-2.339,2.052A3.8,3.8,0,0,1,320.092,223.752Z" transform="translate(-308.999 -212.86)"/><path class="f" d="M316.529,216.664a21.148,21.148,0,0,0-1.631-6.037c-1.308-2.77-3.3-4.616-3.816-4.775a6.068,6.068,0,0,0-2.493-.123c-1.149.133-2.447,1.026-2.026,1.452s2.118.569,4.324,2.247,4.493,5.129,4.719,7.329A.9.9,0,0,0,316.529,216.664Z" transform="translate(-303.287 -204.858)"/><path class="h" d="M311.049,205.842l-.118-.036h0a6.694,6.694,0,0,0-2.277-.062,3.124,3.124,0,0,0-2.052,1.026c-.062.174.21.374,1.257.415a6.468,6.468,0,0,0,3-.59C311.3,206.406,311.418,205.99,311.049,205.842Z" transform="translate(-303.342 -204.869)"/><path class="j" d="M316.629,215.469c-1.169-2.5-4.139-4.385-6.119-5.129h0a11.667,11.667,0,0,1,2.339,1.39c2.2,1.677,4.493,5.129,4.719,7.329a.9.9,0,0,0,.923-.092s-.077-.785-.313-1.913C318.229,218.1,317.706,217.777,316.629,215.469Z" transform="translate(-305.249 -207.141)"/><path class="a" d="M323.738,211.441a4.983,4.983,0,0,0,4.888-7.324,5.073,5.073,0,0,0-4.283,1.831A6,6,0,0,0,323.738,211.441Z" transform="translate(-311.497 -204.104)"/><path class="m" d="M323.738,211.441a4.983,4.983,0,0,0,4.888-7.324,5.073,5.073,0,0,0-4.283,1.831A6,6,0,0,0,323.738,211.441Z" transform="translate(-311.497 -204.104)"/><path class="a" d="M328.626,204.117a5.073,5.073,0,0,0-4.283,1.831,6,6,0,0,0-.605,5.493C324.621,207.3,328.626,204.117,328.626,204.117Z" transform="translate(-311.497 -204.104)"/></g><g transform="translate(15.278 51.634)"><path class="a" d="M344.828,277.015c0,3.272-2.657,6.965-5.929,6.965s-5.9-3.693-5.9-6.965a5.929,5.929,0,0,1,11.853,0Z" transform="translate(-327.167 -257.361)"/><path class="ab" d="M344.828,277.015c0,3.272-2.657,6.965-5.929,6.965s-5.9-3.693-5.9-6.965a5.929,5.929,0,0,1,11.853,0Z" transform="translate(-327.167 -257.361)"/><path class="a" d="M365.518,288.824c0,3.272-2.652,6.965-5.924,6.965s-5.924-3.693-5.924-6.965a5.924,5.924,0,0,1,11.848,0Z" transform="translate(-337.235 -263.03)"/><path class="ab" d="M365.518,288.824c0,3.272-2.652,6.965-5.924,6.965s-5.924-3.693-5.924-6.965a5.924,5.924,0,0,1,11.848,0Z" transform="translate(-337.235 -263.03)"/><path class="a" d="M386.228,300.794c0,3.272-2.652,6.965-5.924,6.965s-5.924-3.693-5.924-6.965a5.924,5.924,0,1,1,11.848,0Z" transform="translate(-347.323 -268.861)"/><path class="ab" d="M386.228,300.794c0,3.272-2.652,6.965-5.924,6.965s-5.924-3.693-5.924-6.965a5.924,5.924,0,1,1,11.848,0Z" transform="translate(-347.323 -268.861)"/><path class="a" d="M406.943,312.945c0,3.272-2.652,6.965-5.924,6.965s-5.929-3.693-5.929-6.965a5.929,5.929,0,0,1,11.853,0Z" transform="translate(-357.411 -274.862)"/><path class="ab" d="M406.943,312.945c0,3.272-2.652,6.965-5.924,6.965s-5.929-3.693-5.929-6.965a5.929,5.929,0,0,1,11.853,0Z" transform="translate(-357.411 -274.862)"/><path class="a" d="M429.828,299.535c0,3.272-2.652,6.965-5.924,6.965s-5.9-3.7-5.9-6.965a5.929,5.929,0,0,1,11.853,0Z" transform="translate(-368.57 -268.33)"/><path class="ab" d="M429.828,299.535c0,3.272-2.652,6.965-5.924,6.965s-5.9-3.7-5.9-6.965a5.929,5.929,0,0,1,11.853,0Z" transform="translate(-368.57 -268.33)"/><path class="a" d="M389.549,273.755a1.313,1.313,0,0,0-.78-1.092l-41.514-23.983a4.16,4.16,0,0,0-3.78,0L322.41,260.84a1.323,1.323,0,0,0-.78,1.092c0,.364,0,1.682,0,2.052a1.323,1.323,0,0,0,.78,1.092l41.515,23.989a4.206,4.206,0,0,0,3.785,0l21.06-12.161a1.313,1.313,0,0,0,.78-1.093Z" transform="translate(-321.629 -246.14)"/><path class="o" d="M389.549,273.755a1.313,1.313,0,0,0-.78-1.092l-41.514-23.983a4.16,4.16,0,0,0-3.78,0L322.41,260.84a1.323,1.323,0,0,0-.78,1.092c0,.364,0,1.682,0,2.052a1.323,1.323,0,0,0,.78,1.092l41.515,23.989a4.206,4.206,0,0,0,3.785,0l21.06-12.161a1.313,1.313,0,0,0,.78-1.093Z" transform="translate(-321.629 -246.14)"/><path class="j" d="M365.853,300.492v2.052a3.934,3.934,0,0,1-1.923-.456L322.415,278.1a1.318,1.318,0,0,1-.785-1.092V274.96a1.339,1.339,0,0,0,.785,1.092l41.514,23.989A3.959,3.959,0,0,0,365.853,300.492Z" transform="translate(-321.629 -259.163)"/><path class="a" d="M322.408,260.85l21.065-12.161a4.16,4.16,0,0,1,3.78,0l41.514,23.983a1.16,1.16,0,0,1,0,2.185l-21.06,12.161a4.175,4.175,0,0,1-3.785,0l-41.515-23.983A1.155,1.155,0,0,1,322.408,260.85Z" transform="translate(-321.628 -246.145)"/><path class="j" d="M405.219,309.754c2.262-1.308,2.267-3.421,0-4.719a9.136,9.136,0,0,0-8.206,0c-2.282,1.3-2.288,3.416,0,4.719a9.089,9.089,0,0,0,8.206,0Z" transform="translate(-357.512 -273.338)"/><path class="j" d="M428.079,296.588c2.262-1.308,2.267-3.421,0-4.724a9.12,9.12,0,0,0-8.207,0c-2.282,1.3-2.288,3.416,0,4.719A9.169,9.169,0,0,0,428.079,296.588Z" transform="translate(-368.647 -266.922)"/><path class="j" d="M384.5,297.784c2.262-1.308,2.272-3.421,0-4.719a9.136,9.136,0,0,0-8.206,0c-2.282,1.3-2.288,3.416,0,4.719A9.088,9.088,0,0,0,384.5,297.784Z" transform="translate(-347.42 -267.508)"/><path class="j" d="M407.359,284.593c2.262-1.3,2.272-3.416,0-4.719a9.12,9.12,0,0,0-8.206,0c-2.282,1.3-2.287,3.416,0,4.724a9.078,9.078,0,0,0,8.206-.005Z" transform="translate(-358.555 -261.081)"/><path class="j" d="M363.789,285.814c2.262-1.308,2.272-3.421,0-4.719a9.136,9.136,0,0,0-8.206,0c-2.282,1.3-2.288,3.416,0,4.719A9.088,9.088,0,0,0,363.789,285.814Z" transform="translate(-337.332 -261.677)"/><path class="j" d="M386.651,272.593c2.262-1.3,2.272-3.416,0-4.719a9.12,9.12,0,0,0-8.206,0c-2.277,1.3-2.288,3.416,0,4.719A9.072,9.072,0,0,0,386.651,272.593Z" transform="translate(-348.469 -255.236)"/><path class="j" d="M343.069,273.843c2.262-1.308,2.272-3.421,0-4.719a9.12,9.12,0,0,0-8.206,0c-2.282,1.3-2.288,3.416,0,4.719A9.094,9.094,0,0,0,343.069,273.843Z" transform="translate(-327.239 -255.845)"/><path class="j" d="M365.929,260.593c2.267-1.3,2.272-3.416,0-4.719a9.12,9.12,0,0,0-8.206,0c-2.282,1.3-2.288,3.416,0,4.719A9.025,9.025,0,0,0,365.929,260.593Z" transform="translate(-338.374 -249.391)"/><path class="k" d="M429.777,288.879v.282a5.324,5.324,0,0,1-.185,1.144,3.989,3.989,0,0,1-1.216,1.026,9.041,9.041,0,0,1-8.206,0,3.9,3.9,0,0,1-1.205-1.026,5.208,5.208,0,0,1-.195-1.169v-.559a3.7,3.7,0,0,1,.046-.728,11.053,11.053,0,0,1,3.175-6.745,3.231,3.231,0,0,1,4.565,0,10.935,10.935,0,0,1,3.159,6.719c.026.267.046.513.056.79C429.777,288.689,429.777,288.8,429.777,288.879Z" transform="translate(-368.945 -261.695)"/><path class="k" d="M409.072,276.89a2.417,2.417,0,0,1,0,.277,4.762,4.762,0,0,1-.185,1.149,3.9,3.9,0,0,1-1.21,1.026,9.069,9.069,0,0,1-8.206,0,3.9,3.9,0,0,1-1.205-1.026,4.975,4.975,0,0,1-.195-1.175q0-.131,0-.277v-.282a3.783,3.783,0,0,1,.046-.723,11.017,11.017,0,0,1,3.17-6.755,3.226,3.226,0,0,1,4.56,0,10.93,10.93,0,0,1,3.165,6.719c.026.262.041.513.051.785A2.509,2.509,0,0,1,409.072,276.89Z" transform="translate(-358.862 -255.851)"/><path class="k" d="M406.917,302.05v.277a5.219,5.219,0,0,1-.185,1.144,3.852,3.852,0,0,1-1.216,1.026,9.041,9.041,0,0,1-8.206,0,3.959,3.959,0,0,1-1.205-1.026,5.251,5.251,0,0,1-.195-1.175v-.559a3.781,3.781,0,0,1,.046-.723,11.043,11.043,0,0,1,3.17-6.781,3.231,3.231,0,0,1,4.565,0,10.925,10.925,0,0,1,3.16,6.719c.026.262.046.513.056.785C406.917,301.86,406.917,301.953,406.917,302.05Z" transform="translate(-357.81 -268.091)"/><path class="k" d="M386.212,290.065a2.493,2.493,0,0,1,0,.282,4.718,4.718,0,0,1-.185,1.144,3.964,3.964,0,0,1-1.21,1.026,9.053,9.053,0,0,1-8.206,0,3.924,3.924,0,0,1-1.21-1.026,5.2,5.2,0,0,1-.19-1.169v-.559a3.7,3.7,0,0,1,.046-.728,11.027,11.027,0,0,1,3.17-6.781,3.226,3.226,0,0,1,4.56,0,10.94,10.94,0,0,1,3.165,6.719c0,.267.041.513.051.79A2.443,2.443,0,0,1,386.212,290.065Z" transform="translate(-347.727 -262.256)"/><path class="k" d="M388.362,264.895a2.493,2.493,0,0,1,0,.282,5.221,5.221,0,0,1-.185,1.144,3.919,3.919,0,0,1-1.216,1.026,9.041,9.041,0,0,1-8.206,0,3.959,3.959,0,0,1-1.205-1.026,5.2,5.2,0,0,1-.19-1.169c0-.087,0-.185,0-.282v-.277a4.216,4.216,0,0,1,.041-.723,11.007,11.007,0,0,1,3.175-6.765,3.226,3.226,0,0,1,4.56,0,10.94,10.94,0,0,1,3.165,6.719c.026.262.041.513.051.785A2.446,2.446,0,0,1,388.362,264.895Z" transform="translate(-348.775 -250.006)"/><path class="k" d="M367.642,252.905a2.5,2.5,0,0,1,0,.282,5.019,5.019,0,0,1-.18,1.144,3.99,3.99,0,0,1-1.216,1.026,9.073,9.073,0,0,1-8.206,0,3.888,3.888,0,0,1-1.205-1.026,5.21,5.21,0,0,1-.195-1.169c0-.087,0-.185,0-.282V252.6a3.7,3.7,0,0,1,.046-.728,11.028,11.028,0,0,1,3.17-6.77,3.226,3.226,0,0,1,4.56,0,10.94,10.94,0,0,1,3.165,6.719c0,.262.046.513.051.79a2.422,2.422,0,0,1,.01.292Z" transform="translate(-338.682 -244.16)"/><path class="k" d="M365.552,278.115a2.452,2.452,0,0,1,0,.277,4.927,4.927,0,0,1-.18,1.144,3.853,3.853,0,0,1-1.216,1.026,9.041,9.041,0,0,1-8.206,0,3.9,3.9,0,0,1-1.205-1.026,5.207,5.207,0,0,1-.195-1.169v-.559a3.754,3.754,0,0,1,.046-.723,11,11,0,0,1,3.17-6.781,3.226,3.226,0,0,1,4.56,0,10.915,10.915,0,0,1,3.165,6.719c.026.262.046.513.051.785a2.5,2.5,0,0,1,.01.308Z" transform="translate(-337.664 -256.435)"/><path class="k" d="M344.792,266.135a2.5,2.5,0,0,1,0,.282,4.678,4.678,0,0,1-.185,1.144,3.929,3.929,0,0,1-1.216,1.026,9.041,9.041,0,0,1-8.206,0,3.959,3.959,0,0,1-1.205-1.026,5.206,5.206,0,0,1-.19-1.169c0-.087,0-.185,0-.282v-.277a4.16,4.16,0,0,1,.041-.728,11.063,11.063,0,0,1,3.175-6.781,3.226,3.226,0,0,1,4.56,0,10.94,10.94,0,0,1,3.165,6.724c.026.262.041.513.051.785a2.455,2.455,0,0,1,.01.3Z" transform="translate(-327.552 -250.6)"/></g><path class="a" d="M351.563,253.613,296.59,221.88l3.19,34.549a9.366,9.366,0,0,0,4.139,6.545L347.783,288.3a8.448,8.448,0,0,0,6.924.3l.159-.062.092-.046a3.879,3.879,0,0,0,.385-.195l26.122-15.085a9.381,9.381,0,0,0,4.144-6.534l3.185-34.549Zm-37.955,6.129a.832.832,0,1,1-1.431.831l-1.426-.821a6.288,6.288,0,0,1-2.836-4.914V242.355a2.754,2.754,0,0,1,.251-1.216,2.688,2.688,0,0,1,1.185.385l1.421.826a6.252,6.252,0,0,1,2.836,4.914Zm14.182,8.206a2.724,2.724,0,0,1-.251,1.216,2.647,2.647,0,0,1-1.18-.385l-1.421-.821a6.268,6.268,0,0,1-2.836-4.909v-12.5a2.8,2.8,0,0,1,.246-1.216,2.565,2.565,0,0,1,1.185.385l1.426.826a6.242,6.242,0,0,1,2.831,4.908Zm14.187,8.206a2.683,2.683,0,0,1-.256,1.216,2.729,2.729,0,0,1-1.175-.38l-1.426-.821a6.288,6.288,0,0,1-2.836-4.914V258.732a2.713,2.713,0,0,1,.251-1.21,2.621,2.621,0,0,1,1.185.385l1.421.821a6.268,6.268,0,0,1,2.836,4.914Zm24.137-4.488a6.288,6.288,0,0,1-2.836,4.914l-1.426.821a.832.832,0,1,1-1.431-.831V264.056a6.252,6.252,0,0,1,2.836-4.914l1.421-.826a2.605,2.605,0,0,1,1.185-.38,2.713,2.713,0,0,1,.251,1.21Zm12.412-7.181a6.263,6.263,0,0,1-2.841,4.909l-1.416.821a2.621,2.621,0,0,1-1.185.385,2.724,2.724,0,0,1-.251-1.216v-12.5a6.268,6.268,0,0,1,2.836-4.909l1.421-.821a2.523,2.523,0,0,1,1.18-.385,2.631,2.631,0,0,1,.256,1.21Z" transform="translate(-294.154 -181.674)"/><path class="ac" d="M351.563,253.613,296.59,221.88l3.19,34.549a9.366,9.366,0,0,0,4.139,6.545L347.783,288.3a8.448,8.448,0,0,0,6.924.3l.159-.062.092-.046a3.879,3.879,0,0,0,.385-.195l26.122-15.085a9.381,9.381,0,0,0,4.144-6.534l3.185-34.549Zm-37.955,6.129a.832.832,0,1,1-1.431.831l-1.426-.821a6.288,6.288,0,0,1-2.836-4.914V242.355a2.754,2.754,0,0,1,.251-1.216,2.688,2.688,0,0,1,1.185.385l1.421.826a6.252,6.252,0,0,1,2.836,4.914Zm14.182,8.206a2.724,2.724,0,0,1-.251,1.216,2.647,2.647,0,0,1-1.18-.385l-1.421-.821a6.268,6.268,0,0,1-2.836-4.909v-12.5a2.8,2.8,0,0,1,.246-1.216,2.565,2.565,0,0,1,1.185.385l1.426.826a6.242,6.242,0,0,1,2.831,4.908Zm14.187,8.206a2.683,2.683,0,0,1-.256,1.216,2.729,2.729,0,0,1-1.175-.38l-1.426-.821a6.288,6.288,0,0,1-2.836-4.914V258.732a2.713,2.713,0,0,1,.251-1.21,2.621,2.621,0,0,1,1.185.385l1.421.821a6.268,6.268,0,0,1,2.836,4.914Zm24.137-4.488a6.288,6.288,0,0,1-2.836,4.914l-1.426.821a.832.832,0,1,1-1.431-.831V264.056a6.252,6.252,0,0,1,2.836-4.914l1.421-.826a2.605,2.605,0,0,1,1.185-.38,2.713,2.713,0,0,1,.251,1.21Zm12.412-7.181a6.263,6.263,0,0,1-2.841,4.909l-1.416.821a2.621,2.621,0,0,1-1.185.385,2.724,2.724,0,0,1-.251-1.216v-12.5a6.268,6.268,0,0,1,2.836-4.909l1.421-.821a2.523,2.523,0,0,1,1.18-.385,2.631,2.631,0,0,1,.256,1.21Z" transform="translate(-294.154 -181.674)"/><path class="ad" d="M403.77,263.336v32.487c0,2.149,1.359,3.165,3.144,2.488l.159-.062.092-.046a3.879,3.879,0,0,0,.385-.195l26.122-15.085a9.381,9.381,0,0,0,4.144-6.534L441,241.84Zm14.556,18.018a6.288,6.288,0,0,1-2.836,4.914l-1.426.821a.832.832,0,1,1-1.431-.831V273.779a6.252,6.252,0,0,1,2.836-4.914l1.421-.826a2.605,2.605,0,0,1,1.185-.38,2.714,2.714,0,0,1,.251,1.21Zm12.412-7.181a6.263,6.263,0,0,1-2.841,4.909l-1.416.821a2.621,2.621,0,0,1-1.185.385,2.723,2.723,0,0,1-.251-1.216V266.608a6.268,6.268,0,0,1,2.836-4.909l1.421-.821a2.523,2.523,0,0,1,1.18-.385,2.631,2.631,0,0,1,.256,1.21Z" transform="translate(-346.361 -191.396)"/><path class="h" d="M428.4,294.2v12.484a6.252,6.252,0,0,1-2.831,4.909l-1.421.821c-1.149.662-2.134.446-2.565-.426a2.661,2.661,0,0,0,1.175-.38l1.426-.821a6.288,6.288,0,0,0,2.836-4.914V293.388a2.713,2.713,0,0,0-.251-1.21C427.725,292.126,428.4,292.88,428.4,294.2Z" transform="translate(-355.036 -215.914)"/><path class="h" d="M452.6,280.229v12.479a6.278,6.278,0,0,1-2.836,4.914l-1.421.821c-1.149.662-2.134.446-2.565-.426a2.621,2.621,0,0,0,1.185-.385l1.416-.821a6.263,6.263,0,0,0,2.841-4.908V279.419a2.631,2.631,0,0,0-.256-1.21C451.925,278.162,452.6,278.911,452.6,280.229Z" transform="translate(-366.823 -209.11)"/><path class="f" d="M443.443,241.786v4.1a1.334,1.334,0,0,1-.785,1.092l-37,21.352a3.9,3.9,0,0,1-1.887.451v-4.1a3.846,3.846,0,0,0,1.888-.451l37-21.337a1.267,1.267,0,0,0,.774-1.164.173.173,0,0,1,.01.056Z" transform="translate(-346.361 -191.343)"/><path class="g" d="M349.249,254.936v4.1a3.908,3.908,0,0,1-1.893-.451l-54.732-31.6a1.334,1.334,0,0,1-.785-1.092V221.71a1.292,1.292,0,0,0,.78,1.175l54.732,31.595A3.852,3.852,0,0,0,349.249,254.936Z" transform="translate(-291.84 -181.591)"/><path class="h" d="M388.917,232.113a1.328,1.328,0,0,1-.78,1.087l-37,21.362a4.16,4.16,0,0,1-3.78,0l-54.732-31.6a1.333,1.333,0,0,1-.785-1.092h2.436l37.237,21.491,17.736,10.258,37.232-21.5Z" transform="translate(-291.84 -181.669)"/><path class="f" d="M371.27,293.389v12.484a6.283,6.283,0,0,0,2.831,4.914l1.426.821c1.144.656,2.129.441,2.565-.426a2.606,2.606,0,0,1-1.18-.385l-1.426-.821a6.268,6.268,0,0,1-2.836-4.909V292.584a2.723,2.723,0,0,1,.251-1.216C371.947,291.322,371.27,292.071,371.27,293.389Z" transform="translate(-330.53 -215.52)"/><path class="f" d="M343.61,277.419V289.9a6.268,6.268,0,0,0,2.831,4.914l1.426.821c1.149.657,2.129.446,2.565-.426a2.626,2.626,0,0,1-1.18-.385l-1.421-.821a6.263,6.263,0,0,1-2.841-4.909V276.614a2.652,2.652,0,0,1,.256-1.216C344.287,275.352,343.61,276.1,343.61,277.419Z" transform="translate(-317.057 -207.741)"/><path class="f" d="M316,261.458v12.484a6.257,6.257,0,0,0,2.836,4.908l1.421.821c1.149.662,2.134.446,2.565-.421a2.786,2.786,0,0,1-1.18-.385l-1.421-.821a6.268,6.268,0,0,1-2.836-4.914V260.648a2.713,2.713,0,0,1,.251-1.21C316.651,259.386,316,260.14,316,261.458Z" transform="translate(-303.608 -199.967)"/><path class="a" d="M327.36,243.63v.354a2.6,2.6,0,0,0,1.477,2.739h0c.626.359.964-.092.964-.821v-.867Z" transform="translate(-309.142 -192.268)"/><path class="r" d="M327.36,243.63v.354a2.6,2.6,0,0,0,1.477,2.739h0c.626.359.964-.092.964-.821v-.867Z" transform="translate(-309.142 -192.268)"/><path class="a" d="M334.741,189.738a4.488,4.488,0,0,1,1.852-2.488l.78,2.759L329.8,217.573l-2.436-1.41Z" transform="translate(-309.142 -164.806)"/><path class="r" d="M334.741,189.738a4.488,4.488,0,0,1,1.852-2.488l.78,2.759L329.8,217.573l-2.436-1.41Z" transform="translate(-309.142 -164.806)"/><path class="a" d="M345.77,190.39l1.364,2.262,5.129,34.621-2.821-1.626-4.96-32.713A2.759,2.759,0,0,1,345.77,190.39Z" transform="translate(-317.478 -166.335)"/><path class="a" d="M354.2,259.13v.354c0,1.375.21,2.339,1.4,3.021h0a.949.949,0,0,0,1.421-.821v-.928Z" transform="translate(-322.215 -199.818)"/></g><g transform="translate(86.851 83.834)"><path class="ae" d="M256.43,189.948c3.79-.256,6.206.246,8.083,4.616a161.766,161.766,0,0,1,6.257,19.321,4.665,4.665,0,0,1-1.21,4.77c-3.39,3.872-7.853,8.391-7.853,8.391l-2.421-8.478,2.949-4.339-3.554-9.622Z" transform="translate(-208.693 -160.827)"/><path class="y" d="M267.322,237.34a17.821,17.821,0,0,0,2.052,2.862,4.734,4.734,0,0,1-2.513-2.164Z" transform="translate(-213.773 -183.938)"/><path class="f" d="M191.118,416.64a3.7,3.7,0,0,0-.046,1.985,5.677,5.677,0,0,0,3.811,2.19c2.431.477,5.765,0,7.181-.087a65.591,65.591,0,0,1,7.386.656c2.257.308,3.99-.19,4.832-1.026a1.539,1.539,0,0,0,.339-1.19,5.9,5.9,0,0,0-.241-1.605Z" transform="translate(-176.802 -271.274)"/><path class="a" d="M214.128,409.642c.046.19.087.374.123.564a9.545,9.545,0,0,1,.21,2.929,2.667,2.667,0,0,1-1.734,1.308,9,9,0,0,1-4.873.1,34.6,34.6,0,0,0-5.714-.354,35.5,35.5,0,0,1-5,.251,12.1,12.1,0,0,1-3.678-.749c-.99-.426-2-.969-2.236-1.985a3.247,3.247,0,0,1,1.626-3.683c1.021-.605,2.452-.554,4-.657,1.4-.092,2.411-.092,3.652-.19a17.493,17.493,0,0,0,3.149-.6c.934-.3,1.939-1.328,2.339-1.375,0,0,6.211-.046,6.806,0,.682.056.892,2.185.98,2.647.067.359.077.749.174,1.1C214.01,409.191,214.072,409.406,214.128,409.642Z" transform="translate(-176.905 -265.692)"/><g class="af" transform="translate(14.266 139.488)"><path d="M214.128,409.642c.046.19.087.374.123.564a9.545,9.545,0,0,1,.21,2.929,2.667,2.667,0,0,1-1.734,1.308,9,9,0,0,1-4.873.1,34.6,34.6,0,0,0-5.714-.354,35.5,35.5,0,0,1-5,.251,12.1,12.1,0,0,1-3.678-.749c-.99-.426-2-.969-2.236-1.985a3.247,3.247,0,0,1,1.626-3.683c1.021-.605,2.452-.554,4-.657,1.4-.092,2.411-.092,3.652-.19a17.493,17.493,0,0,0,3.149-.6c.934-.3,1.939-1.328,2.339-1.375,0,0,6.211-.046,6.806,0,.682.056.892,2.185.98,2.647.067.359.077.749.174,1.1C214.01,409.191,214.072,409.406,214.128,409.642Z" transform="translate(-191.171 -405.18)"/></g><path class="k" d="M194.765,415.932c-.195-1.539-.451-4.888,2.385-6.816h.364a7.057,7.057,0,0,0-3.929,0,3.421,3.421,0,0,0-2.713,4.385C190.862,413.48,191.375,415.357,194.765,415.932Z" transform="translate(-176.684 -267.473)"/><path class="ae" d="M228.543,348.647c-.2,3.549-3.5,27.764-3.79,29.061-.174.774-1.154,1.6-3.7,1.513-1.79-.056-3.2.092-3.129-1.313l-1.8-30.749Z" transform="translate(-189.058 -237.431)"/><path class="f" d="M241.4,378a6.866,6.866,0,0,0,.21,3.272,7.448,7.448,0,0,0,2.785,3.19,23.173,23.173,0,0,1,2.313,2.667,13.279,13.279,0,0,0,2.154,2.565,4.979,4.979,0,0,0,4.16.585c1.026-.431,1.364-.774,1.3-2.329s-5.021-2.087-5.021-2.087Z" transform="translate(-201.323 -252.453)"/><path class="a" d="M253.944,381.571c.421.149.513.918.59,2.441.051,1.149.559,2.836-1.108,3.565a4.235,4.235,0,0,1-4.411-.892,54.574,54.574,0,0,0-3.519-4.2c-1.405-1.436-2.872-1.918-3.493-4.785-.405-1.846-.087-2.611,1.216-3.139,1.8-.728,4.616,1.652,6.021,2.021C250.451,376.9,253.518,381.417,253.944,381.571Z" transform="translate(-201.585 -250.71)"/><path class="q" d="M253.944,381.571c.421.149.513.918.59,2.441.051,1.149.559,2.836-1.108,3.565a4.235,4.235,0,0,1-4.411-.892,54.574,54.574,0,0,0-3.519-4.2c-1.405-1.436-2.872-1.918-3.493-4.785-.405-1.846-.087-2.611,1.216-3.139,1.8-.728,4.616,1.652,6.021,2.021C250.451,376.9,253.518,381.417,253.944,381.571Z" transform="translate(-201.585 -250.71)"/><path class="ae" d="M258.754,335.18c.236,9.714-1.293,19.49-2,27.871-.123.826-4.262,2.518-5.642.108-.082-.18-3.862-27.528-3.862-27.528Z" transform="translate(-204.221 -231.596)"/><path class="k" d="M242.625,379.591s.138-3.308,4.775-3.862l-.082-.585a3.986,3.986,0,0,0-1.811-1.026,3.417,3.417,0,0,0-3.729,1.026C240.933,376.17,241.789,378.93,242.625,379.591Z" transform="translate(-201.386 -250.485)"/><path class="f" d="M242.765,288.319s-.267-6.8-.1-14.115c.1-4.591.195-7.222,0-10.432a73.446,73.446,0,0,0-1.287-10.684s-25.445-4.852-25.753,4.283c-.374,10.945-.728,32.652-.754,35.514s.154,4.775.446,10.863a25.594,25.594,0,0,0,12.976-.826c.113-3.077.185-4.816.185-4.816l1.251-19.6s.323,3.837.544,7.853.154,4.985.774,12.392c2.565,1.185,10.125,1.108,12.156-1.123a80.438,80.438,0,0,0-.436-9.3Z" transform="translate(-188.447 -190.982)"/><path class="g" d="M214.686,302.42a45.906,45.906,0,0,0,9.55.631s-.082,12.869-.744,14.556-8.3,1.41-9.232,0C214.27,310.729,214.686,302.42,214.686,302.42Z" transform="translate(-188.152 -215.638)"/><path class="g" d="M253.164,279s-3.318,4.56-7.319,6.268l-1.5,13.336-.487-6.668.923-8.063A44.2,44.2,0,0,0,253.164,279Z" transform="translate(-202.57 -204.231)"/><path class="ae" d="M236.28,181.471l.056,8.34,8.427-.087.138-9.684Z" transform="translate(-198.878 -156.028)"/><path class="a" d="M243.506,194.191a6.461,6.461,0,0,0-6.124-4.231h-2.436c-.344,1.405-4.852,2.052-8.525,1.2-1.108.292-5.432,1.1-6.355,1.405-2.641.877-3.175,3.56-3.59,12.176,0,0-.7,14.3-.426,25.035,4.616,2.452,12.228,2.416,17.336,1.9,8.022-.81,9.576-3.739,9.576-3.739a88.5,88.5,0,0,1-.354-11.156c.1-3.5,1.108-7.217,1.421-11.192C244.491,199.654,243.978,195.751,243.506,194.191Z" transform="translate(-188.993 -160.86)"/><path class="m" d="M243.506,194.191a6.461,6.461,0,0,0-6.124-4.231h-2.436c-.344,1.405-4.852,2.052-8.525,1.2-1.108.292-5.432,1.1-6.355,1.405-2.641.877-3.175,3.56-3.59,12.176,0,0-.7,14.3-.426,25.035,4.616,2.452,12.228,2.416,17.336,1.9,8.022-.81,9.576-3.739,9.576-3.739a88.5,88.5,0,0,1-.354-11.156c.1-3.5,1.108-7.217,1.421-11.192C244.491,199.654,243.978,195.751,243.506,194.191Z" transform="translate(-188.993 -160.86)"/><path class="y" d="M222.063,162s-2.236,3.375-2.026,3.678,1.959.513,1.959.513Z" transform="translate(-190.959 -147.24)"/><path class="ae" d="M229.921,140.777c-4.011.672-5.493,3.077-6.083,10.053a62.06,62.06,0,0,0-.031,6.745c.256,3.042.826,3.806,1.436,4.488s4.293.887,5.955.513c2.082-.482,6.791-1.934,9.1-5.165,2.724-3.806,3.077-8.555.964-11.361C236.373,139.464,231.562,140.485,229.921,140.777Z" transform="translate(-192.765 -136.788)"/><path class="y" d="M226.68,182.149c.462.513,3.211.785,4.929.651v-.99A12.822,12.822,0,0,1,226.68,182.149Z" transform="translate(-194.201 -156.89)"/><path class="g" d="M226.758,143.367a3.626,3.626,0,0,0,2.272,3.867,4.929,4.929,0,0,0-.364,1.775,1.487,1.487,0,0,0,.154.872.559.559,0,0,0,1.026.026,7.472,7.472,0,0,1,.9-1.41,2.729,2.729,0,0,1,1.744-.877c2.508-.169,2.688,3.113,1.631,4.426-1.728,2.149-3.077.59-3.077.59s-.431,2.708,2.421,5.4a4.247,4.247,0,0,0,2.247.805,5.227,5.227,0,0,0,2.708-.195c1.4-2.272,4.375-6.073,5.437-8.078,1.026-1.929,2.221-4.17,1.7-6.416a3.688,3.688,0,0,0-1.677-2.38,4.893,4.893,0,0,0,.513-2.016,1.856,1.856,0,0,0-2.513-1.739,2.2,2.2,0,0,0-3.513-2.344,2.129,2.129,0,0,0-4.134-.959,2.918,2.918,0,0,0-5.129.436,4.18,4.18,0,0,0-2.867-.621,2.97,2.97,0,0,0-2.267,1.754,2.318,2.318,0,0,0,.718,2.682c-.918.051-1.631,1.272-1.636,2.2C223.065,141.864,223.537,144.234,226.758,143.367Z" transform="translate(-192.433 -133.224)"/><path class="ae" d="M165.662,194.2c.646,1.216,7.8,14.3,9.873,16.28,1.482,1.41,3.77,2.37,6.155.333,4.421-3.8,11.284-9.781,11.284-9.781,5.273-4.175,6-11.771,3.59-14.207-1.241.067-5.037.349-7.494,3.221-5.037,5.878-10.407,11.915-10.407,11.915-1.318-1.744-2.493-3.118-3.913-5.1-1.134-1.585-2.9-3.242-2.975-5.3a17.988,17.988,0,0,1,.513-3.206c.215-1.375.405-2.734.631-4.1a1.1,1.1,0,0,0-.072-.81.821.821,0,0,0-1.118-.036,2.929,2.929,0,0,0-.785,1.159c-.21.472-.426.939-.641,1.405-.1.221-.246.472-.487.477-.759,0-.882-1.6-1.077-2.1a8.325,8.325,0,0,1-.374-2.021c-.113-.821-.221-1.641-.328-2.457-.031-.236-.087-.513-.3-.621s-.574.092-.759.323a3.216,3.216,0,0,0-.615,1.277c-.251,1.087.062,2.318-.513,3.288a6.382,6.382,0,0,1-.831,1,11.334,11.334,0,0,0-.98,1.339,2.731,2.731,0,0,0-.595,2.375A24.851,24.851,0,0,0,165.662,194.2Z" transform="translate(-163.357 -155.629)"/><path class="y" d="M191.1,222.678a13.032,13.032,0,0,0-2.144,4.406,9.7,9.7,0,0,1,1.431-5.334Z" transform="translate(-175.825 -176.344)"/></g><g transform="translate(149.254 31.828)"><g transform="translate(6.45)"><path class="a" d="M299.154,104.872l-.99-.569a1.246,1.246,0,0,1-.564-.98V63.075a1.241,1.241,0,0,1,.564-.98l52.178-30.133a1.251,1.251,0,0,1,1.128,0l.99.569a1.246,1.246,0,0,1,.564.98V73.764a1.241,1.241,0,0,1-.564.975l-52.178,30.133A1.251,1.251,0,0,1,299.154,104.872Z" transform="translate(-297.6 -31.828)"/><path class="u" d="M299.154,104.872l-.99-.569a1.246,1.246,0,0,1-.564-.98V63.075a1.241,1.241,0,0,1,.564-.98l52.178-30.133a1.251,1.251,0,0,1,1.128,0l.99.569a1.246,1.246,0,0,1,.564.98V73.764a1.241,1.241,0,0,1-.564.975l-52.178,30.133A1.251,1.251,0,0,1,299.154,104.872Z" transform="translate(-297.6 -31.828)"/><path class="a" d="M302.294,64.531,354.472,34.4c.313-.18.564-.031.564.328V74.979a1.241,1.241,0,0,1-.564.975l-52.178,30.133c-.313.18-.564.036-.564-.323V65.51A1.246,1.246,0,0,1,302.294,64.531Z" transform="translate(-299.612 -33.042)"/><path class="k" d="M355.008,34.47c-4.283,2.631-8.6,5.2-12.92,7.75l-13.012,7.6L316,57.31,309.431,61l-6.6,3.626,6.442-3.9,6.468-3.862,13.018-7.6,13.084-7.468C346.211,39.322,350.617,36.865,355.008,34.47Z" transform="translate(-300.147 -33.115)"/><path class="a" d="M299.882,92.841l-2.118-1.221a1.164,1.164,0,0,0-.164.554v40.253a1.246,1.246,0,0,0,.564.98l.985.569a1.262,1.262,0,0,0,1.026.051c-.262.087-.451-.067-.451-.38V93.42A1.113,1.113,0,0,1,299.882,92.841Z" transform="translate(-297.6 -60.952)"/><path class="m" d="M299.882,92.841l-2.118-1.221a1.164,1.164,0,0,0-.164.554v40.253a1.246,1.246,0,0,0,.564.98l.985.569a1.262,1.262,0,0,0,1.026.051c-.262.087-.451-.067-.451-.38V93.42A1.113,1.113,0,0,1,299.882,92.841Z" transform="translate(-297.6 -60.952)"/><path class="h" d="M301.73,74.869,355.036,44.1V54.6L301.73,85.373Z" transform="translate(-299.612 -37.806)"/><g transform="translate(4.852 21.387)"><path class="a" d="M390.852,95.8v6.878a1.79,1.79,0,0,1-.81,1.4l-7.222,4.226c-.446.256-.81.046-.81-.467v-6.883a1.764,1.764,0,0,1,.805-1.4c1.97-1.139,5.252-3.077,7.222-4.226C390.488,95.079,390.852,95.284,390.852,95.8Z" transform="translate(-343.568 -84.095)"/><g class="ag" transform="translate(38.442 11.13)"><path class="o" d="M390.852,95.8v6.878a1.79,1.79,0,0,1-.81,1.4l-7.222,4.226c-.446.256-.81.046-.81-.467v-6.883a1.764,1.764,0,0,1,.805-1.4c1.97-1.139,5.252-3.077,7.222-4.226C390.488,95.079,390.852,95.284,390.852,95.8Z" transform="translate(-382.01 -95.225)"/><path class="e" d="M390.749,97.948l.185-.528-11.869,6.909-.185.528Z" transform="translate(-380.485 -96.294)"/><path class="e" d="M392.98,106.569l.369-.421V102.64l-.364.426Z" transform="translate(-387.353 -98.837)"/><path class="e" d="M387.56,109.829l.369-.421v-3.5l-.369.421Z" transform="translate(-384.713 -100.43)"/><path class="e" d="M390.749,104.8l.185-.528-11.869,6.909-.185.528Z" transform="translate(-380.485 -99.631)"/></g><path class="a" d="M307.885,108.087q-.446-.308-.446-1.369a3.909,3.909,0,0,1,.436-1.882,3.216,3.216,0,0,1,1.236-1.277,2.565,2.565,0,0,1,.616-.267.908.908,0,0,1,.467,0,.067.067,0,0,1,.046.072.353.353,0,0,1-.031.123l-.159.467a.216.216,0,0,1-.067.108.123.123,0,0,1-.077,0,1.072,1.072,0,0,0-.7.18,1.852,1.852,0,0,0-.739.8,2.734,2.734,0,0,0-.267,1.241c0,.513.092.8.277.933s.436.113.754-.067a2.534,2.534,0,0,0,.733-.646.236.236,0,0,1,.077-.082.094.094,0,0,1,.067.031l.18.308a.158.158,0,0,1,0,.067.319.319,0,0,1-.051.123,3.247,3.247,0,0,1-1.118.99C308.593,108.256,308.178,108.3,307.885,108.087Z" transform="translate(-307.244 -88.009)"/><path class="a" d="M313.8,105.4c-.031,0-.046-.082-.046-.174v-3.662a.544.544,0,0,1,.046-.231.4.4,0,0,1,.159-.159l1.175-.677q1.18-.677,1.174.692a2.446,2.446,0,0,1-.138.826,2.256,2.256,0,0,1-.41.7l.487,1.139a.4.4,0,0,1,0,.077.18.18,0,0,1-.1.169l-.513.3a.205.205,0,0,1-.1.036s-.041,0-.056-.067l-.426-1.113-.549.318v1.21a.512.512,0,0,1-.046.231.41.41,0,0,1-.164.159l-.349.2C313.878,105.416,313.827,105.426,313.8,105.4Zm1.221-2.852a.98.98,0,0,0,.513-.923c0-.21-.041-.344-.118-.4s-.205-.031-.364.062l-.549.318v1.236Z" transform="translate(-310.319 -86.554)"/><path class="a" d="M319.521,101.876c-.036,0-.051-.087-.051-.174V98.024a.451.451,0,0,1,.051-.231.374.374,0,0,1,.159-.164l1.923-1.108q.108-.062.154-.031a.267.267,0,0,1,.041.18V96.9a.579.579,0,0,1-.041.231.431.431,0,0,1-.154.149l-1.349.79v.975l.954-.554c.077-.041.128-.051.154,0a.312.312,0,0,1,.041.174v.215a.513.513,0,0,1-.041.231.333.333,0,0,1-.154.149l-.954.523v.985l1.364-.785c.072-.046.123-.051.154-.031a.277.277,0,0,1,.041.18v.21a.554.554,0,0,1-.041.226.421.421,0,0,1-.154.144l-1.918,1.108A.3.3,0,0,1,319.521,101.876Z" transform="translate(-313.104 -84.706)"/><path class="a" d="M324.7,99.166a.221.221,0,0,1-.046-.169V95.314a.544.544,0,0,1,.046-.231.4.4,0,0,1,.159-.159l.974-.559c.513-.308.928-.369,1.205-.19s.41.631.41,1.354a3.724,3.724,0,0,1-.415,1.826,3.078,3.078,0,0,1-1.2,1.205l-.974.564A.3.3,0,0,1,324.7,99.166Zm1.169-1.354a1.477,1.477,0,0,0,.615-.662,2.719,2.719,0,0,0,.205-1.169c0-.513-.067-.8-.205-.923s-.339-.108-.615.051l-.451.262v2.7Z" transform="translate(-315.631 -83.535)"/><path class="a" d="M330.951,96.154c-.036-.026-.051-.087-.051-.174V92.317a.451.451,0,0,1,.051-.231.375.375,0,0,1,.159-.164l.349-.2c.077-.041.128-.051.159-.026s.046.082.046.18v3.662a.513.513,0,0,1-.046.226.4.4,0,0,1-.159.159l-.349.2C331.007,96.169,330.951,96.174,330.951,96.154Z" transform="translate(-318.672 -82.37)"/><path class="a" d="M333.905,93.368c-.036,0-.051-.082-.051-.174v-3.18l-.759.436q-.108.072-.154.031c-.026,0-.041-.082-.041-.174v-.231a.553.553,0,0,1,.041-.226.39.39,0,0,1,.154-.149l2.288-1.323c.077-.041.128-.051.159,0a.274.274,0,0,1,.041.174v.231a.513.513,0,0,1-.041.221.354.354,0,0,1-.159.154l-.759.436v3.185a.513.513,0,0,1-.046.226.41.41,0,0,1-.164.159l-.344.2C333.977,93.383,333.936,93.393,333.905,93.368Z" transform="translate(-319.646 -80.742)"/><path class="a" d="M342.2,88.26c-.292-.205-.441-.667-.441-1.375a3.872,3.872,0,0,1,.436-1.877,3.118,3.118,0,0,1,1.226-1.293,2.349,2.349,0,0,1,.616-.267.857.857,0,0,1,.467,0,.067.067,0,0,1,.046.072.307.307,0,0,1-.031.118l-.159.472a.3.3,0,0,1-.067.108.123.123,0,0,1-.077,0,1.082,1.082,0,0,0-.7.185,1.821,1.821,0,0,0-.739.795,2.657,2.657,0,0,0-.267,1.241c0,.513.092.795.277.933s.436.113.754-.072a2.365,2.365,0,0,0,.728-.641.467.467,0,0,1,.082-.087.08.08,0,0,1,.062.031l.185.313a.139.139,0,0,1,0,.062.241.241,0,0,1-.056.123,3.139,3.139,0,0,1-1.113,1C342.908,88.414,342.5,88.465,342.2,88.26Z" transform="translate(-323.961 -78.343)"/><path class="a" d="M347.667,85.8a.512.512,0,0,1,0-.108l1.2-4.5a.86.86,0,0,1,.072-.185.4.4,0,0,1,.118-.108l.339-.195c.046,0,.082-.036.108,0a.443.443,0,0,1,.072.1l1.216,3.118a.565.565,0,0,1,0,.092.169.169,0,0,1-.082.154l-.559.323a.143.143,0,0,1-.1.026.2.2,0,0,1-.051-.072l-.215-.605-1.123.651-.21.846a.426.426,0,0,1-.051.133.266.266,0,0,1-.1.082l-.559.323C347.693,85.9,347.667,85.875,347.667,85.8Zm1.949-2.565-.385-1.108-.39,1.539Z" transform="translate(-326.838 -77.015)"/><path class="a" d="M354.571,81.859c-.036,0-.051-.082-.051-.174V78.022a.451.451,0,0,1,.051-.231.339.339,0,0,1,.159-.159l1.169-.677q1.18-.682,1.18.692a2.4,2.4,0,0,1-.138.821,2.2,2.2,0,0,1-.415.708l.487,1.139a.19.19,0,0,1,0,.077.18.18,0,0,1-.1.169l-.513.3a.154.154,0,0,1-.1.031s-.041,0-.056-.062l-.426-1.113-.554.318v1.21a.513.513,0,0,1-.046.231.385.385,0,0,1-.159.154l-.349.205C354.653,81.874,354.6,81.884,354.571,81.859Zm1.221-2.852a1.072,1.072,0,0,0,.395-.374,1.087,1.087,0,0,0,.133-.549q0-.323-.123-.4c-.077-.051-.2-.031-.359.062l-.554.318V79.3Z" transform="translate(-330.177 -75.086)"/><path class="a" d="M360.3,78.6c-.031,0-.046-.082-.046-.169V74.764a.544.544,0,0,1,.046-.231.411.411,0,0,1,.164-.159l.969-.559c.513-.308.928-.369,1.205-.19s.41.631.41,1.354a3.723,3.723,0,0,1-.415,1.826,3.077,3.077,0,0,1-1.2,1.205l-.969.564C360.383,78.616,360.332,78.626,360.3,78.6Zm1.169-1.354a1.539,1.539,0,0,0,.621-.662,2.78,2.78,0,0,0,.2-1.164c0-.513-.067-.805-.2-.928s-.344-.108-.621.051l-.451.262v2.7Z" transform="translate(-332.968 -73.525)"/><g class="n" transform="translate(0.194)"><path class="a" d="M307.885,108.087q-.446-.308-.446-1.369a3.909,3.909,0,0,1,.436-1.882,3.216,3.216,0,0,1,1.236-1.277,2.565,2.565,0,0,1,.616-.267.908.908,0,0,1,.467,0,.067.067,0,0,1,.046.072.353.353,0,0,1-.031.123l-.159.467a.216.216,0,0,1-.067.108.123.123,0,0,1-.077,0,1.072,1.072,0,0,0-.7.18,1.852,1.852,0,0,0-.739.8,2.734,2.734,0,0,0-.267,1.241c0,.513.092.8.277.933s.436.113.754-.067a2.534,2.534,0,0,0,.733-.646.236.236,0,0,1,.077-.082.094.094,0,0,1,.067.031l.18.308a.158.158,0,0,1,0,.067.319.319,0,0,1-.051.123,3.247,3.247,0,0,1-1.118.99C308.593,108.256,308.178,108.3,307.885,108.087Z" transform="translate(-307.438 -88.009)"/><path class="a" d="M313.8,105.4c-.031,0-.046-.082-.046-.174v-3.662a.544.544,0,0,1,.046-.231.4.4,0,0,1,.159-.159l1.175-.677q1.18-.677,1.174.692a2.446,2.446,0,0,1-.138.826,2.256,2.256,0,0,1-.41.7l.487,1.139a.4.4,0,0,1,0,.077.18.18,0,0,1-.1.169l-.513.3a.205.205,0,0,1-.1.036s-.041,0-.056-.067l-.426-1.113-.549.318v1.21a.512.512,0,0,1-.046.231.41.41,0,0,1-.164.159l-.349.2C313.878,105.416,313.827,105.426,313.8,105.4Zm1.221-2.852a.98.98,0,0,0,.513-.923c0-.21-.041-.344-.118-.4s-.205-.031-.364.062l-.549.318v1.236Z" transform="translate(-310.512 -86.554)"/><path class="a" d="M319.521,101.876c-.036,0-.051-.087-.051-.174V98.024a.451.451,0,0,1,.051-.231.374.374,0,0,1,.159-.164l1.923-1.108q.108-.062.154-.031a.267.267,0,0,1,.041.18V96.9a.579.579,0,0,1-.041.231.431.431,0,0,1-.154.149l-1.349.79v.975l.954-.554c.077-.041.128-.051.154,0a.312.312,0,0,1,.041.174v.215a.513.513,0,0,1-.041.231.333.333,0,0,1-.154.149l-.954.523v.985l1.364-.785c.072-.046.123-.051.154-.031a.277.277,0,0,1,.041.18v.21a.554.554,0,0,1-.041.226.421.421,0,0,1-.154.144l-1.918,1.108A.3.3,0,0,1,319.521,101.876Z" transform="translate(-313.298 -84.706)"/><path class="a" d="M324.7,99.166a.221.221,0,0,1-.046-.169V95.314a.544.544,0,0,1,.046-.231.4.4,0,0,1,.159-.159l.974-.559c.513-.308.928-.369,1.205-.19s.41.631.41,1.354a3.724,3.724,0,0,1-.415,1.826,3.078,3.078,0,0,1-1.2,1.205l-.974.564A.3.3,0,0,1,324.7,99.166Zm1.169-1.354a1.477,1.477,0,0,0,.615-.662,2.719,2.719,0,0,0,.205-1.169c0-.513-.067-.8-.205-.923s-.339-.108-.615.051l-.451.262v2.7Z" transform="translate(-315.825 -83.535)"/><path class="a" d="M330.951,96.154c-.036-.026-.051-.087-.051-.174V92.317a.451.451,0,0,1,.051-.231.375.375,0,0,1,.159-.164l.349-.2c.077-.041.128-.051.159-.026s.046.082.046.18v3.662a.513.513,0,0,1-.046.226.4.4,0,0,1-.159.159l-.349.2C331.007,96.169,330.951,96.174,330.951,96.154Z" transform="translate(-318.866 -82.37)"/><path class="a" d="M333.905,93.368c-.036,0-.051-.082-.051-.174v-3.18l-.759.436q-.108.072-.154.031c-.026,0-.041-.082-.041-.174v-.231a.553.553,0,0,1,.041-.226.39.39,0,0,1,.154-.149l2.288-1.323c.077-.041.128-.051.159,0a.274.274,0,0,1,.041.174v.231a.513.513,0,0,1-.041.221.354.354,0,0,1-.159.154l-.759.436v3.185a.513.513,0,0,1-.046.226.41.41,0,0,1-.164.159l-.344.2C333.977,93.383,333.936,93.393,333.905,93.368Z" transform="translate(-319.84 -80.742)"/><path class="a" d="M342.2,88.26c-.292-.205-.441-.667-.441-1.375a3.872,3.872,0,0,1,.436-1.877,3.118,3.118,0,0,1,1.226-1.293,2.349,2.349,0,0,1,.616-.267.857.857,0,0,1,.467,0,.067.067,0,0,1,.046.072.307.307,0,0,1-.031.118l-.159.472a.3.3,0,0,1-.067.108.123.123,0,0,1-.077,0,1.082,1.082,0,0,0-.7.185,1.821,1.821,0,0,0-.739.795,2.657,2.657,0,0,0-.267,1.241c0,.513.092.795.277.933s.436.113.754-.072a2.365,2.365,0,0,0,.728-.641.467.467,0,0,1,.082-.087.08.08,0,0,1,.062.031l.185.313a.139.139,0,0,1,0,.062.241.241,0,0,1-.056.123,3.139,3.139,0,0,1-1.113,1C342.908,88.414,342.5,88.465,342.2,88.26Z" transform="translate(-324.155 -78.343)"/><path class="a" d="M347.667,85.8a.512.512,0,0,1,0-.108l1.2-4.5a.86.86,0,0,1,.072-.185.4.4,0,0,1,.118-.108l.339-.195c.046,0,.082-.036.108,0a.443.443,0,0,1,.072.1l1.216,3.118a.565.565,0,0,1,0,.092.169.169,0,0,1-.082.154l-.559.323a.143.143,0,0,1-.1.026.2.2,0,0,1-.051-.072l-.215-.605-1.123.651-.21.846a.426.426,0,0,1-.051.133.266.266,0,0,1-.1.082l-.559.323C347.693,85.9,347.667,85.875,347.667,85.8Zm1.949-2.565-.385-1.108-.39,1.539Z" transform="translate(-327.032 -77.015)"/><path class="a" d="M354.571,81.859c-.036,0-.051-.082-.051-.174V78.022a.451.451,0,0,1,.051-.231.339.339,0,0,1,.159-.159l1.169-.677q1.18-.682,1.18.692a2.4,2.4,0,0,1-.138.821,2.2,2.2,0,0,1-.415.708l.487,1.139a.19.19,0,0,1,0,.077.18.18,0,0,1-.1.169l-.513.3a.154.154,0,0,1-.1.031s-.041,0-.056-.062l-.426-1.113-.554.318v1.21a.513.513,0,0,1-.046.231.385.385,0,0,1-.159.154l-.349.205C354.653,81.874,354.6,81.884,354.571,81.859Zm1.221-2.852a1.072,1.072,0,0,0,.395-.374,1.087,1.087,0,0,0,.133-.549q0-.323-.123-.4c-.077-.051-.2-.031-.359.062l-.554.318V79.3Z" transform="translate(-330.371 -75.086)"/><path class="a" d="M360.3,78.6c-.031,0-.046-.082-.046-.169V74.764a.544.544,0,0,1,.046-.231.411.411,0,0,1,.164-.159l.969-.559c.513-.308.928-.369,1.205-.19s.41.631.41,1.354a3.723,3.723,0,0,1-.415,1.826,3.077,3.077,0,0,1-1.2,1.205l-.969.564C360.383,78.616,360.332,78.626,360.3,78.6Zm1.169-1.354a1.539,1.539,0,0,0,.621-.662,2.78,2.78,0,0,0,.2-1.164c0-.513-.067-.805-.2-.928s-.344-.108-.621.051l-.451.262v2.7Z" transform="translate(-333.162 -73.525)"/></g><path class="a" d="M316.4,139.057l2.052-1.19c.267-.154.482-.031.482.277v.631a1.077,1.077,0,0,1-.482.841l-2.052,1.19c-.267.154-.487.026-.487-.282v-.631A1.072,1.072,0,0,1,316.4,139.057Z" transform="translate(-311.371 -104.833)"/><path class="a" d="M307.542,144.167l2.052-1.19c.267-.154.482-.031.482.282v.631a1.067,1.067,0,0,1-.482.836l-2.052,1.19c-.267.154-.482.031-.482-.277v-.631a1.067,1.067,0,0,1,.482-.841Z" transform="translate(-307.06 -107.323)"/><path class="a" d="M333.6,124.5,307.955,139.3a1.785,1.785,0,0,0-.805,1.4v.759c0,.513.359.723.805.467L333.6,127.122a1.81,1.81,0,0,0,.805-1.4v-.759C334.406,124.45,334.042,124.24,333.6,124.5Z" transform="translate(-307.104 -98.3)"/><path class="h" d="M316.4,139.057l2.052-1.19c.267-.154.482-.031.482.277v.631a1.077,1.077,0,0,1-.482.841l-2.052,1.19c-.267.154-.487.026-.487-.282v-.631A1.072,1.072,0,0,1,316.4,139.057Z" transform="translate(-311.371 -104.833)"/><path class="h" d="M307.542,144.167l2.052-1.19c.267-.154.482-.031.482.282v.631a1.067,1.067,0,0,1-.482.836l-2.052,1.19c-.267.154-.482.031-.482-.277v-.631a1.067,1.067,0,0,1,.482-.841Z" transform="translate(-307.06 -107.323)"/><path class="h" d="M333.6,124.5,307.955,139.3a1.785,1.785,0,0,0-.805,1.4v.759c0,.513.359.723.805.467L333.6,127.122a1.81,1.81,0,0,0,.805-1.4v-.759C334.406,124.45,334.042,124.24,333.6,124.5Z" transform="translate(-307.104 -98.3)"/><path class="k" d="M307.607,131.234l.1-.056c.287-.169.513,0,.513.395v2.046a1.318,1.318,0,0,1-.513,1.026l-.082.051c-.292.18-.513,0-.513-.374V132.27A1.241,1.241,0,0,1,307.607,131.234Z" transform="translate(-307.084 -101.576)"/><path class="k" d="M312.887,128.2l.1-.056c.287-.169.513,0,.513.395v2.021a1.3,1.3,0,0,1-.513,1.026l-.082.051c-.292.18-.513,0-.513-.374v-2.052A1.257,1.257,0,0,1,312.887,128.2Z" transform="translate(-309.656 -100.1)"/><path class="k" d="M318.172,125.174l.1-.056c.287-.169.513,0,.513.395v2.021a1.3,1.3,0,0,1-.513,1.026l-.077.051c-.3.18-.513,0-.513-.374v-2.052A1.257,1.257,0,0,1,318.172,125.174Z" transform="translate(-312.233 -98.624)"/><path class="k" d="M323.447,122.144l.1-.056c.287-.169.513,0,.513.395V124.5a1.313,1.313,0,0,1-.513,1.026l-.082.051c-.3.18-.513,0-.513-.374v-2.052a1.257,1.257,0,0,1,.5-1.01Z" transform="translate(-314.8 -97.148)"/><path class="k" d="M332.322,116.981l.113-.041c.287-.164.513,0,.513.4v2.021a1.318,1.318,0,0,1-.513,1.026l-.082.046c-.3.185-.513,0-.513-.374v-2.052a1.267,1.267,0,0,1,.482-1.026Z" transform="translate(-319.13 -94.642)"/><path class="k" d="M337.587,113.937l.1-.056c.292-.164.513,0,.513.4V116.3a1.318,1.318,0,0,1-.513,1.026l-.082.046c-.292.185-.513,0-.513-.374v-2.052A1.267,1.267,0,0,1,337.587,113.937Z" transform="translate(-321.687 -93.151)"/><path class="k" d="M342.873,110.887l.092-.056c.292-.164.513,0,.513.4v2.021a1.324,1.324,0,0,1-.513,1.026l-.082.046c-.292.185-.513,0-.513-.374V111.9a1.257,1.257,0,0,1,.5-1.01Z" transform="translate(-324.259 -91.665)"/><path class="k" d="M348.153,107.887l.092-.056c.292-.164.513,0,.513.4v2.021a1.323,1.323,0,0,1-.513,1.026l-.082.046c-.292.185-.513,0-.513-.374V108.9A1.257,1.257,0,0,1,348.153,107.887Z" transform="translate(-326.831 -90.204)"/><path class="k" d="M357.013,102.7l.092-.051c.292-.169.513,0,.513.395v2.021a1.323,1.323,0,0,1-.513,1.026l-.082.051c-.292.18-.513,0-.513-.374v-2.052A1.262,1.262,0,0,1,357.013,102.7Z" transform="translate(-331.147 -87.679)"/><path class="k" d="M362.293,99.669l.092-.051c.292-.169.513,0,.513.395v2.021a1.323,1.323,0,0,1-.513,1.026l-.082.051c-.292.18-.513,0-.513-.374v-2.052a1.262,1.262,0,0,1,.5-1.016Z" transform="translate(-333.719 -86.203)"/><path class="k" d="M367.577,96.639l.1-.051c.287-.169.513,0,.513.395V99a1.308,1.308,0,0,1-.513,1.026l-.082.051c-.292.18-.513,0-.513-.374V97.655A1.257,1.257,0,0,1,367.577,96.639Z" transform="translate(-336.295 -84.727)"/><path class="k" d="M372.862,93.609l.1-.051c.287-.169.513,0,.513.395v2.021A1.308,1.308,0,0,1,372.96,97l-.077.051c-.3.18-.513,0-.513-.374V94.625A1.272,1.272,0,0,1,372.862,93.609Z" transform="translate(-338.872 -83.251)"/><path class="k" d="M381.722,88.434l.1-.056c.287-.169.513,0,.513.4v2.016a1.3,1.3,0,0,1-.513,1.026l-.077.051c-.3.18-.513,0-.513-.374V89.445a1.257,1.257,0,0,1,.492-1.01Z" transform="translate(-343.188 -80.728)"/><path class="k" d="M387,85.4l.1-.056c.287-.169.513,0,.513.4v2.016a1.329,1.329,0,0,1-.513,1.026l-.082.046c-.3.18-.513,0-.513-.374V86.41A1.257,1.257,0,0,1,387,85.4Z" transform="translate(-345.755 -79.252)"/><path class="k" d="M392.277,82.374l.1-.056c.292-.169.513,0,.513.4v2.016a1.313,1.313,0,0,1-.513,1.026l-.082.051c-.292.18-.513,0-.513-.374V83.385A1.257,1.257,0,0,1,392.277,82.374Z" transform="translate(-348.327 -77.776)"/><path class="k" d="M397.523,79.344l.092-.056c.292-.169.513,0,.513.4V81.7a1.318,1.318,0,0,1-.513,1.026l-.082.051c-.292.18-.513,0-.513-.374V80.355A1.246,1.246,0,0,1,397.523,79.344Z" transform="translate(-350.879 -76.3)"/></g><path class="g" d="M299.718,102.931,297.6,101.71v10.52l2.118,1.205Z" transform="translate(-297.6 -65.867)"/></g><path class="a" d="M293.632,131.726h0l-2.113-1.236-6.155,5.934a.867.867,0,0,0,.174,1.385c.026,0,1.713,1,2.052,1.18a1.3,1.3,0,0,0,.677.144l5.4-1.026a44.676,44.676,0,0,0,0-6.365Z" transform="translate(-285.059 -79.886)"/><path class="u" d="M287.52,138.979c-.318-.18-2.005-1.169-2.052-1.18a.867.867,0,0,1-.174-1.385l6.155-5.934,2.118,1.241-6.155,5.924a.872.872,0,0,0,.108,1.334Z" transform="translate(-285.024 -79.881)"/></g></g></svg>