<svg xmlns="http://www.w3.org/2000/svg" width="250" height="242.258" viewBox="0 0 250 242.258"><defs><style>.a{fill:#f3f3f3;}.b{fill:#ebebeb;}.c{fill:#e0e0e0;}.d{fill:#f0f0f0;}.e{fill:#263238;}.f{fill:#37474f;}.g{fill:#455a64;}.h{fill:#f5f5f5;}.i,.x{fill:#c9ddff;}.ab,.j,.m,.u,.w,.y,.z{fill:#fff;}.j{opacity:0.7;}.k{opacity:0.2;}.ab,.l{opacity:0.6;}.n,.w{opacity:0.5;}.o,.v,.z{opacity:0.1;}.p{opacity:0.8;}.q{fill:#f6f9ff;}.aa,.r,.x{opacity:0.3;}.s{opacity:0.45;}.ac,.t{opacity:0.15;}.u{opacity:0.25;}.af,.y{opacity:0.4;}.ad{fill:#ffa8a7;}.ae{fill:#f28f8f;}.ag{fill:#b16668;}</style></defs><g transform="translate(-7.5 -16.2)"><g transform="translate(7.5 112.066)"><ellipse class="a" cx="125" cy="73.196" rx="125" ry="73.196"/></g><g transform="translate(18.956 125.395)"><path class="b" d="M91.722,228.6,30.691,263.843c-1.289.747-1.289,1.954,0,2.7l141.6,81.851a7.423,7.423,0,0,0,4.938.66c26.876-7.361,47.876-19.9,61.34-35.2a2.155,2.155,0,0,0-.588-3.4L96.408,228.6A5.155,5.155,0,0,0,91.722,228.6Z" transform="translate(-29.725 -228.037)"/><ellipse class="b" cx="18.108" cy="10.454" rx="18.108" ry="10.454" transform="translate(25.204 66.048)"/><path class="b" d="M392.186,272.274c-6.7,3.866-6.7,10.134,0,14s17.526,3.866,24.227,0,6.7-10.134,0-14S398.876,268.409,392.186,272.274Z" transform="translate(-202.915 -248.067)"/></g><g transform="translate(189.665 65.757)"><g transform="translate(0 0)"><path class="c" d="M420.925,208.062l-1.35-.686-6.448,14.387V204.49h-2.51v13.918l-6.572-12.345-1.284.8,7.856,14.433v26.2a.619.619,0,0,0,.371.515,1.954,1.954,0,0,0,1.789,0,.624.624,0,0,0,.366-.515V225.114Z" transform="translate(-381.183 -156.99)"/><circle class="d" cx="19.397" cy="19.397" r="19.397" transform="translate(20.85 48.639) rotate(-76.72)"/><path class="c" d="M434.484,155.537c2.5-7.881,5.155-10.964,3.474-11.923a19.4,19.4,0,1,0,5.412,29.227C437.623,174.522,431.242,165.754,434.484,155.537Z" transform="translate(-384.211 -126.274)"/><path class="d" d="M388.168,176.564a13.634,13.634,0,1,1-13.634-13.634A13.634,13.634,0,0,1,388.168,176.564Z" transform="translate(-360.9 -136.853)"/><path class="c" d="M376.273,162.93a13.593,13.593,0,0,0-7.969,2.577c-.371,8.33,6.7,16.454,4.727,19.18s-6.845,1.057-8.541-1.263a13.634,13.634,0,1,0,11.784-20.49Z" transform="translate(-362.639 -136.853)"/><path class="d" d="M421.971,137.35a25.015,25.015,0,1,1-25.014-25.01,25.017,25.017,0,0,1,25.014,25.01Z" transform="translate(-366.249 -112.34)"/><path class="b" d="M421.262,149.243a25.01,25.01,0,1,1-42.649-22.763c1.737-1.866,1.845-1.943.134-.139a25.428,25.428,0,0,0-.66,5.711,25.005,25.005,0,0,0,43.175,17.191Z" transform="translate(-366.232 -118.49)"/></g></g><g transform="translate(22.876 26.292)"><g transform="translate(0 0)"><path class="d" d="M60.742,37.954l-3.995,2.3a4.582,4.582,0,0,0,.036-.515v-1.17c0-2.062-1.448-2.887-3.227-1.861a6.232,6.232,0,0,0-1.923,1.851c-.294-2.577-2.325-3.552-4.789-2.129a10.683,10.683,0,0,0-4.825,8.361v1.727a4.536,4.536,0,0,0,.407,2.005l-3.309,1.912a3.954,3.954,0,0,0-1.789,3.093c0,1.139.8,1.6,1.789,1.031L60.742,42.078a3.959,3.959,0,0,0,1.794-3.093C62.536,37.846,61.732,37.387,60.742,37.954Z" transform="translate(-37.33 -35.778)"/><path class="d" d="M113.395,54.724l-3.01,1.737a3.5,3.5,0,0,0,.026-.4v-.871c0-1.546-1.093-2.186-2.438-1.407a4.768,4.768,0,0,0-1.448,1.4c-.222-1.954-1.753-2.68-3.608-1.608a8.067,8.067,0,0,0-3.644,6.309v1.3a3.474,3.474,0,0,0,.309,1.515l-2.5,1.443a2.99,2.99,0,0,0-1.351,2.34c0,.861.6,1.211,1.351.778l16.314-9.423a2.979,2.979,0,0,0,1.351-2.34C114.73,54.641,114.127,54.291,113.395,54.724Z" transform="translate(-65.627 -44.161)"/></g></g><g transform="translate(32.84 46.654)"><g transform="translate(0 57.144)"><path class="e" d="M88.112,284.127a11.412,11.412,0,0,1-.892,4.711h0a5.84,5.84,0,0,1-2.294,2.675l-.077.046h0l-5.742,3.309h0l-2.33-4.639-.16-.309a18.914,18.914,0,0,1-3.479-3.541,11.341,11.341,0,0,1-.732-1.005,25.525,25.525,0,0,1-3.309-6.763,20.583,20.583,0,0,1-1-5.624l-.041-.077-.588-1.165-1.253-2.4-.515-1.031,5.119-2.964h0l.345-.2.144-.083a5.154,5.154,0,0,1,2.577-.67,8.469,8.469,0,0,1,4.18,1.268C83.623,268.9,88.112,277.152,88.112,284.127Z" transform="translate(-61.04 -224.06)"/><path class="f" d="M59,279.112a24.04,24.04,0,0,0,7.809,16.83h0a14.732,14.732,0,0,0,2.2,1.572c5.541,3.206,10.036.139,10.031-6.84a24.381,24.381,0,0,0-6.186-15.268l-.031-.031a16.14,16.14,0,0,0-3.794-3.124C63.464,269.076,59,272.138,59,279.112Z" transform="translate(-57.794 -227.257)"/><path class="g" d="M72.4,280.912c-3.521-2.036-6.381.082-6.381,4.737s2.861,10.072,6.381,12.108,6.387-.088,6.387-4.737S75.927,282.948,72.4,280.912Z" transform="translate(-61.195 -231.686)"/><path class="g" d="M59,279.12a24.04,24.04,0,0,0,7.809,16.83,28.407,28.407,0,0,1-6.361-12.309c-.851-4.021-.515-9.794,2.923-11.253S71.381,274,72.82,275.4a16.139,16.139,0,0,0-3.794-3.124C63.464,269.084,59,272.146,59,279.12Z" transform="translate(-57.794 -227.264)"/><path class="c" d="M75.289,289.122c-1.83-1.057-3.309.041-3.309,2.459a7.874,7.874,0,0,0,3.309,6.284c1.83,1.057,3.314-.046,3.314-2.459A7.817,7.817,0,0,0,75.289,289.122Z" transform="translate(-64.083 -235.844)"/><path class="h" d="M74.213,289.134a2.721,2.721,0,0,0-.727-.294c-.918.247-1.546,1.253-1.546,2.8a8.345,8.345,0,0,0,1.881,5.015,3.772,3.772,0,0,0,.392.268c1.629.938,2.943-.036,2.943-2.186A7.034,7.034,0,0,0,74.213,289.134Z" transform="translate(-64.064 -235.902)"/><path class="g" d="M64.83,259.26v2.433l71.6,41.34V300.6Z" transform="translate(-60.619 -221.569)"/><path class="i" d="M104.022,286.613l-3.912-2.263v13.294c0,.716.515,1.005,1.119.644l3.093-1.778-.294-.175Z" transform="translate(-77.713 -233.726)"/><path class="j" d="M104.022,286.613l-3.912-2.263v13.294c0,.716.515,1.005,1.119.644l3.093-1.778-.294-.175Z" transform="translate(-77.713 -233.726)"/><path class="f" d="M107.7,288.74v7.294l17.912,10.34V299.08Z" transform="translate(-81.391 -235.853)"/><path class="e" d="M124.634,313.23l-17.912-10.34-1.041.619,18.954,10.928Z" transform="translate(-80.412 -242.71)"/><path class="g" d="M105.69,305.311V304.1l18.948,10.923v1.227Z" transform="translate(-80.417 -243.296)"/><path class="f" d="M142.45,304.08v14.593l14.742,8.51V312.59Z" transform="translate(-98.228 -243.286)"/><path class="f" d="M171.05,320.59v14.593l14.742,8.51V329.105Z" transform="translate(-112.086 -251.286)"/><path class="e" d="M199.65,351.693l4.211-2.433V337.1l-2.1,1.216-2.108-1.211Z" transform="translate(-125.944 -259.286)"/><path class="e" d="M170.02,334.588V320l1.052.608V335.2Z" transform="translate(-111.587 -251)"/><path class="c" d="M184.32,335.4V332.97l1.052.608.005,2.433Z" transform="translate(-118.516 -257.284)"/><path class="c" d="M155.72,318.9V316.47l1.052.6.005,2.438Z" transform="translate(-104.658 -249.29)"/><path class="k" d="M139.4,302.87V312.6l-1.026.613v1.222l2.1,1.216v-12.16Z" transform="translate(-96.251 -242.7)"/><path class="i" d="M56.66,250l75.814,43.768.005-4.845L56.66,245.15Z" transform="translate(-56.66 -214.732)"/><g class="l" transform="translate(0 30.418)"><path class="m" d="M56.66,250l75.814,43.768.005-4.845L56.66,245.15Z" transform="translate(-56.66 -245.15)"/></g><path class="i" d="M203.74,333.747l2.1-1.216V327.67l-2.1,1.216Z" transform="translate(-127.926 -254.716)"/><g class="n" transform="translate(75.814 72.954)"><path class="m" d="M203.74,333.747l2.1-1.216V327.67l-2.1,1.216Z" transform="translate(-203.74 -327.67)"/></g><g class="o" transform="translate(75.814 72.954)"><path d="M203.74,333.747l2.1-1.216V327.67l-2.1,1.216Z" transform="translate(-203.74 -327.67)"/></g><path class="i" d="M109.309,186.14,56.66,216.558l75.814,43.753,52.649-30.4Z" transform="translate(-56.66 -186.14)"/><g class="p"><path class="m" d="M109.309,186.14,56.66,216.558l75.814,43.753,52.649-30.4Z" transform="translate(-56.66 -186.14)"/></g></g><g transform="translate(6.314)"><path class="g" d="M68.91,103.244,136.3,142.151l48.438-27.964L117.348,75.28Z" transform="translate(-68.91 -75.28)"/><path class="f" d="M136.3,229.231V168.437L68.91,129.53v60.794Z" transform="translate(-68.91 -101.566)"/><path class="e" d="M199.65,239.518l48.438-27.964V150.76L199.65,178.724Z" transform="translate(-132.258 -111.853)"/><path class="c" d="M160.737,281.124a2.928,2.928,0,0,1-1.247-2.366V275.15l2.536,1.49.165-.031v.242h0v3.237a1.211,1.211,0,0,1-.515,1.1.83.83,0,0,1-.4.1A1.149,1.149,0,0,1,160.737,281.124Zm.284-3.9-.186,1.268H159.9v.263a2.577,2.577,0,0,0,1.031,2.015.557.557,0,0,0,.546.057.82.82,0,0,0,.294-.742v-3Zm-.361-.351.747-.134-1.51-.892v2.237h.588Z" transform="translate(-112.799 -172.124)"/><path class="c" d="M161.921,289.134a.2.2,0,0,0,.2-.206v-2.716a.2.2,0,1,0-.4,0v2.716a.2.2,0,0,0,.2.206Z" transform="translate(-113.88 -177.386)"/><path class="c" d="M161.984,291.719a.2.2,0,0,0,.175-.1.2.2,0,0,0-.072-.278l-2.371-1.366a.191.191,0,0,0-.273.072.2.2,0,0,0,.072.278l2.366,1.366A.231.231,0,0,0,161.984,291.719Z" transform="translate(-112.762 -179.291)"/><path class="c" d="M177.3,296.67a.417.417,0,0,0,.222-.057.515.515,0,0,0,.242-.49v-.557a.206.206,0,0,0-.407,0v.557c0,.082,0,.129-.041.139a.175.175,0,0,1-.129-.036,1.2,1.2,0,0,1-.381-.923V291.7a.2.2,0,0,0-.2-.206.206.206,0,0,0-.206.206V295.3a1.546,1.546,0,0,0,.577,1.273.665.665,0,0,0,.325.093Z" transform="translate(-120.991 -180.042)"/><path class="c" d="M171.785,287.336v-.119a1.722,1.722,0,0,1,2.8-1.619,5.747,5.747,0,0,1,2.6,4.51v.351Zm1.031-1.546a1.515,1.515,0,0,0-.629,1.325l4.577,2.644a5.376,5.376,0,0,0-2.381-3.794,2.093,2.093,0,0,0-1.031-.314,1.109,1.109,0,0,0-.531.124Z" transform="translate(-118.744 -176.991)"/><path class="c" d="M193.806,303.505a.2.2,0,0,0,.2-.206v-6.923a.2.2,0,0,0-.2-.206.206.206,0,0,0-.206.206V303.3A.206.206,0,0,0,193.806,303.505Z" transform="translate(-129.327 -182.309)"/><path class="c" d="M193.86,297.8a.211.211,0,0,0,.082,0,.2.2,0,0,0,.1-.268l-.722-1.675-.809.938a.2.2,0,1,0,.309.263l.381-.443.469,1.077A.2.2,0,0,0,193.86,297.8Z" transform="translate(-128.777 -182.159)"/><path class="c" d="M190.174,301.395a.206.206,0,0,0,.2-.206v-6.923a.206.206,0,1,0-.407,0v6.923a.206.206,0,0,0,.206.206Z" transform="translate(-127.566 -181.271)"/><path class="c" d="M190.222,295.723a.233.233,0,0,0,.082,0,.2.2,0,0,0,.1-.268l-.722-1.675-.809.933a.206.206,0,0,0,.309.268l.381-.443.469,1.077A.2.2,0,0,0,190.222,295.723Z" transform="translate(-127.021 -181.151)"/><path class="q" d="M93.443,228.6v11.149c0,.428-.3.6-.675.387l-17.4-10.052a1.474,1.474,0,0,1-.675-1.165V217.767c0-.433.3-.6.675-.392l17.407,10.072A1.49,1.49,0,0,1,93.443,228.6Z" transform="translate(-71.711 -144.086)"/><path class="g" d="M76.78,220.56l.562.325v10.134l-.562-.325Z" transform="translate(-72.723 -145.673)"/><path class="g" d="M81.22,223.12l.969.572v10.134l-.969-.567Z" transform="translate(-74.875 -146.914)"/><path class="g" d="M85.66,225.68l.562.325v10.139l-.562-.325Z" transform="translate(-77.026 -148.154)"/><path class="g" d="M89.01,227.58l1.124.67v10.134l-1.124-.665Z" transform="translate(-78.649 -149.075)"/><path class="g" d="M94.54,230.81l.562.325v10.134l-.562-.325Z" transform="translate(-81.329 -150.64)"/><path class="g" d="M97.73,232.61l1.206.717v10.134l-1.206-.711Z" transform="translate(-82.874 -151.512)"/><path class="g" d="M103.42,235.93l.562.325-.005,10.139-.557-.33Z" transform="translate(-85.631 -153.121)"/><path class="g" d="M105.95,237.37l.278.165v10.134l-.278-.16Z" transform="translate(-86.857 -153.818)"/><path class="g" d="M101.39,234.86l.284.16v10.139l-.284-.165Z" transform="translate(-84.648 -152.602)"/><path class="g" d="M92.45,229.62l.284.165v10.134l-.284-.16Z" transform="translate(-80.316 -150.063)"/><path class="g" d="M87.55,226.81l.284.165v10.134l-.284-.16Z" transform="translate(-77.942 -148.702)"/><path class="g" d="M84.035,224.87l.278.165v10.134L84.03,235Z" transform="translate(-76.236 -147.762)"/><path class="g" d="M79.27,221.97l.278.165v10.134l-.278-.16Z" transform="translate(-73.93 -146.357)"/><path class="g" d="M107.855,238.49l.557.325v10.139l-.562-.325Z" transform="translate(-87.778 -154.361)"/><g transform="translate(19.986 6.514)"><path class="i" d="M134.533,228.21V167.416l-8.423-4.866v60.794Z" transform="translate(-116.611 -124.08)"/><g class="r" transform="translate(9.499 38.47)"><path d="M134.533,228.21V167.416l-8.423-4.866v60.794Z" transform="translate(-126.11 -162.55)"/></g><path class="i" d="M238.48,238.82V178.026l8.423-4.866v60.794Z" transform="translate(-171.059 -129.221)"/><g class="s" transform="translate(67.421 43.939)"><path d="M238.48,238.82V178.026l8.423-4.866v60.794Z" transform="translate(-238.48 -173.16)"/></g><path class="i" d="M126.11,136.264,174.548,108.3l8.423,4.861L134.533,141.13Z" transform="translate(-116.611 -97.794)"/><g class="t" transform="translate(9.499 10.506)"><path d="M126.11,136.264,174.548,108.3l8.423,4.861L134.533,141.13Z" transform="translate(-126.11 -108.3)"/></g><g class="t" transform="translate(27.973 26.919)"><path d="M161.95,141.027l8.464,4.84,1.495-.861-8.423-4.866Z" transform="translate(-161.95 -140.14)"/></g><path class="i" d="M183.545,136.592l-67.4-38.9-8.423,4.861,67.4,38.907Z" transform="translate(-107.701 -92.653)"/><g class="t" transform="translate(0.019 5.037)"><path d="M183.545,136.592l-67.4-38.9-8.423,4.861,67.4,38.907Z" transform="translate(-107.72 -97.69)"/></g><path class="k" d="M184.864,139s11.959,10.443,31.49,8.18a28.362,28.362,0,0,1-18.119,4.459s1.278,5.619,9.18,8.66c0,0-22.428-.33-26.356-18.747Z" transform="translate(-143.237 -112.669)"/><path class="i" d="M183.889,136.91s11.959,9.928,31.49,7.665c0,0-8.289,5.428-18.438,4.2,0,0,1.454,3.7,10,8.211,0,0-21.345.191-26.861-17.526Z" transform="translate(-142.762 -111.656)"/><path class="u" d="M183.889,136.91s11.959,9.928,31.49,7.665c0,0-8.289,5.428-18.438,4.2,0,0,1.454,3.7,10,8.211,0,0-21.345.191-26.861-17.526Z" transform="translate(-142.762 -111.656)"/><path class="v" d="M183.049,141.939a14.3,14.3,0,0,0,8.376-.7h0l-.784-.345-.119-.057-.7-.325-.155-.077-.634-.314-.16-.077-.577-.3-.16-.088-.515-.289a1.39,1.39,0,0,0-.149-.082l-.485-.284-.134-.077-.443-.268-.124-.077-.4-.242-.113-.077-.345-.227-.1-.067-.3-.2-.093-.062-.247-.175-.082-.057-.2-.149-.067-.052-.155-.108-.067-.057-.088-.067-.062-.052h-.036l-.031-.026h0l-1.247.835-2.577,1.711c5.515,17.722,26.856,17.526,26.861,17.526h0C195.956,156.5,184.42,148.166,183.049,141.939Z" transform="translate(-142.762 -111.681)"/><path class="i" d="M210.715,100.182s-2.376-2.773-9.66-1.521c-4.4.758-11.856,5.881-15.546,14.433-.469,1.082-1.515,1.443-2.062,2.17a4.2,4.2,0,0,1-.423.459h-2.3c0-7.969,4.469-16.015,8.7-20.67s11.191-6.933,16.16-7.124a11.211,11.211,0,0,1,5.124.985C212.045,92.7,212.6,96.434,210.715,100.182Z" transform="translate(-143.072 -87.918)"/><path class="w" d="M210.715,100.182s-2.376-2.773-9.66-1.521c-4.4.758-11.856,5.881-15.546,14.433-.469,1.082-1.515,1.443-2.062,2.17a4.2,4.2,0,0,1-.423.459h-2.3c0-7.969,4.469-16.015,8.7-20.67s11.191-6.933,16.16-7.124a11.211,11.211,0,0,1,5.124.985C212.045,92.7,212.6,96.434,210.715,100.182Z" transform="translate(-143.072 -87.918)"/><path class="x" d="M186.024,127.076h0s-4.15-1.4-2.438-8.046A28.315,28.315,0,0,0,180.73,130.8h2.3a4.2,4.2,0,0,0,.423-.459c.562-.727,1.608-1.088,2.062-2.17A11.183,11.183,0,0,1,186.024,127.076Z" transform="translate(-143.077 -102.993)"/><path class="v" d="M186.024,127.076h0s-4.15-1.4-2.438-8.046A28.315,28.315,0,0,0,180.73,130.8h2.3a4.2,4.2,0,0,0,.423-.459c.562-.727,1.608-1.088,2.062-2.17A11.183,11.183,0,0,1,186.024,127.076Z" transform="translate(-143.077 -102.993)"/><path class="x" d="M234.065,100.182s.366-8.763-5.155-12.253a11.211,11.211,0,0,1,5.124.985C235.395,92.7,235.951,96.434,234.065,100.182Z" transform="translate(-166.422 -87.918)"/><path class="v" d="M234.065,100.182s.366-8.763-5.155-12.253a11.211,11.211,0,0,1,5.124.985C235.395,92.7,235.951,96.434,234.065,100.182Z" transform="translate(-166.422 -87.918)"/><path class="i" d="M206.172,106.221a16.634,16.634,0,0,0,4.253-5.113c1.892-3.747,1.33-7.485,0-11.268,4.273,1.892,6.825,7.443,7.8,11.918.515,2.505.577,4.691.155,5.7-1.2,2.82-8.216,14.216-38.258,9.2l.036-3.155C187.651,113.041,200.79,110.752,206.172,106.221Z" transform="translate(-142.781 -88.849)"/><path class="y" d="M206.172,106.221a16.634,16.634,0,0,0,4.253-5.113c1.892-3.747,1.33-7.485,0-11.268,4.273,1.892,6.825,7.443,7.8,11.918.515,2.505.577,4.691.155,5.7-1.2,2.82-8.216,14.216-38.258,9.2l.036-3.155C187.651,113.041,200.79,110.752,206.172,106.221Z" transform="translate(-142.781 -88.849)"/><path class="k" d="M144.53,139s-11.959,10.443-31.49,8.18a28.362,28.362,0,0,0,18.119,4.459s-1.278,5.619-9.18,8.66c0,0,22.428-.33,26.356-18.747Z" transform="translate(-110.278 -112.669)"/><path class="i" d="M145.495,136.91s-11.959,9.928-31.495,7.665c0,0,8.289,5.428,18.438,4.2,0,0-1.454,3.7-10,8.211,0,0,21.345.191,26.861-17.526Z" transform="translate(-110.744 -111.656)"/><path class="u" d="M145.495,136.91s-11.959,9.928-31.495,7.665c0,0,8.289,5.428,18.438,4.2,0,0-1.454,3.7-10,8.211,0,0,21.345.191,26.861-17.526Z" transform="translate(-110.744 -111.656)"/><path class="v" d="M154.277,141.939a14.313,14.313,0,0,1-8.381-.7h0l.784-.345.119-.057.7-.325.155-.077.634-.314.16-.077.582-.3.155-.088.515-.289.149-.082.485-.284.134-.077.443-.268.124-.077.4-.242.113-.077.345-.227.1-.067.3-.2.093-.062.253-.175.077-.057.2-.149.067-.052.155-.108.067-.057.088-.067.062-.052h.036l.031-.026h0l1.247.835,2.577,1.711c-5.515,17.722-26.856,17.526-26.861,17.526h0C141.365,156.5,152.9,148.166,154.277,141.939Z" transform="translate(-118.68 -111.681)"/><path class="i" d="M122.525,100.182s2.371-2.773,9.655-1.521c4.4.758,11.856,5.881,15.552,14.433.464,1.082,1.51,1.443,2.062,2.17a4.2,4.2,0,0,0,.423.459h2.3c0-7.969-4.469-16.015-8.7-20.67s-11.191-6.933-16.16-7.124a11.211,11.211,0,0,0-5.124.985C121.19,92.7,120.633,96.434,122.525,100.182Z" transform="translate(-114.284 -87.918)"/><path class="w" d="M122.525,100.182s2.371-2.773,9.655-1.521c4.4.758,11.856,5.881,15.552,14.433.464,1.082,1.51,1.443,2.062,2.17a4.2,4.2,0,0,0,.423.459h2.3c0-7.969-4.469-16.015-8.7-20.67s-11.191-6.933-16.16-7.124a11.211,11.211,0,0,0-5.124.985C121.19,92.7,120.633,96.434,122.525,100.182Z" transform="translate(-114.284 -87.918)"/><path class="x" d="M171.59,127.076h0s4.124-1.4,2.438-8.046a28.314,28.314,0,0,1,2.856,11.768h-2.3a4.2,4.2,0,0,1-.423-.459c-.562-.727-1.608-1.088-2.062-2.17C171.935,127.777,171.76,127.432,171.59,127.076Z" transform="translate(-138.648 -102.993)"/><path class="v" d="M171.59,127.076h0s4.124-1.4,2.438-8.046a28.314,28.314,0,0,1,2.856,11.768h-2.3a4.2,4.2,0,0,1-.423-.459c-.562-.727-1.608-1.088-2.062-2.17C171.935,127.777,171.76,127.432,171.59,127.076Z" transform="translate(-138.648 -102.993)"/><path class="x" d="M122.527,100.182s-.371-8.763,5.155-12.253a11.211,11.211,0,0,0-5.124.985C121.192,92.7,120.635,96.434,122.527,100.182Z" transform="translate(-114.286 -87.918)"/><path class="v" d="M122.527,100.182s-.371-8.763,5.155-12.253a11.211,11.211,0,0,0-5.124.985C121.192,92.7,120.635,96.434,122.527,100.182Z" transform="translate(-114.286 -87.918)"/><path class="i" d="M120.171,106.221a16.634,16.634,0,0,1-4.253-5.113c-1.892-3.747-1.33-7.485,0-11.268-4.278,1.892-6.83,7.443-7.8,11.918-.515,2.505-.582,4.691-.16,5.7,1.2,2.82,8.216,14.216,38.258,9.2l-.031-3.155C138.692,113.041,125.552,110.752,120.171,106.221Z" transform="translate(-107.683 -88.849)"/><path class="y" d="M120.171,106.221a16.634,16.634,0,0,1-4.253-5.113c-1.892-3.747-1.33-7.485,0-11.268-4.278,1.892-6.83,7.443-7.8,11.918-.515,2.505-.582,4.691-.16,5.7,1.2,2.82,8.216,14.216,38.258,9.2l-.031-3.155C138.692,113.041,125.552,110.752,120.171,106.221Z" transform="translate(-107.683 -88.849)"/><path class="i" d="M181.441,136.07a1.727,1.727,0,0,0-1.031-1.4,8.015,8.015,0,0,0-3.093-.448,7.773,7.773,0,0,0-3.186.515,1.7,1.7,0,0,0-.938,1.351,5.645,5.645,0,0,0,.448,3.448,5.49,5.49,0,0,0,3.686,1.325,5.4,5.4,0,0,0,3.665-1.325A5.751,5.751,0,0,0,181.441,136.07Z" transform="translate(-139.391 -110.348)"/><path class="w" d="M181.441,136.07a1.727,1.727,0,0,0-1.031-1.4,8.015,8.015,0,0,0-3.093-.448,7.773,7.773,0,0,0-3.186.515,1.7,1.7,0,0,0-.938,1.351,5.645,5.645,0,0,0,.448,3.448,5.49,5.49,0,0,0,3.686,1.325,5.4,5.4,0,0,0,3.665-1.325A5.751,5.751,0,0,0,181.441,136.07Z" transform="translate(-139.391 -110.348)"/><path class="x" d="M181.5,139.731c0,.371-.412.964-1.216,1.546a5.155,5.155,0,0,1-4.505.32,3.742,3.742,0,0,1-2.629-2.907,5.056,5.056,0,0,0,.49,3.01,5.49,5.49,0,0,0,3.686,1.325,5.4,5.4,0,0,0,3.665-1.325A3.835,3.835,0,0,0,181.5,139.731Z" transform="translate(-139.391 -112.519)"/><path class="v" d="M181.5,139.731c0,.371-.412.964-1.216,1.546a5.155,5.155,0,0,1-4.505.32,3.742,3.742,0,0,1-2.629-2.907,5.056,5.056,0,0,0,.49,3.01,5.49,5.49,0,0,0,3.686,1.325,5.4,5.4,0,0,0,3.665-1.325A3.835,3.835,0,0,0,181.5,139.731Z" transform="translate(-139.391 -112.519)"/></g></g><g transform="translate(77.923 46.521)"><g transform="translate(95.814 41.308)"><path class="q" d="M395,248.091l3.876-2.253a.9.9,0,0,1,.907-.088c.227.134.686.412.912.515a.9.9,0,0,1,.381.83v9.309a2.809,2.809,0,0,1-1.278,2.206l-3.871,2.278a.9.9,0,0,1-.9.093c-.232-.134-.691-.418-.923-.546a.9.9,0,0,1-.376-.83V250.3A2.809,2.809,0,0,1,395,248.091Z" transform="translate(-393.715 -245.667)"/><path class="c" d="M393.715,253.473v9.309a.9.9,0,0,0,.376.83c.227.124.572.345.9.515a.922.922,0,0,1-.345-.809v-9.3a2.577,2.577,0,0,1,.371-1.253l-.923-.546A2.577,2.577,0,0,0,393.715,253.473Z" transform="translate(-393.71 -248.842)"/><path class="d" d="M400.674,259.149,396.8,261.4c-.706.407-1.273.077-1.273-.732v-9.314a2.815,2.815,0,0,1,1.273-2.206l3.876-2.253c.706-.407,1.278-.077,1.278.737v9.309A2.809,2.809,0,0,1,400.674,259.149Z" transform="translate(-394.592 -246.178)"/></g><path class="e" d="M395.458,273.616a.33.33,0,0,1-.278-.165.32.32,0,0,1,.119-.438l2.7-1.546a.32.32,0,0,0,.16-.278V260.976a.325.325,0,1,1,.644,0v10.2a.974.974,0,0,1-.485.84l-2.7,1.546A.3.3,0,0,1,395.458,273.616Z" transform="translate(-298.587 -211.6)"/><path class="i" d="M238.612,375.753l10.954-5.062s-.856-10.309-8.088-7.84S238.612,375.753,238.612,375.753Z" transform="translate(-222.112 -260.954)"/><g class="n" transform="translate(15.194 101.515)"><path d="M238.612,375.753l10.954-5.062s-.856-10.309-8.088-7.84S238.612,375.753,238.612,375.753Z" transform="translate(-237.306 -362.469)"/></g><path class="e" d="M249.335,377.657,247,372.976l5.608-3.247h0c1.789-1.031,4.16-.907,6.768.6,5.541,3.2,10.031,11.448,10.031,18.428,0,3.649-1.232,6.232-3.2,7.4h0l-.082.046h0l-5.747,3.32-2.49-4.938C253.149,390.987,249.515,383.884,249.335,377.657Z" transform="translate(-226.809 -264.146)"/><path class="f" d="M240.18,383.7a24.025,24.025,0,0,0,7.814,16.83h0a15.128,15.128,0,0,0,2.2,1.582c5.541,3.2,10.036.134,10.031-6.845A24.381,24.381,0,0,0,254.041,380l-.031-.031a16.01,16.01,0,0,0-3.794-3.124C244.67,373.668,240.18,376.73,240.18,383.7Z" transform="translate(-223.505 -267.312)"/><path class="g" d="M253.641,385.492c-3.526-2.062-6.381.082-6.381,4.737s2.856,10.072,6.381,12.108,6.381-.088,6.381-4.737S257.167,387.528,253.641,385.492Z" transform="translate(-226.935 -271.729)"/><path class="c" d="M256.529,393.722c-1.83-1.031-3.309.041-3.309,2.459a7.874,7.874,0,0,0,3.309,6.284c1.83,1.057,3.314-.046,3.314-2.459A7.887,7.887,0,0,0,256.529,393.722Z" transform="translate(-229.823 -275.908)"/><path class="h" d="M255.453,393.724a2.8,2.8,0,0,0-.727-.294c-.918.247-1.546,1.253-1.546,2.8a8.376,8.376,0,0,0,1.856,4.995,4.466,4.466,0,0,0,.4.268c1.629.938,2.943-.036,2.943-2.186A6.969,6.969,0,0,0,255.453,393.724Z" transform="translate(-229.804 -275.956)"/><path class="g" d="M240.18,383.71a24.025,24.025,0,0,0,7.814,16.83,28.408,28.408,0,0,1-6.361-12.309c-.851-4.021-.515-9.794,2.923-11.253s8.01,1.613,9.448,3.015a16.011,16.011,0,0,0-3.794-3.124C244.67,373.674,240.18,376.736,240.18,383.71Z" transform="translate(-223.505 -267.318)"/><path class="i" d="M263.252,331.05l-9.923-5.732-1.3-.753-2.5-1.454h0l-1.186-.691a.83.83,0,0,0,.052-.35,2,2,0,0,0,.046-.552c0-7.675-5.387-17.01-12.067-20.845a14.687,14.687,0,0,0-1.954-.948h0c-.294-.113-.572-.211-.85-.294h0c-5.278-1.6-9.211,1.608-9.211,8.175v.995l-16.495-9.531V223.88h0l20.5,11.856,17.9,13.18,8.113,39.459,6.294,9.247.335.49,3.845,5.639h0l1.247,15.345.309,3.356.134,1.381h0l.309,3.32.144,1.546a2.485,2.485,0,0,1-3.737,2.351Z" transform="translate(-207.845 -193.803)"/><g class="t" transform="translate(0.015 30.077)"><path d="M263.252,331.05l-9.923-5.732-1.3-.753-2.5-1.454h0l-1.186-.691a.83.83,0,0,0,.052-.35,2,2,0,0,0,.046-.552c0-7.675-5.387-17.01-12.067-20.845a14.687,14.687,0,0,0-1.954-.948h0c-.294-.113-.572-.211-.85-.294h0c-5.278-1.6-9.211,1.608-9.211,8.175v.995l-16.495-9.531V223.88h0l20.5,11.856,17.9,13.18,8.113,39.459,6.294,9.247.335.49,3.845,5.639h0l1.247,15.345.309,3.356.134,1.381h0l.309,3.32.144,1.546a2.485,2.485,0,0,1-3.737,2.351Z" transform="translate(-207.86 -223.88)"/></g><path class="g" d="M241.6,260.212v24.325c0,.9-.624,1.258-1.4.809l-20.175-11.634a3.093,3.093,0,0,1-1.4-2.428v-25.6c0-.892.624-1.253,1.4-.809l12.129,7.005c.773.448,1.985,1.237,2.7,1.768l5.438,3.995A3.577,3.577,0,0,1,241.6,260.212Z" transform="translate(-213.063 -203.882)"/><path class="g" d="M273.585,306.529a5.155,5.155,0,0,1-2.335-4.041v-21.51c0-1.49.552-2.283,1.232-1.773l1.232.923a5.639,5.639,0,0,1,1.856,2.964l4.969,25.825c.2,1.031-.366,1.418-1.258.9Z" transform="translate(-238.559 -220.535)"/><g class="t" transform="translate(3.099 36.644)"><path d="M240.311,252.573l-8.149-5.938c-.608-.443-1.634-1.113-2.284-1.485l-14.459-8.335a1.062,1.062,0,0,0-1.093-.082,1.082,1.082,0,0,0-.479.99V303.31a2.84,2.84,0,0,0,1.3,2.258l9.49,5.474a1.278,1.278,0,0,0,.66.2.943.943,0,0,0,.412-.088,1.031,1.031,0,0,0,.428-.371,1.49,1.49,0,0,0,.227-.577,8.014,8.014,0,0,1,4.639-6.139,8.356,8.356,0,0,1,5.3-.155h0a14.138,14.138,0,0,1,2.65.995c.371.18.711.361,1.031.515a1.082,1.082,0,0,0,1.093.1.8.8,0,0,0,.263-.263,1.252,1.252,0,0,0,.18-.7V254.934a3.227,3.227,0,0,0-1.211-2.361Zm.387,52.515a.577.577,0,0,1-.366-.077h0l-.088-.041a15.169,15.169,0,0,0-4.423-1.732,8.649,8.649,0,0,0-5.01.32,8.284,8.284,0,0,0-4.82,5.918h0c-.062.222-.108.418-.144.613a.732.732,0,0,1-.356.562.629.629,0,0,1-.577-.088l-9.495-5.469a2.314,2.314,0,0,1-1.031-1.789V237.713a.593.593,0,0,1,.206-.515.351.351,0,0,1,.175-.041.784.784,0,0,1,.381.124l14.459,8.351c.639.366,1.639,1.031,2.232,1.448L240,253.022a2.7,2.7,0,0,1,.979,1.923v49.634a.572.572,0,0,1-.175.515.246.246,0,0,1-.088.026Z" transform="translate(-213.843 -236.62)"/></g><path class="i" d="M372.411,343.867s-7.479,10.34-23.794,20.1a82.468,82.468,0,0,1-28.3,9.985l-1.928-23.412,52.093-30.082Z" transform="translate(-261.4 -240.599)"/><g class="r" transform="translate(56.99 79.861)"><path d="M372.411,343.867s-7.479,10.34-23.794,20.1a82.468,82.468,0,0,1-28.3,9.985l-1.928-23.412,52.093-30.082Z" transform="translate(-318.39 -320.46)"/></g><path class="i" d="M360.666,306.006s-7.479,10.345-23.794,20.1a82.469,82.469,0,0,1-28.3,9.985L298.13,320.727l52.1-30.077Z" transform="translate(-251.584 -226.155)"/><path class="f" d="M362.529,358.235c-.093-.1-.175-.082-.273.082,0,0-7.479,10.34-23.8,20.1a83.028,83.028,0,0,1-28.3,9.979c-6.33.577-14.082-6.108-14.082-6.108l1.067-.778s7.351,5.567,11.088,5.567c3.222,0,14.737-1.464,30.361-10.309s22.68-19.541,22.68-19.541a1.639,1.639,0,0,1,1.263,1.005Z" transform="translate(-250.585 -258.416)"/><path class="g" d="M362.25,359.2s-7.484,10.34-23.8,20.1a82.432,82.432,0,0,1-28.3,9.985c-6.33.577-14.082-6.1-14.082-6.1h0v8.928s7.732,6.7,14.082,6.1a82.562,82.562,0,0,0,28.3-9.985c16.314-9.753,23.8-20.1,23.8-20.1C363.56,365.924,363,357.878,362.25,359.2Z" transform="translate(-250.585 -259.3)"/><path class="m" d="M328.166,387.787a3.824,3.824,0,0,1,4.706,3.521,5.186,5.186,0,0,1-3.82,5.515,3.784,3.784,0,0,1-4.7-3.521A5.294,5.294,0,0,1,328.166,387.787Z" transform="translate(-264.28 -273.168)"/><path class="m" d="M410.229,341.184a9.084,9.084,0,0,0-2.031,6.763c.294,2.325,1.624,3.057,2.964,1.634a9.823,9.823,0,0,0,2.031-6.763C412.976,340.5,411.641,339.772,410.229,341.184Z" transform="translate(-304.889 -250.292)"/><path class="f" d="M347.406,376.419a60.94,60.94,0,0,0,12.887-5.773c.644-.376,1.16-.082,1.16.66v.943a2.577,2.577,0,0,1-1.16,2.036,60.939,60.939,0,0,1-12.887,5.773.964.964,0,0,1-1.3-.979v-.943a1.892,1.892,0,0,1,1.3-1.716Z" transform="translate(-274.829 -264.837)"/><path class="f" d="M391.894,351.58v.943a3.284,3.284,0,0,1-1.031,2.222,109.176,109.176,0,0,1-9.655,7.216c-.619.407-1.129.129-1.129-.613v-.933a2.8,2.8,0,0,1,1.129-2.062,109.93,109.93,0,0,0,9.655-7.216C391.451,350.627,391.894,350.838,391.894,351.58Z" transform="translate(-291.291 -255.328)"/><path class="f" d="M347.405,389.2a60.918,60.918,0,0,0,12.887-5.768c.644-.376,1.16-.088,1.16.66v.943a2.608,2.608,0,0,1-1.16,2.036,61.18,61.18,0,0,1-12.887,5.768.959.959,0,0,1-1.3-.979v-.943A1.907,1.907,0,0,1,347.405,389.2Z" transform="translate(-274.828 -271.033)"/><path class="f" d="M391.894,364.4v.943a3.284,3.284,0,0,1-1.031,2.216,109.16,109.16,0,0,1-9.655,7.216c-.619.412-1.129.134-1.129-.613v-.943a2.8,2.8,0,0,1,1.129-2.062,112.029,112.029,0,0,0,9.655-7.216C391.451,363.445,391.894,363.656,391.894,364.4Z" transform="translate(-291.291 -261.537)"/><g class="t" transform="translate(52.328 84.898)"><path d="M331.534,330.4A174.465,174.465,0,0,1,310.06,340.2a1.031,1.031,0,0,0-.516,1.588l.036.052a2.155,2.155,0,0,0,2.062.861A89.05,89.05,0,0,0,334,334.061a1.2,1.2,0,0,0,.423-1.758l-.964-1.433a1.505,1.505,0,0,0-1.923-.469Z" transform="translate(-309.347 -330.232)"/></g><g class="t" transform="translate(78.417 69.331)"><path d="M378.3,300.346a128.949,128.949,0,0,1-17.722,12.814,1.253,1.253,0,0,0-.4,1.8l.974,1.443a1.454,1.454,0,0,0,1.918.428c9.639-5.809,14.794-10.923,17.155-13.706a1.9,1.9,0,0,0,.1-2.165l-.263-.392a1.149,1.149,0,0,0-1.763-.227Z" transform="translate(-359.958 -300.033)"/></g><path class="g" d="M342.582,253.494a120.557,120.557,0,0,1-22.794,16.912,171.2,171.2,0,0,1-29.3,13.16L282.34,244.1,314.9,225.309l14.974-8.639,4.567-2.65Z" transform="translate(-243.933 -189.025)"/><path class="i" d="M334.438,214l-4.567,2.644L314.9,225.3,282.34,244.088l8.144,39.469h0l.557-.186.113-.036.567-.2.237-.067h.1l.387-.139.6-.211.6-.216.392-.144.516-.191,1.742-.66.392-.15c1.4-.541,2.979-1.17,4.7-1.887l1.691-.717.273-.119.309-.129c.356-.165.727-.32,1.1-.485l.32-.139.742-.335.851-.381c.619-.278,1.247-.572,1.881-.871s1.273-.6,1.918-.912c.485-.237.969-.474,1.454-.722l1.175-.588.124-.062,1.2-.624.1-.052,1.057-.557.845-.454q1.031-.552,2.005-1.113l1.335-.763,1.216-.784c.345-.2.686-.412,1.031-.619.129-.077.263-.155.387-.237.387-.232.778-.474,1.155-.711l.139-.088.552-.351c.242-.155.474-.309.716-.459l.686-.454.68-.443c.283-.186.567-.371.84-.562.562-.381,1.108-.753,1.644-1.129l.108-.077.619-.428c.814-.577,1.6-1.144,2.34-1.691l.557-.418.516-.4.515-.4c.351-.263.686-.515,1.031-.778l.041-.031.418-.325.954-.763.6-.479c.124-.1.242-.206.361-.3s.237-.2.351-.289l.345-.284a.119.119,0,0,1,0-.026l.783-.629c.964-.814,1.773-1.546,2.412-2.113a2.615,2.615,0,0,1,.258-.232l.052-.052.268-.247h0c.758-.7,1.17-1.108,1.227-1.165h0Zm-17.552,55.155a.066.066,0,0,1,0,.031,1.916,1.916,0,0,1-.046.237v.067c-.026.062-.046.129-.072.191a.574.574,0,0,1-.036.082,1.23,1.23,0,0,1-.1.222,2.128,2.128,0,0,1-.546.644,1.229,1.229,0,0,1-.237.15c-1.918,1.031-3.835,2.031-5.706,2.943l-.985.485q-1.18.562-2.335,1.093l-1.072.515-1.835.814c-.3.139-.6.268-.9.392l-.871.376c-1.155.515-2.258.948-3.3,1.371h0c-.552.227-1.093.438-1.608.644l-.758.294c-1.242.479-2.335.892-3.258,1.227a1.34,1.34,0,0,1-1.66-.562,1.716,1.716,0,0,1-.17-.464l-5.01-24.959a2.376,2.376,0,0,1,1.062-2.371l21.134-12.2a1.139,1.139,0,0,1,1.768.768l5.005,20.9,1.515,6.33.026.1v.077a.242.242,0,0,1,0,.088.452.452,0,0,1,0,.088,1.086,1.086,0,0,1,0,.186,1.5,1.5,0,0,1-.005.242ZM335.5,257.567h0l-.371.314c-1.232.995-2.634,2.062-4.175,3.232-.515.392-1.067.783-1.629,1.186l-.6.438c-.82.588-1.67,1.175-2.577,1.778l-.876.588c-.294.2-.6.4-.9.593s-.613.407-.923.6c-1.108.716-2.258,1.433-3.443,2.139a1.113,1.113,0,0,1-1.747-.753l-.036-.155h0l-1.521-6.309-4.959-20.845A2.3,2.3,0,0,1,312.773,238l4.005-2.3,16.3-9.433.727-.412.062-.031a1.082,1.082,0,0,1,1.644.8l4.985,24.742a3.129,3.129,0,0,1-.479,2.18c-.057.088-.119.175-.18.253h0a2.414,2.414,0,0,1-.2.2l-.263.237c-.119.113-.242.222-.366.33l-1.113.969c-.4.345-.835.716-1.3,1.1l-.974.8-.119.093Z" transform="translate(-243.933 -189.015)"/><g class="r" transform="translate(38.407 24.985)"><path d="M334.438,214l-4.567,2.644L314.9,225.3,282.34,244.088l8.144,39.469h0l.557-.186.113-.036.567-.2.237-.067h.1l.387-.139.6-.211.6-.216.392-.144.516-.191,1.742-.66.392-.15c1.4-.541,2.979-1.17,4.7-1.887l1.691-.717.273-.119.309-.129c.356-.165.727-.32,1.1-.485l.32-.139.742-.335.851-.381c.619-.278,1.247-.572,1.881-.871s1.273-.6,1.918-.912c.485-.237.969-.474,1.454-.722l1.175-.588.124-.062,1.2-.624.1-.052,1.057-.557.845-.454q1.031-.552,2.005-1.113l1.335-.763,1.216-.784c.345-.2.686-.412,1.031-.619.129-.077.263-.155.387-.237.387-.232.778-.474,1.155-.711l.139-.088.552-.351c.242-.155.474-.309.716-.459l.686-.454.68-.443c.283-.186.567-.371.84-.562.562-.381,1.108-.753,1.644-1.129l.108-.077.619-.428c.814-.577,1.6-1.144,2.34-1.691l.557-.418.516-.4.515-.4c.351-.263.686-.515,1.031-.778l.041-.031.418-.325.954-.763.6-.479c.124-.1.242-.206.361-.3s.237-.2.351-.289l.345-.284a.119.119,0,0,1,0-.026l.783-.629c.964-.814,1.773-1.546,2.412-2.113a2.615,2.615,0,0,1,.258-.232l.052-.052.268-.247h0c.758-.7,1.17-1.108,1.227-1.165h0Zm-17.552,55.155a.066.066,0,0,1,0,.031,1.916,1.916,0,0,1-.046.237v.067c-.026.062-.046.129-.072.191a.574.574,0,0,1-.036.082,1.23,1.23,0,0,1-.1.222,2.128,2.128,0,0,1-.546.644,1.229,1.229,0,0,1-.237.15c-1.918,1.031-3.835,2.031-5.706,2.943l-.985.485q-1.18.562-2.335,1.093l-1.072.515-1.835.814c-.3.139-.6.268-.9.392l-.871.376c-1.155.515-2.258.948-3.3,1.371h0c-.552.227-1.093.438-1.608.644l-.758.294c-1.242.479-2.335.892-3.258,1.227a1.34,1.34,0,0,1-1.66-.562,1.716,1.716,0,0,1-.17-.464l-5.01-24.959a2.376,2.376,0,0,1,1.062-2.371l21.134-12.2a1.139,1.139,0,0,1,1.768.768l5.005,20.9,1.515,6.33.026.1v.077a.242.242,0,0,1,0,.088.452.452,0,0,1,0,.088,1.086,1.086,0,0,1,0,.186,1.5,1.5,0,0,1-.005.242ZM335.5,257.567h0l-.371.314c-1.232.995-2.634,2.062-4.175,3.232-.515.392-1.067.783-1.629,1.186l-.6.438c-.82.588-1.67,1.175-2.577,1.778l-.876.588c-.294.2-.6.4-.9.593s-.613.407-.923.6c-1.108.716-2.258,1.433-3.443,2.139a1.113,1.113,0,0,1-1.747-.753l-.036-.155h0l-1.521-6.309-4.959-20.845A2.3,2.3,0,0,1,312.773,238l4.005-2.3,16.3-9.433.727-.412.062-.031a1.082,1.082,0,0,1,1.644.8l4.985,24.742a3.129,3.129,0,0,1-.479,2.18c-.057.088-.119.175-.18.253h0a2.414,2.414,0,0,1-.2.2l-.263.237c-.119.113-.242.222-.366.33l-1.113.969c-.4.345-.835.716-1.3,1.1l-.974.8-.119.093Z" transform="translate(-282.34 -214)"/></g><path class="g" d="M288.644,252.808l47.005-27.149a1.856,1.856,0,0,0,.835-1.845l-.856-4.242a.84.84,0,0,0-1.325-.6l-47,27.149a1.851,1.851,0,0,0-.835,1.851l.85,4.237a.84.84,0,0,0,1.325.6Z" transform="translate(-245.922 -191.349)"/><path class="f" d="M325.03,313.588A2.2,2.2,0,0,1,324,315.913a173.3,173.3,0,0,1-22.629,10.134,1.345,1.345,0,0,1-1.83-1.031l-.33-1.644c4.567-3.32,15.66-11.242,24.175-16.16a1.094,1.094,0,0,1,.1-.062Z" transform="translate(-252.107 -234.15)"/><path class="f" d="M372.355,289.117a2.18,2.18,0,0,1-.392.469,130.65,130.65,0,0,1-19.639,14.433,1.113,1.113,0,0,1-1.747-.753l-1.546-6.479a148.267,148.267,0,0,1,20.655-9.407Z" transform="translate(-276.246 -224.571)"/><path class="z" d="M380.371,259.312l-5.7-3.278a5.155,5.155,0,0,1-2.335-4.046V239.9l4.366-2.526.722-.418a.288.288,0,0,1,.067-.036l4.124,21.49C381.83,259.425,381.263,259.827,380.371,259.312Z" transform="translate(-287.541 -200.121)"/><path class="z" d="M356.164,247.35v8.371c0,.9-.624,1.258-1.4.809l-7.242-4.18.861-.515Z" transform="translate(-275.515 -205.175)"/><path class="i" d="M298.335,190.52l-52.1,30.077-17.907-13.16L207.83,195.6l52.1-30.072,20.5,11.835Z" transform="translate(-207.83 -165.53)"/><g transform="translate(31.784 77.74)"><path class="q" d="M270.8,318.771l3.881-2.253a.887.887,0,0,1,.9-.088l.918.546a.887.887,0,0,1,.376.825v9.309a2.809,2.809,0,0,1-1.273,2.206l-3.881,2.253a.892.892,0,0,1-.9.093c-.227-.134-.691-.418-.918-.546a.9.9,0,0,1-.376-.83v-9.309A2.814,2.814,0,0,1,270.8,318.771Z" transform="translate(-269.505 -316.346)"/><path class="c" d="M269.5,324.172v9.314a.892.892,0,0,0,.376.825c.222.124.572.345.892.515a.923.923,0,0,1-.345-.809v-9.3a2.6,2.6,0,0,1,.366-1.232l-.928-.546A2.618,2.618,0,0,0,269.5,324.172Z" transform="translate(-269.49 -319.541)"/><path class="d" d="M276.445,329.831l-3.881,2.253c-.7.407-1.273.077-1.273-.732v-9.309a2.83,2.83,0,0,1,1.273-2.211l3.881-2.253c.7-.4,1.273-.077,1.273.737v9.309A2.809,2.809,0,0,1,276.445,329.831Z" transform="translate(-270.362 -316.86)"/></g><path class="f" d="M286.774,344.342a2.892,2.892,0,0,1,1.3,2.268c0,.835-.582,1.175-1.3.758a2.881,2.881,0,0,1-1.3-2.268C285.47,344.265,286.052,343.925,286.774,344.342Z" transform="translate(-245.449 -252.085)"/><path class="e" d="M278.191,342.869a.984.984,0,0,1-.485-.134.948.948,0,0,1-.479-.835v-9.443a.325.325,0,1,1,.644,0v9.454a.3.3,0,0,0,.16.278.309.309,0,0,0,.32,0l4.268-2.464a.32.32,0,0,1,.438.119.33.33,0,0,1-.119.443l-4.284,2.459a.985.985,0,0,1-.464.124Z" transform="translate(-241.454 -246.235)"/></g></g><g transform="translate(96.256 16.2)"><path class="f" d="M180.5,103.379a.515.515,0,0,1-.515-.448c-2.4-17.242,10.191-27.763,22.768-31.861,13.124-4.273,22.392,1.418,22.784,1.66a.52.52,0,0,1-.552.881c-.093-.057-9.278-5.67-21.907-1.546-12.18,3.969-24.376,14.124-22.062,30.732a.515.515,0,0,1-.443.588Z" transform="translate(-179.686 -42.018)"/><g transform="translate(39.126)"><path class="i" d="M297.1,16.2,264.013,35.3l-8.423,17.01,8.423,7.3.948.546,33.108-19.088V16.746ZM262.858,49.19a4.469,4.469,0,0,1,2.021-3.505,1.835,1.835,0,0,1,.871-.268,1.861,1.861,0,0,1,.2.887,4.484,4.484,0,0,1-2.021,3.505,1.912,1.912,0,0,1-.881.268,1.866,1.866,0,0,1-.191-.9Z" transform="translate(-255.59 -16.2)"/><path class="i" d="M265.853,36.363l-8.423,17.01,8.423,7.294L298.961,41.58V17.26Zm-.082,14.495c-1.119.649-2.021.124-2.021-1.165a4.469,4.469,0,0,1,2.021-3.505c1.113-.644,2.021-.119,2.021,1.165A4.474,4.474,0,0,1,265.77,50.858Z" transform="translate(-256.482 -16.714)"/><path class="aa" d="M273.911,74.3a4.474,4.474,0,0,1-2.021,3.505c-.809.469-1.505.325-1.83-.278h0a1.809,1.809,0,0,0,.881-.273,4.464,4.464,0,0,0,2.021-3.5,1.8,1.8,0,0,0-.2-.876,1.031,1.031,0,0,1,.763.284A1.546,1.546,0,0,1,273.911,74.3Z" transform="translate(-262.601 -43.662)"/><path class="ab" d="M305.961,16.746l-.948-.546L271.93,35.3l.948.552Z" transform="translate(-263.507 -16.2)"/><path class="ac" d="M264.961,53.8l-8.423,17.026-.948-.552,8.423-17.026Z" transform="translate(-255.59 -34.152)"/><path class="aa" d="M256.538,86.832l8.423,7.294-.948-.546-8.423-7.3Z" transform="translate(-255.59 -50.156)"/></g><g transform="translate(53.78 1.155)"><path class="q" d="M285.5,76.078a1.289,1.289,0,0,1,.577-.191.794.794,0,0,1,.448.1.752.752,0,0,1,.3.309.97.97,0,0,1,.113.438.335.335,0,0,1-.031.134.18.18,0,0,1-.072.088l-.639.371a.175.175,0,0,1-.108.031.139.139,0,0,1-.088-.041.186.186,0,0,1-.046-.046.268.268,0,0,0-.237-.067.547.547,0,0,0-.216.082,1.309,1.309,0,0,0-.175.119,1.426,1.426,0,0,0-.155.149.686.686,0,0,0-.1.18.47.47,0,0,0-.046.211.17.17,0,0,0,.206.206,1.165,1.165,0,0,0,.289-.041c.124-.031.273-.067.448-.119a1.464,1.464,0,0,1,.469-.057.515.515,0,0,1,.335.124.66.66,0,0,1,.2.335,2,2,0,0,1,.067.577,2.459,2.459,0,0,1-.113.747,3.24,3.24,0,0,1-.314.7,3.154,3.154,0,0,1-1.082,1.067,1.464,1.464,0,0,1-.6.211.825.825,0,0,1-.474-.082.8.8,0,0,1-.309-.32,1.1,1.1,0,0,1-.119-.515.335.335,0,0,1,.031-.134.181.181,0,0,1,.072-.088l.639-.371a.237.237,0,0,1,.108-.036.175.175,0,0,1,.077.036.341.341,0,0,1,.062.062.273.273,0,0,0,.1.077.315.315,0,0,0,.165.031.619.619,0,0,0,.247-.093,1.821,1.821,0,0,0,.433-.335.6.6,0,0,0,.175-.412.165.165,0,0,0-.067-.149.325.325,0,0,0-.191-.031,2.292,2.292,0,0,0-.325.062c-.129.041-.289.077-.464.124a.722.722,0,0,1-.737-.129,1.345,1.345,0,0,1-.232-.9,2.4,2.4,0,0,1,.1-.67,3.188,3.188,0,0,1,.273-.68,3.37,3.37,0,0,1,.438-.608A2.458,2.458,0,0,1,285.5,76.078Z" transform="translate(-284.02 -51.759)"/><path class="q" d="M293.812,70.9a.067.067,0,0,1,.093,0,.155.155,0,0,1,.036.119v4.861a.4.4,0,0,1-.036.165.3.3,0,0,1-.093.113l-.644.366a.072.072,0,0,1-.093,0,.165.165,0,0,1-.036-.119V74.552l-1.082.629v1.84a.372.372,0,0,1-.041.165.237.237,0,0,1-.093.113l-.639.371a.072.072,0,0,1-.093,0,.155.155,0,0,1-.041-.124V72.7a.392.392,0,0,1,.041-.165.237.237,0,0,1,.093-.113l.639-.371a.072.072,0,0,1,.093,0,.15.15,0,0,1,.041.119v1.82l1.082-.624V71.547a.4.4,0,0,1,.036-.165.263.263,0,0,1,.093-.113Z" transform="translate(-287.425 -49.335)"/><path class="q" d="M298.354,74.619a.072.072,0,0,1-.093,0,.17.17,0,0,1-.041-.124V69.635a.391.391,0,0,1,.041-.165.237.237,0,0,1,.093-.113l.639-.371a.077.077,0,0,1,.093,0,.17.17,0,0,1,.041.124v4.856a.371.371,0,0,1-.041.165.237.237,0,0,1-.093.113Z" transform="translate(-290.9 -48.408)"/><path class="q" d="M303.07,66.028a1.645,1.645,0,0,1,.562-.216.583.583,0,0,1,.423.088.758.758,0,0,1,.273.4,2.243,2.243,0,0,1,.093.711,3.563,3.563,0,0,1-.093.83,2.917,2.917,0,0,1-.273.7,2.645,2.645,0,0,1-.423.577,2.706,2.706,0,0,1-.562.438l-.629.361v1.546a.4.4,0,0,1-.036.165.263.263,0,0,1-.093.113l-.639.351a.067.067,0,0,1-.093,0,.155.155,0,0,1-.041-.119V67.111a.408.408,0,0,1,.041-.165.263.263,0,0,1,.093-.113Zm-.629,2.716.6-.351a.954.954,0,0,0,.474-.866c0-.211-.046-.335-.134-.376a.361.361,0,0,0-.34.057l-.6.345Z" transform="translate(-292.508 -46.873)"/><path class="q" d="M309.8,62.138a1.727,1.727,0,0,1,.562-.216.6.6,0,0,1,.428.088.753.753,0,0,1,.268.4,2.092,2.092,0,0,1,.1.711,3.3,3.3,0,0,1-.1.83,3.034,3.034,0,0,1-.268.706,2.764,2.764,0,0,1-.428.572,2.459,2.459,0,0,1-.562.438l-.624.361v1.546a.407.407,0,0,1-.041.165.237.237,0,0,1-.093.113l-.639.371a.072.072,0,0,1-.093,0,.155.155,0,0,1-.036-.119V63.226a.4.4,0,0,1,.036-.17.263.263,0,0,1,.093-.113Zm-.639,2.716.6-.351a.959.959,0,0,0,.469-.866c0-.211-.041-.335-.134-.376a.351.351,0,0,0-.335.057l-.6.345Z" transform="translate(-295.774 -44.989)"/><path class="q" d="M315.138,64.928a.072.072,0,0,1-.093,0A.15.15,0,0,1,315,64.8V59.944a.371.371,0,0,1,.041-.165.211.211,0,0,1,.093-.113l.639-.371a.072.072,0,0,1,.093,0,.165.165,0,0,1,.041.119v4.876a.392.392,0,0,1-.041.165.237.237,0,0,1-.093.113Z" transform="translate(-299.03 -43.712)"/><path class="q" d="M320.551,60.752c-.057.031-.1.036-.134,0a.2.2,0,0,1-.067-.067l-1.119-1.928V61.3a.366.366,0,0,1-.036.165.237.237,0,0,1-.093.113l-.639.371a.072.072,0,0,1-.093,0,.144.144,0,0,1-.041-.119V56.964a.325.325,0,0,1,.041-.165.237.237,0,0,1,.093-.113l.515-.294c.057-.031.1-.036.134,0a.2.2,0,0,1,.067.067l1.119,1.928V55.835a.366.366,0,0,1,.036-.165.309.309,0,0,1,.093-.113l.644-.371a.077.077,0,0,1,.093,0,.17.17,0,0,1,.036.124v4.856a.382.382,0,0,1-.036.165.237.237,0,0,1-.093.113Z" transform="translate(-300.643 -41.721)"/><path class="q" d="M326.721,53.457a1.032,1.032,0,0,0-.278.232,1.355,1.355,0,0,0-.18.3,1.406,1.406,0,0,0-.1.335,2.893,2.893,0,0,0-.052.361v1.263a1.346,1.346,0,0,0,.046.3.515.515,0,0,0,.108.216.242.242,0,0,0,.186.082.516.516,0,0,0,.273-.088,1.14,1.14,0,0,0,.242-.18,1.257,1.257,0,0,0,.2-.258,1.555,1.555,0,0,0,.18-.742l-.412.237a.077.077,0,0,1-.093,0,.17.17,0,0,1-.036-.124v-.789a.4.4,0,0,1,.036-.17.263.263,0,0,1,.093-.113l1.186-.68a.072.072,0,0,1,.093,0,.17.17,0,0,1,.036.124v.959a3.48,3.48,0,0,1-.119.933,3.886,3.886,0,0,1-.32.84,3.7,3.7,0,0,1-.479.686,2.542,2.542,0,0,1-.6.49,1.289,1.289,0,0,1-.624.2.732.732,0,0,1-.49-.175,1.062,1.062,0,0,1-.3-.474,2.511,2.511,0,0,1-.119-.716c0-.206,0-.423,0-.66v-.68a3.837,3.837,0,0,1,.119-.856,3.7,3.7,0,0,1,.3-.82,3.37,3.37,0,0,1,.469-.716,2.65,2.65,0,0,1,.629-.515,1.392,1.392,0,0,1,.619-.2.84.84,0,0,1,.464.124.907.907,0,0,1,.3.351A1.1,1.1,0,0,1,328.2,53a.257.257,0,0,1-.026.134.243.243,0,0,1-.077.093l-.634.345c-.052.026-.088.026-.119,0l-.077-.088a.423.423,0,0,0-.186-.139A.459.459,0,0,0,326.721,53.457Z" transform="translate(-303.968 -40.214)"/></g><path class="f" d="M263.1,85.777a5.964,5.964,0,0,1-1.464-.186.53.53,0,0,1,.247-1.031,4.2,4.2,0,0,0,5.041-2.392,3.271,3.271,0,0,0-1.129-4.18.52.52,0,1,1,.562-.876,4.324,4.324,0,0,1,1.546,5.464,5.155,5.155,0,0,1-4.8,3.2Z" transform="translate(-219.198 -45.674)"/></g><g transform="translate(49.356 127.151)"><g transform="translate(4.16 29.219)"><path class="e" d="M97.188,371.21a2.876,2.876,0,0,0-.247,1.495,6.871,6.871,0,0,1,.247,2.036c-.082,1.031-.3,1.345-.381,2.062a2.954,2.954,0,0,0,.438,2.062c.443.665,1.433,1.2,3.253,1.062,1.474-.108,2.1-.933,2.1-1.8Z" transform="translate(-96.771 -328.385)"/><path class="ad" d="M98.651,361.21c.928.515,2.443-.088,3.572-.691l1.186-7.01L98.28,352.37Z" transform="translate(-97.502 -319.257)"/><path class="f" d="M97.57,366.979a3.408,3.408,0,0,0-.067.577c-.041.34-.134.67-.2,1.031a1.637,1.637,0,0,1-.052.268,10.747,10.747,0,0,0,.067,2.062,11.381,11.381,0,0,1-.335,2.423c-.278,1.448-.273,2.351,1.031,3.294a3.381,3.381,0,0,0,2.227.541,2.944,2.944,0,0,0,1.83-.515,1.546,1.546,0,0,0,.515-.876,46.826,46.826,0,0,0-.789-4.789,7.644,7.644,0,0,1-.077-1.232c.036-.515.191-1.031.227-1.546a.856.856,0,0,0-.088-.557.918.918,0,0,0-.691-.278c-.67-.062-1.34-.1-2.015-.129a.6.6,0,0,0-.454.113c-.124.119-.119.32-.149.49s-.149.371-.32.345a.284.284,0,0,1-.211-.242c0-.113-.1-.995-.1-1.108C97.884,366.86,97.647,366.829,97.57,366.979Z" transform="translate(-96.802 -326.273)"/><path class="g" d="M102.694,381.912a1.845,1.845,0,0,0-.247-.917c-.747-1.34-4.5-1.247-5.624.16a2.062,2.062,0,0,0,.948,1.912,4.109,4.109,0,0,0,2.515.515,3.257,3.257,0,0,0,1.835-.567,1.263,1.263,0,0,0,.572-1.1Z" transform="translate(-96.793 -332.665)"/><path class="ad" d="M117.221,360.312c.784,1.7,2.015,1.031,3.608-.072l.778-10.149-4.918,1.33Z" transform="translate(-106.422 -318.152)"/><path class="e" d="M126.807,375.463a1.129,1.129,0,0,1-.046.835,4.214,4.214,0,0,1-3.119.851,7.253,7.253,0,0,1-3.572-1.247,4.124,4.124,0,0,0-2.2-.567,3.178,3.178,0,0,1-2.165-.876,1.9,1.9,0,0,1,.031-1.088Z" transform="translate(-105.916 -329.432)"/><path class="f" d="M120.8,366.569a3.612,3.612,0,0,1,.165.387,3.031,3.031,0,0,0,.9,1.222,9.737,9.737,0,0,0,1.866,1.108c.412.206.856.278,1.278.443a7.552,7.552,0,0,1,1.376.67,1.247,1.247,0,0,1,0,2.062,6.077,6.077,0,0,1-4.253.294c-1-.283-2.108-1.35-3.423-1.454-.835-.067-2.412-.3-2.948-.933a3.247,3.247,0,0,1,.284-1.943,6.443,6.443,0,0,0,.211-1.33c0-.237-.119-.923.381-.985v.515s.088.175.6.289c.165.036.289.258.371.464s.129.356.294.361a.314.314,0,0,0,.268-.191,2.47,2.47,0,0,0,.108-.33,1.325,1.325,0,0,1,.814-.742,4.014,4.014,0,0,1,.923-.155c.242-.026.438-.119.644.088a.775.775,0,0,1,.134.16Z" transform="translate(-105.946 -325.914)"/><path class="g" d="M116.153,369.54c-.036.191-.072.376-.124.562a3.259,3.259,0,0,0-.284,1.943,4.066,4.066,0,0,0,2.268.856A3.159,3.159,0,0,0,116.153,369.54Z" transform="translate(-105.937 -327.576)"/><path class="g" d="M98.772,289.8c-.216,6.572-.124,9.206-.1,21.294a20.876,20.876,0,0,0-.887,5.711c-.082,3.026.237,9.278.237,9.278s2.505,1.546,4.639.32c0,0,1.7-9.2,2.356-13.4.572-3.706,1.16-9.129,1.16-9.129l.82,7.706a30.582,30.582,0,0,0-.139,5.856c.139,1.979.68,8.959.68,8.959a4.717,4.717,0,0,0,4.639.314s1.113-13.887,1.149-15.686c.036-2.062-.763-22.892-.763-22.892Z" transform="translate(-97.257 -288.13)"/><path class="e" d="M114.05,310.258l1.242-7.175a7.721,7.721,0,0,0,4.191-1.742s-.268,1.479-3.66,2.361l-1.242,7.216.289,7.026Z" transform="translate(-105.143 -294.531)"/><path class="g" d="M132.782,373.865a6.949,6.949,0,0,0-1.216-.516,2.948,2.948,0,0,0-2.727,3.031,5.67,5.67,0,0,0,3.923-.335,1.351,1.351,0,0,0,.021-2.18Z" transform="translate(-112.308 -329.422)"/></g><g transform="translate(14.861 11.852)"><path class="ad" d="M118.064,256.634a5.44,5.44,0,0,1,4.83,1.892c1.062,1.371,3.964,4.675,5.6,6.845a49.357,49.357,0,0,0,4.433-4.758,13.246,13.246,0,0,0,1.082-2.433,8.132,8.132,0,0,0,.4-1.521,8.247,8.247,0,0,0,.093-1.933c0-.577.856-.263,1.165.665a5.123,5.123,0,0,1,.211,1.582l1.407-.644c.515-.222,2.129-.747,2.263.16a2.2,2.2,0,0,0,.041.613,1.547,1.547,0,0,0,.17.237,1.031,1.031,0,0,1,.1,1.031.8.8,0,0,0-.1.474,1.361,1.361,0,0,1,0,.515,2.215,2.215,0,0,1-.211.371,1.546,1.546,0,0,0-.155.515,1.862,1.862,0,0,1-.134.515c-.186.4-.67.479-1.031.6a17.809,17.809,0,0,0-1.691.619c-.907.572-3.418,4.871-5.923,7.608-.861.938-1.624,1.521-2.418,1.4h0a4.252,4.252,0,0,1-2.17-1.309c-2.387-2.155-6.242-6.186-6.242-6.186C118.177,261.541,117.848,257.959,118.064,256.634Z" transform="translate(-117.76 -254.436)"/><path class="g" d="M117.834,258.65a5.737,5.737,0,0,1,3.268.515,5.861,5.861,0,0,1,2.211,1.985c.974,1.144,2.33,2.866,2.33,2.866a5.8,5.8,0,0,1-3.938,4.067l-4.175-4.851Z" transform="translate(-117.53 -256.452)"/><path class="ae" d="M152.776,259.59c-.515.16-.634.515-.613,1.216a2.011,2.011,0,0,1-.572,1.546,1.113,1.113,0,0,0,.6-.268c.222-.227.278-.253.4-.124a.856.856,0,0,0,.325.18.557.557,0,0,0-.046.665c.227.366,1.227.366,2.062-.067,0,0-1.33.428-1.644,0s.392-.959.918-1.108c0,0-1.289.32-1.49-.1s.33-.747,1.088-.948c0,0-1.062.2-1.247-.155A.655.655,0,0,1,152.776,259.59Z" transform="translate(-134.033 -256.933)"/></g><path class="i" d="M113.07,263.483c-.289-2.108-.567-4.943-3.835-5.072l-4.247-.2c-1.031.268-5.67,1.613-5.67,1.613v6.7s.155,2.8.345,6.33c0,0-.381,4.124-.345,5.727,3.021,1.912,11.036,1.366,14.222-.557C113.689,275.112,113.374,265.571,113.07,263.483Z" transform="translate(-93.843 -244.413)"/><path class="i" d="M106.249,244.9l-6.644-.345c-1.263,1-3.608,3.093-3.608,3.665h0v.4h0a.082.082,0,0,0,0,.046c.242.443,1.1.7,2.418.7,1.546,0,3.995-.2,4.639-.763.943-.851,3.2-3.32,3.2-3.32h-.335Z" transform="translate(-92.234 -237.794)"/><path class="k" d="M106.249,244.9l-6.644-.345c-1.263,1-3.608,3.093-3.608,3.665h0v.4h0a.082.082,0,0,0,0,.046c.242.443,1.1.7,2.418.7,1.546,0,3.995-.2,4.639-.763.943-.851,3.2-3.32,3.2-3.32h-.335Z" transform="translate(-92.234 -237.794)"/><path class="i" d="M99.616,245.27c-1.325,1.031-3.83,3.294-3.582,3.737s1.1.7,2.418.7c1.546,0,3.995-.2,4.639-.763.943-.85,3.2-3.32,3.2-3.32Z" transform="translate(-92.245 -238.143)"/><path class="af" d="M99.616,245.27c-1.325,1.031-3.83,3.294-3.582,3.737s1.1.7,2.418.7c1.546,0,3.995-.2,4.639-.763.943-.85,3.2-3.32,3.2-3.32Z" transform="translate(-92.245 -238.143)"/><path class="i" d="M103,244.722c0,.2.67.582.67.582l-.216-1.165Z" transform="translate(-95.629 -237.596)"/><path class="aa" d="M103,244.722c0,.2.67.582.67.582l-.216-1.165Z" transform="translate(-95.629 -237.596)"/><path class="e" d="M113.634,234.693a4.35,4.35,0,0,0-1.34-1.5,5.65,5.65,0,0,0-3.454-.742,8.515,8.515,0,0,0-2.253.345,4.541,4.541,0,0,0-2.985,2.912,6.129,6.129,0,0,0,.624,5.155,21.361,21.361,0,0,1,1.031,2.062c.294.572.515,1.031.515,1.031l-.1-1.809L107.4,242a6.7,6.7,0,0,1,1.5-.082,1.985,1.985,0,0,0,1.309-.412,20.529,20.529,0,0,0,2.325-1.722,6.515,6.515,0,0,0,1.253-1.33,2.624,2.624,0,0,0,.216-.366,2.175,2.175,0,0,0,.227-.691,4,4,0,0,0,.046-1.031,4.809,4.809,0,0,0-.3-1.031,6.565,6.565,0,0,0-.335-.639Z" transform="translate(-95.773 -231.928)"/><path class="ad" d="M108.687,238.935a9.058,9.058,0,0,1-1.16-.232h-.108a2.6,2.6,0,0,1-1.912,1.732,6.629,6.629,0,0,1,.052,2.186,1.356,1.356,0,0,1-.165.443.546.546,0,0,1-.387.242.363.363,0,0,1-.366-.278,4.639,4.639,0,0,0-.32-.613,1.082,1.082,0,0,0-.186-.237,1.031,1.031,0,0,0-1.716.351,2.186,2.186,0,0,0,1.149,2.655c1.325.366,1.608-.515,1.608-.515l.258,4.717c.716.747,3.438,1.778,4.222,2.665.351-.6,1.356-2.088.031-2.928l-.052-1.438a8.31,8.31,0,0,0,1.768.031c.959-.18,1.433-.99,1.691-2.062a24.341,24.341,0,0,0,.232-6.186,9.978,9.978,0,0,0-.2-1.356c.041.129-.907.515-1.031.515a5.789,5.789,0,0,1-1.32.278,12.22,12.22,0,0,1-1.546.057,4.778,4.778,0,0,1-.541-.026Z" transform="translate(-95.295 -234.674)"/><path class="ae" d="M112.76,254.972a16.788,16.788,0,0,1-2.928-.737,2.505,2.505,0,0,1-1.072-.995,3.433,3.433,0,0,0,.629,1.191c.572.686,3.387.995,3.387.995Z" transform="translate(-98.42 -242.005)"/><path class="e" d="M113.974,245.372a.4.4,0,1,1-.121-.288.4.4,0,0,1,.121.288Z" transform="translate(-100.557 -237.998)"/><path class="e" d="M112.691,241.549l-1.031.3a.546.546,0,0,1,.361-.67.515.515,0,0,1,.67.366Z" transform="translate(-99.815 -236.149)"/><path class="ag" d="M114.959,251.19l1.485.515a.773.773,0,0,1-.979.515.814.814,0,0,1-.505-1.031Z" transform="translate(-101.403 -241.012)"/><path class="ae" d="M115.161,251.79a.592.592,0,0,0-.191.031.8.8,0,0,0,.515.675.727.727,0,0,0,.33.036.232.232,0,0,0,0-.057A.68.68,0,0,0,115.161,251.79Z" transform="translate(-101.429 -241.302)"/><path class="e" d="M122.094,241.7l-.964-.366a.516.516,0,0,1,.964.366Z" transform="translate(-104.413 -236.081)"/><path class="f" d="M107.686,243.09l-3.376,1.16a1.211,1.211,0,0,1,.969.49l2.392-.907Z" transform="translate(-96.264 -237.087)"/><path class="e" d="M121.124,245.237a.4.4,0,1,1-.418-.407.412.412,0,0,1,.418.407Z" transform="translate(-104.021 -237.93)"/><path class="e" d="M117.816,242.7l-.217-.026a6.582,6.582,0,0,0-2.211.113c-.706.232-.959.479-1.351.49s-.675-.232-1.423-.438a7.3,7.3,0,0,0-2.356,0,.6.6,0,0,0-.237.031.392.392,0,0,0-.273.4.835.835,0,0,0,.222.459.66.66,0,0,1,.072.186,7.773,7.773,0,0,0,.263,1.273,1.619,1.619,0,0,0,.294.459,1.28,1.28,0,0,0,.155.129l.088.062a1.386,1.386,0,0,0,.263.124h.186a1.577,1.577,0,0,0,.232.031h.227a1.67,1.67,0,0,0,1.629-.985c.253-.49.2-1.17.649-1.18h.082c.325.072.273.7.474,1.149a1.825,1.825,0,0,0,.309.49.479.479,0,0,0,.072.072l.041.036a.139.139,0,0,0,.041.036l.036.026.041.031h.057a1.511,1.511,0,0,0,.381.149h.036a1.891,1.891,0,0,0,.469.041,1.423,1.423,0,0,0,1.387-.912,8.247,8.247,0,0,0,.3-1.289.407.407,0,0,1,.088-.17.9.9,0,0,0,.211-.474A.326.326,0,0,0,117.816,242.7Zm-4.68,1.9a1.516,1.516,0,0,1-.345.68h0a1.392,1.392,0,0,1-1.062.407,1.134,1.134,0,0,1-1.031-.474l-.031-.052-.052-.093a.129.129,0,0,1,0-.036V245a.088.088,0,0,1,0-.026.216.216,0,0,1,0-.052h0a.509.509,0,0,0-.052-.139h0V244.7a.865.865,0,0,1-.031-.139v-.052c-.072-.335-.144-1,0-1.155a1.938,1.938,0,0,1,1.335-.258h.077a1.773,1.773,0,0,1,.325.052l.129.031a2.579,2.579,0,0,1,.32.1l.1.041.1.052h.041a.691.691,0,0,1,.211.175,1.546,1.546,0,0,1-.036,1.057Zm4.211-.222a1.546,1.546,0,0,1-.7,1.1,1.371,1.371,0,0,1-.515.129,1.124,1.124,0,0,1-1.067-.515h0v-.067h0a.279.279,0,0,0-.026-.057v-.093h0v-.026h0a1.336,1.336,0,0,1-.062-.247,1.634,1.634,0,0,1,.041-1.031,2.062,2.062,0,0,1,1.186-.515l.335-.031h.381l.165.026h.149l.082.031h0a.542.542,0,0,1,.175.113,5.233,5.233,0,0,1-.144,1.175Z" transform="translate(-98.898 -236.865)"/><path class="ae" d="M117.81,245.041l.077,2.809,1.546-.454L117.99,245A.4.4,0,0,0,117.81,245.041Z" transform="translate(-102.805 -238.012)"/><path class="i" d="M102.364,236.963a5.67,5.67,0,0,0,.32,1.644,2.062,2.062,0,0,1,.392-.474,9.887,9.887,0,0,1,2.959-1.773h0a11.619,11.619,0,0,1,7.778-.459,5.366,5.366,0,0,0-.34-1.4c-.9-2.206-2.655-3.335-5.407-2.995C104.838,231.911,102.209,233.762,102.364,236.963Z" transform="translate(-95.317 -231.444)"/><path class="e" d="M113.77,235.763a8.475,8.475,0,0,1,3.222-.294,3.381,3.381,0,0,0,.66-.778c.253-.418.155-.943-.1-1.031s-.258.222-1.2.711a1.588,1.588,0,0,0,.062-.964c-.165-.381-.479.32-1.175.784S113.842,234.9,113.77,235.763Z" transform="translate(-100.847 -232.342)"/><path class="g" d="M110.922,260.9c-.515-.325-1.66-.887-2.247-.263s-.9.8-1.284.691a7.816,7.816,0,0,1-2.062-2.062c-.515-.789-.392-1.108-.392-1.108l.964-1.268c.268-.356.356-.4.7-.423l.046.938a1.778,1.778,0,0,0,.727,1.155C108.33,259.217,110.216,259.393,110.922,260.9Z" transform="translate(-96.561 -243.57)"/><path class="g" d="M116.56,261.5c.314-.294,1.031-1.031,1.546-.871s.753.459.763.18a5.588,5.588,0,0,0-.851-1.871,3.232,3.232,0,0,0-1.438-1.232l.031.866s.619.784.546,1.253S116.622,261.045,116.56,261.5Z" transform="translate(-102.199 -244.171)"/><g transform="translate(0 15.276)"><path class="e" d="M127.963,280.67l-11.191,1.918-4.423,13.284,10.66-2.1Z" transform="translate(-100.159 -270.572)"/><path class="ac" d="M119.62,299.79a2.577,2.577,0,0,1-1.851,1.814,5.619,5.619,0,0,1-2.979-.247l.371-1.108Z" transform="translate(-101.342 -279.836)"/><path class="ac" d="M131.613,283.335l.129-.407c.067-.227-.572-.294-1.433-.15l-1.649.278c-.861.144-1.613.443-1.686.67l-.124.407Z" transform="translate(-107.185 -271.557)"/><path class="i" d="M132.335,280.306c.041-.139-.211-.2-.572-.134l-.655.119s.268-.887-1.175-.7a2.222,2.222,0,0,0-1.84,1.191l-.7.134a1.263,1.263,0,0,0-.8.381l-.1.253,5.763-.985S132.289,280.45,132.335,280.306Z" transform="translate(-107.011 -270.038)"/><path class="aa" d="M132.335,280.306c.041-.139-.211-.2-.572-.134l-.655.119s.268-.887-1.175-.7a2.222,2.222,0,0,0-1.84,1.191l-.7.134a1.263,1.263,0,0,0-.8.381l-.1.253,5.763-.985S132.289,280.45,132.335,280.306Z" transform="translate(-107.011 -270.038)"/><path class="i" d="M127.113,283.156c.057-.186.593-.423,1.263-.582v-.062c.057-.2,0-.325-.428-.258v-.16l3.99-.655-.175.16c-.515.082-.747.129-.856.479l-.026.077c.624-.057,1.031,0,.99.206l-.129.407-4.742.8Z" transform="translate(-107.258 -270.945)"/><path class="af" d="M127.113,283.156c.057-.186.593-.423,1.263-.582v-.062c.057-.2,0-.325-.428-.258v-.16l3.99-.655-.175.16c-.515.082-.747.129-.856.479l-.026.077c.624-.057,1.031,0,.99.206l-.129.407-4.742.8Z" transform="translate(-107.258 -270.945)"/><path class="ad" d="M103.334,279.088a13.905,13.905,0,0,0,4.289.412c.134,0,.3,0,.356.149a.3.3,0,0,1-.124.32,1.4,1.4,0,0,0-.278.242c-.108.16-.067.371-.1.562a1.448,1.448,0,0,1-.443.711,3.346,3.346,0,0,1-.711.639,4.99,4.99,0,0,1-3.191.376,10.668,10.668,0,0,1-1.943-.624c-.6-.237-4.222-1.4-4.639-1.546-3.2-1.2-7.6-2.686-7.825-4.216s1.1-6.572,1.768-10.443c.639-3.675,2.005-4.124,4.077-4.5a6.912,6.912,0,0,1,.469,7.129l-1.345,5.974a69.7,69.7,0,0,0,6.5,3.716,2.577,2.577,0,0,0,1.278-.108,5.552,5.552,0,0,1,2.345-.18" transform="translate(-88.7 -261.124)"/><path class="g" d="M95.458,261.08c-2.186.247-3.216.784-3.732,2.536s-1.356,5.918-1.356,5.918a7.312,7.312,0,0,0,4.974,1.577l.727-2.923C96.607,267.018,97.587,263.642,95.458,261.08Z" transform="translate(-89.509 -261.08)"/></g></g></g></svg>