<svg xmlns="http://www.w3.org/2000/svg" width="20" height="20" viewBox="0 0 20 20"><defs><style>.a{fill:#29337a;}.b{fill:#fff;}.c{fill:#d32030;}.d{fill:#252f6c;}.e{fill:#e7e7e7;}.f{fill:#d71f28;}.g{fill:#e51d35;}</style></defs><g transform="translate(0.329 0.4)"><path class="a" d="M9.226,102.641a9.957,9.957,0,0,0-1.432,3.117h4.549Z" transform="translate(-7.794 -98.707)"/><path class="a" d="M98.856,9.48A9.964,9.964,0,0,0,95.7,11.049l3.159,3.159Z" transform="translate(-91.986 -9.48)"/><path class="a" d="M101.261,364.666a9.95,9.95,0,0,0,2.924,1.4v-4.326Z" transform="translate(-97.315 -346.87)"/><path class="a" d="M10.512,306.771A9.963,9.963,0,0,0,12,309.72l2.949-2.949Z" transform="translate(-10.397 -294.219)"/></g><g transform="translate(0.146 0.19)"><path class="b" d="M5.229,97.144q-.084.115-.165.232l3.117,3.117H3.631c-.074.281-.134.567-.183.856H9.434Z" transform="translate(-3.448 -93.233)"/><path class="b" d="M95.767,336.062c.076.057.154.111.232.165l2.924-2.924v4.326c.281.082.566.153.856.21V332.05Z" transform="translate(-91.869 -318.22)"/><path class="b" d="M5.25,286.487c.062.29.135.576.222.856H9.905l-2.949,2.949a10.066,10.066,0,0,0,1.063,1.23l5.034-5.035Z" transform="translate(-5.174 -274.581)"/><path class="b" d="M71.187,4.716V9.444L68.028,6.286a10.056,10.056,0,0,0-1.22,1.073l5.235,5.235V4.506C71.753,4.563,71.468,4.634,71.187,4.716Z" transform="translate(-64.133 -4.506)"/></g><g transform="translate(7.169 7.421)"><path class="c" d="M169.83,306.056l-.03.03h.03Z" transform="translate(-169.8 -300.554)"/><path class="c" d="M190.084,285.8h.03v-.03Z" transform="translate(-189.228 -281.128)"/><path class="c" d="M280.574,196.737h-.029v.029Z" transform="translate(-275.869 -195.851)"/><path class="c" d="M170.541,175.784l-.03-.03v.03Z" transform="translate(-170.481 -175.754)"/><path class="c" d="M190.794,196.037v.03h.03Z" transform="translate(-189.908 -195.181)"/></g><g transform="translate(12.702 0.372)"><path class="d" d="M300.825,376.008v2.242a9.945,9.945,0,0,0,2.965-1.389l-2.429-2.429A7.871,7.871,0,0,1,300.825,376.008Z" transform="translate(-300.825 -358.995)"/><path class="d" d="M301.372,13.026l2.652-2.652a9.962,9.962,0,0,0-3.2-1.556v2.3A8.865,8.865,0,0,1,301.372,13.026Z" transform="translate(-300.824 -8.818)"/><path class="d" d="M358.823,309.778a9.972,9.972,0,0,0,1.526-3.007h-4.533Z" transform="translate(-353.494 -294.191)"/><path class="d" d="M360.438,104.44a9.954,9.954,0,0,0-1.473-3.175l-3.175,3.175Z" transform="translate(-353.468 -97.362)"/></g><g transform="translate(11.845 0.173)"><path class="e" d="M327.638,286.66l.687.687,3.289,3.289c.075-.093.149-.187.22-.282l-3.007-3.007h4.533q.13-.42.222-.856H327.7C327.693,286.612,327.65,286.54,327.638,286.66Z" transform="translate(-325.649 -274.567)"/><path class="e" d="M311.288,48.825l2.981-2.982c-.075-.058-.15-.116-.226-.171l-2.652,2.652C311.419,48.428,311.262,48.718,311.288,48.825Z" transform="translate(-309.987 -43.916)"/><path class="e" d="M281.4,6.405V4.287q-.421-.118-.856-.2V5.12A5.531,5.531,0,0,1,281.4,6.405Z" transform="translate(-280.541 -4.087)"/><path class="e" d="M321.89,76.85h6.088c-.049-.29-.11-.576-.183-.856h-4.649l3.175-3.175a10.053,10.053,0,0,0-1.038-1.254l-3.576,3.576C321.8,75.79,321.846,76.166,321.89,76.85Z" transform="translate(-319.969 -68.716)"/><path class="e" d="M310.088,330.386l2.574,2.574a10.034,10.034,0,0,0,1.207-.979l-3.385-3.385A17.369,17.369,0,0,1,310.088,330.386Z" transform="translate(-308.84 -314.893)"/><path class="e" d="M280.545,413.052V414.2q.435-.081.856-.2v-2.242A5.563,5.563,0,0,1,280.545,413.052Z" transform="translate(-280.545 -394.55)"/></g><path class="f" d="M315.671,54.231l3.576-3.576a10,10,0,0,0-1.032-.922l-2.81,2.81C315.53,53.065,315.587,53.663,315.671,54.231Z" transform="translate(-302.088 -47.633)"/><g transform="translate(9.501)"><path class="c" d="M225.019.012q.25-.012.5-.012Q225.267,0,225.019.012Z" transform="translate(-225.019)"/><path class="c" d="M225.525,473.394c-.166,0-.332,0-.5-.013Q225.274,473.394,225.525,473.394Z" transform="translate(-225.026 -453.394)"/><path class="c" d="M236.836,443.626a10.021,10.021,0,0,0,1.845-.173V442.3C238.156,442.87,237.542,443.626,236.836,443.626Z" transform="translate(-236.337 -423.626)"/></g><g transform="translate(13.488 8.307)"><path class="f" d="M333.268,196.737h-6.009a26.875,26.875,0,0,1-.029,3.79h5.962a9.977,9.977,0,0,0,.076-3.79Z" transform="translate(-326.902 -196.737)"/><path class="f" d="M319.8,290.5c-.056.591-.249,1.051-.345,1.609l3.385,3.385a10.1,10.1,0,0,0,.937-1.017l-3.289-3.289Z" transform="translate(-319.456 -286.541)"/></g><path class="c" d="M238.682,1.28V.173A10.048,10.048,0,0,0,236.836,0C237.542,0,238.156.711,238.682,1.28Z" transform="translate(-226.836)"/><g transform="translate(12.702 2.182)"><path class="a" d="M300.825,364.3a10.771,10.771,0,0,0,.7-1.848l-.7-.7Z" transform="translate(-300.825 -348.659)"/><path class="a" d="M301.608,53.84a11.251,11.251,0,0,0-.783-2.163v2.946Z" transform="translate(-300.825 -51.677)"/></g><g transform="translate(11.845 0.897)"><path class="b" d="M323.992,286.85c.011-.121.022-.242.031-.363h-.395Z" transform="translate(-321.81 -275.288)"/><path class="b" d="M281.4,25.476V22.53a5.531,5.531,0,0,0-.856-1.285V26.73l1.72-1.72c-.026-.107-.053-.213-.08-.317Z" transform="translate(-280.541 -21.245)"/><path class="b" d="M281.229,151.26h2.214c-.043-.684-.113-1.356-.209-2Z" transform="translate(-281.2 -143.85)"/><path class="b" d="M280.545,296.553a5.537,5.537,0,0,0,.856-1.285v-2.544l.7.7a17.246,17.246,0,0,0,.4-1.784l-1.955-1.955v6.872Z" transform="translate(-280.545 -278.347)"/></g><path class="g" d="M11.845,19.1V12.231L13.8,14.186c.1-.558.172-1.136.227-1.727l-.363-.363h.395a26.884,26.884,0,0,0,.029-3.789H11.874l2-2c-.084-.568-.189-1.118-.314-1.64l-1.72,1.72V.9A2.484,2.484,0,0,0,10,0Q9.75,0,9.5.012A10.067,10.067,0,0,0,8.056.19V8.277L2.821,3.042A10.1,10.1,0,0,0,1.926,4.1L5.275,7.45l.857.856H.146A9.975,9.975,0,0,0,.222,12.1h7.8L2.991,17.131a10.072,10.072,0,0,0,1.052.9L8.056,14.02v5.789a10.075,10.075,0,0,0,1.445.178c.166.008.332.013.5.013A2.484,2.484,0,0,0,11.845,19.1Z"/></svg>