<svg xmlns="http://www.w3.org/2000/svg" xmlns:xlink="http://www.w3.org/1999/xlink" width="20" height="20" viewBox="0 0 20 20"><defs><style>.a{fill:#fff;}.b{fill:#73af00;}.c{clip-path:url(#a);}.d{fill:#f5f5f5;}</style><clipPath id="a"><circle class="a" cx="10" cy="10" r="10"/></clipPath></defs><circle class="b" cx="10" cy="10" r="10"/><g class="c"><g transform="translate(0 -84.276)"><path class="b" d="M19.655,101.379H.345A.345.345,0,0,1,0,101.035V88.621a.345.345,0,0,1,.345-.345h19.31a.345.345,0,0,1,.345.345v12.414A.345.345,0,0,1,19.655,101.379Z"/><g transform="translate(3.954 91.035)"><path class="d" d="M102.347,167.485c.034.218.166.286.28.277a.281.281,0,0,0,.253-.264v-.748a.068.068,0,0,1,.136,0v.751a.272.272,0,0,0,.373.252l.068-.027c.006.628-.032,1.179-.033,1.189a.136.136,0,0,0,.126.145h.01a.136.136,0,0,0,.135-.126c0-.044.045-.648.033-1.317l.041-.016a.136.136,0,0,1,.111,0,.388.388,0,0,0,.448-.073l.024-.024a.406.406,0,0,0,.1-.417l-.116-.347a.136.136,0,0,0,.1-.252l-.272-.136a.136.136,0,0,0-.19.165l.219.656a.135.135,0,0,1-.033.139l-.024.024a.117.117,0,0,1-.135.022.406.406,0,0,0-.283-.028,4.688,4.688,0,0,0-.166-1.171.136.136,0,0,0-.258.086,4.673,4.673,0,0,1,.156,1.186l-.163.065v-.751a.34.34,0,0,0-.68,0v.658l-.139-.685a.136.136,0,1,0-.266.054Z" transform="translate(-102.163 -165.79)"/><path class="d" d="M109.3,163a.136.136,0,0,0,.136-.136v-.136a.136.136,0,1,0-.272,0v.136A.136.136,0,0,0,109.3,163Z" transform="translate(-108.85 -162.45)"/><path class="d" d="M144.093,162.866h.136a.136.136,0,1,0,0-.272h-.136a.136.136,0,1,0,0,.272Z" transform="translate(-142.288 -162.45)"/><path class="d" d="M106.425,214.809l-.68.408a.136.136,0,1,0,.14.233l.68-.408a.136.136,0,1,0-.14-.233Z" transform="translate(-105.505 -212.607)"/><path class="d" d="M118.214,168.236l0,0a.31.31,0,0,0,.063.128.267.267,0,0,0,.232.09.375.375,0,0,0,.283-.149l.029.017a.257.257,0,0,0,.239-.008.516.516,0,0,0,.243-.479.139.139,0,0,0-.142-.129.136.136,0,0,0-.13.141s0,.163-.1.223a.331.331,0,0,1-.042-.115.136.136,0,0,0-.27.022c0,.02,0,.194-.139.209a.332.332,0,0,1,0-.178.136.136,0,0,0-.209-.144l-.076.052c-.036-.788-.119-1.707-.12-1.719a.136.136,0,1,0-.271.025c0,.013.1,1.075.127,1.887l-.021.02a.35.35,0,0,0-.3-.234.5.5,0,0,0-.479.3.321.321,0,0,0,.1.405.453.453,0,0,0,.405.019,1.137,1.137,0,0,1-.221.419.57.57,0,0,1-.434.221.357.357,0,0,1-.264-.113.776.776,0,0,1-.144-.486.136.136,0,0,0-.128-.143.133.133,0,0,0-.143.128,1.043,1.043,0,0,0,.213.683.623.623,0,0,0,.455.2h.027a.828.828,0,0,0,.624-.316,1.406,1.406,0,0,0,.311-.7,1.541,1.541,0,0,1-.652,1.221.679.679,0,0,1-.681.05.583.583,0,0,1-.3-.575.136.136,0,1,0-.27-.034.854.854,0,0,0,.449.852.924.924,0,0,0,.412.1,1.006,1.006,0,0,0,.533-.161,1.807,1.807,0,0,0,.781-1.452C118.219,168.432,118.217,168.337,118.214,168.236Zm-.82.14c-.024-.016-.005-.067,0-.078a.231.231,0,0,1,.19-.134h.011c.017,0,.064.006.083.109,0,.011,0,.022.005.033C117.531,168.4,117.429,168.4,117.394,168.376Z" transform="translate(-115.462 -165.793)"/><path class="d" d="M101.74,243.2a.136.136,0,0,0-.186.048.279.279,0,0,1-.023.032l0-.011a.914.914,0,0,1,0-.461.136.136,0,0,0-.263-.07,1.171,1.171,0,0,0,0,.627c.062.166.158.208.228.214h.018a.357.357,0,0,0,.271-.194A.136.136,0,0,0,101.74,243.2Z" transform="translate(-101.226 -239.363)"/><path class="d" d="M175.266,163.818a.135.135,0,0,0,.084-.029l.685-.538a.131.131,0,0,0,.022-.026.34.34,0,1,0-.391-.03l-.485.381a.136.136,0,0,0,.084.243Zm.617-.951a.068.068,0,1,1-.068.068A.068.068,0,0,1,175.883,162.867Z" transform="translate(-172.243 -162.451)"/><path class="d" d="M185.35,190.439a.136.136,0,0,0-.172.086.415.415,0,0,0,.053.4.274.274,0,0,0,.2.078.6.6,0,0,0,.188-.035.136.136,0,1,0-.086-.258.47.47,0,0,1-.111.024.26.26,0,0,1,.011-.124A.136.136,0,0,0,185.35,190.439Z" transform="translate(-181.871 -189.2)"/><path class="d" d="M227.713,162.986a.136.136,0,0,0,.169-.092l.079-.272a.136.136,0,1,0-.261-.076l-.079.272A.136.136,0,0,0,227.713,162.986Z" transform="translate(-222.678 -162.309)"/><path class="d" d="M205.948,159.559a.136.136,0,1,0,.137-.235c-.027-.016-.024-.061-.023-.07a.107.107,0,0,1,.062-.091.136.136,0,0,0-.081-.26.373.373,0,0,0-.252.32A.335.335,0,0,0,205.948,159.559Z" transform="translate(-201.705 -158.898)"/><path class="d" d="M178.89,232.19a.136.136,0,0,0-.026.269.255.255,0,0,1,.025.138.136.136,0,1,0,.272,0C179.162,232.195,178.9,232.19,178.89,232.19Z" transform="translate(-175.726 -229.327)"/><path class="d" d="M234.7,208.218a.312.312,0,0,0,.051,0,.465.465,0,0,0,.322-.161.136.136,0,0,0-.192-.192c-.081.081-.125.083-.136.081s-.049-.038-.055-.047a.136.136,0,0,0-.242.123A.367.367,0,0,0,234.7,208.218Z" transform="translate(-229.228 -205.918)"/><path class="d" d="M293.852,190.914l0-.006a.136.136,0,0,0-.258.087.3.3,0,0,0,.221.212l.03,0a.333.333,0,0,0,.263-.181.136.136,0,1,0-.226-.151A.415.415,0,0,1,293.852,190.914Z" transform="translate(-286.071 -189.569)"/><path class="d" d="M203.3,169.6c0-.58-.025-1.123-.061-1.6a6.884,6.884,0,0,1,.477.968.136.136,0,1,0,.255-.1,9,9,0,0,0-.786-1.49c-.074-.732-.158-1.2-.159-1.205a.136.136,0,0,0-.267.049c0,.006.044.245.1.648-.1-.155-.2-.295-.283-.41l.007,0a.136.136,0,1,0,.086-.258l-.408-.136a.135.135,0,0,0-.153.049.137.137,0,0,0-.02.042.3.3,0,0,0-.284-.068.231.231,0,0,0-.13.242,1.228,1.228,0,0,0,.094.385c.08.227.13.393.045.473a.149.149,0,0,1-.139.049c-.084-.021-.167-.133-.222-.3a.126.126,0,0,0-.011-.019,2.311,2.311,0,0,0-.041-.752.136.136,0,0,0-.267.053,1.294,1.294,0,0,1-.071.969.244.244,0,0,1-.2.092.078.078,0,0,1-.065-.03,1.31,1.31,0,0,1-.072-.766.136.136,0,0,0-.135-.155c-.234,0-.323.266-.4.5-.034.1-.1.295-.143.315-.082,0-.135-.242-.136-.408a.136.136,0,0,0-.136-.136h0a.136.136,0,0,0-.136.136c0,.314.107.68.408.68.224,0,.315-.244.391-.471a.852.852,0,0,0,.154.483.349.349,0,0,0,.27.124.517.517,0,0,0,.413-.192.626.626,0,0,0,.05-.075.507.507,0,0,0,.285.214.392.392,0,0,0,.1.012.431.431,0,0,0,.3-.127.4.4,0,0,0,.045-.055.367.367,0,0,0,.1.015.55.55,0,0,0,.282-.087.136.136,0,0,0-.146-.229.288.288,0,0,1-.154.04,1.4,1.4,0,0,0-.1-.447,1.888,1.888,0,0,1-.07-.227l.032.029a.136.136,0,0,0,.192,0,.131.131,0,0,0,.02-.03c.141.194.431.6.729,1.072.057.578.107,1.315.107,2.124a.136.136,0,0,0,.272,0Z" transform="translate(-195.788 -165.786)"/><path class="d" d="M293.722,166.62a.136.136,0,1,0,.272,0,1.386,1.386,0,0,0-.15-.469.136.136,0,1,0-.243.122A1.207,1.207,0,0,1,293.722,166.62Z" transform="translate(-286.072 -165.796)"/><path class="d" d="M263.011,249.875a.136.136,0,0,0-.182.06.39.39,0,0,1-.056.081.759.759,0,0,1,.036-.251.136.136,0,0,0-.226-.136l-.272.272a.136.136,0,0,0,.192.192l.007-.007a.281.281,0,0,0,.073.143.249.249,0,0,0,.177.078.242.242,0,0,0,.037,0,.442.442,0,0,0,.276-.246A.136.136,0,0,0,263.011,249.875Z" transform="translate(-255.98 -246.046)"/><path class="d" d="M169.326,205.309h-.958q.013-.051.026-.1c.382-.079.609-.2.676-.367a.3.3,0,0,0-.051-.305.337.337,0,0,0-.344-.147c-.193.039-.365.247-.489.58a1.563,1.563,0,0,0-.785.339,2.106,2.106,0,0,0-.282-.9.136.136,0,0,0-.226.151,1.963,1.963,0,0,1,.249,1.012,1.076,1.076,0,0,1-.816,1.087c-.153,0-.219-.181-.249-.335a1.561,1.561,0,0,0,.653-.72,1.081,1.081,0,0,0-.09-.737l-.01-.024.008.008a.136.136,0,0,0,.192-.192c-.079-.08-.234-.2-.374-.146a.231.231,0,0,0-.13.242.578.578,0,0,0,.063.218.822.822,0,0,1,.077.564,1.15,1.15,0,0,1-.445.491.134.134,0,0,0-.1-.05h0a.136.136,0,0,0-.136.136c0,.024,0,.051,0,.077a7.15,7.15,0,0,1-.875.478.136.136,0,0,0,.056.26.134.134,0,0,0,.056-.012,7.832,7.832,0,0,0,.812-.435.529.529,0,0,0,.491.447,1.155,1.155,0,0,0,.909-.665.789.789,0,0,0,.091.13,1.532,1.532,0,0,0,1.039.4.136.136,0,0,0,.01-.271.291.291,0,0,1-.17-.082.233.233,0,0,1-.044-.179c.014-.167.554-.293,1.03-.3a.136.136,0,0,0,.126-.09l.136-.382a.136.136,0,0,0-.128-.181Zm-.6-.649h.01c.013,0,.034.006.061.043.005.007.022.031.018.041-.016.038-.109.1-.3.16C168.6,204.734,168.683,204.669,168.729,204.66Zm-.821,1.787a.832.832,0,0,1-.376-.229.578.578,0,0,1-.121-.479.4.4,0,0,1,.028-.058c.191-.018.7.058.738.2a.456.456,0,0,0-.287.355A.573.573,0,0,0,167.908,206.446Z" transform="translate(-162.347 -202.573)"/><path class="d" d="M291.188,166.572l-.136-.408a.136.136,0,0,0-.264.057c.094.938.271,2.767.271,2.977,0,.188-.335.559-.876.83a.136.136,0,0,0,.122.243c.494-.247,1.027-.689,1.027-1.073,0-.2-.139-1.646-.218-2.458A.136.136,0,0,0,291.188,166.572Z" transform="translate(-282.729 -165.791)"/><path class="d" d="M335.793,193.888a.136.136,0,0,0,.228-.13.687.687,0,0,1-.02-.264.138.138,0,0,0,.141-.117.136.136,0,0,0-.115-.154.246.246,0,0,0-.224.076.311.311,0,0,0-.068.146l-.157-.157a.136.136,0,0,0-.192.192Z" transform="translate(-326.2 -191.88)"/><path class="d" d="M340.7,213.29l-.51.365a.136.136,0,1,0,.158.221l.51-.365a.136.136,0,1,0-.158-.221Z" transform="translate(-330.797 -211.14)"/><path class="d" d="M352.771,225.715a.136.136,0,0,0,.012.18.377.377,0,0,1,.028.2.136.136,0,0,0,.131.141h0a.136.136,0,0,0,.136-.131c.01-.277-.081-.379-.12-.41A.136.136,0,0,0,352.771,225.715Z" transform="translate(-342.917 -223.055)"/><path class="d" d="M323.859,169.458a.136.136,0,0,0,.136-.136c0-.2-.01-.424-.027-.657a4.959,4.959,0,0,1,.319.592.136.136,0,0,0,.125.082.134.134,0,0,0,.053-.011.136.136,0,0,0,.071-.178,7.483,7.483,0,0,0-.622-1.072c-.053-.5-.123-.988-.177-1.338a.131.131,0,0,0,.085-.021.077.077,0,1,1,.075-.084.5.5,0,0,1,.05.333.136.136,0,0,0,.106.161l.028,0a.136.136,0,0,0,.133-.108.77.77,0,0,0-.086-.534.136.136,0,0,0-.188-.042.135.135,0,0,0-.061.123.131.131,0,0,0-.015-.039l-.229-.357a.136.136,0,0,0-.248.1c0,.011.106.607.2,1.326-.1-.147-.208-.291-.309-.428-.016-.206-.033-.4-.047-.553l.022-.009a.136.136,0,0,0,.061-.182l-.136-.272a.136.136,0,0,0-.257.074c.016.162.033.342.05.53-.086-.113-.165-.217-.234-.3a.136.136,0,0,0-.028-.225l-.272-.136a.136.136,0,0,0-.167.207c.007.009.342.429.742.97a10.928,10.928,0,0,1,.05,2.028c-.012.036-.033.078-.052.08-.082.011-.278-.172-.377-.369a.189.189,0,0,0-.182-.123c-.146.009-.2.17-.307.462a1.914,1.914,0,0,1-.27.575,1.544,1.544,0,0,1-.169-.535.135.135,0,0,0,.263-.046c0-.2-.142-1.747-.221-2.593a.136.136,0,0,0,.078-.169l-.136-.408a.136.136,0,0,0-.264.056c.092.97.266,2.843.271,3.1v-.007a.136.136,0,1,0-.269.038c.04.278.141.756.375.833a.227.227,0,0,0,.072.012.267.267,0,0,0,.191-.089,1.96,1.96,0,0,0,.337-.679c.02-.056.044-.123.066-.18.125.182.342.409.563.391a.334.334,0,0,0,.291-.265,7.655,7.655,0,0,0-.005-1.7c.115.161.229.325.339.487.042.407.073.815.073,1.15A.136.136,0,0,0,323.859,169.458Z" transform="translate(-312.819 -165.797)"/><path class="d" d="M382.3,169.158c-.1-.717-.23-1.548-.315-2.058a.134.134,0,0,0,.114-.024.136.136,0,0,0,.026-.19l-.246-.323a.136.136,0,0,0-.242.106c0,.014.245,1.409.395,2.526a1.274,1.274,0,0,1-.224,1.02.6.6,0,0,1-.5.186.136.136,0,0,0-.017.271l.068,0A.858.858,0,0,0,382,170.4,1.518,1.518,0,0,0,382.3,169.158Z" transform="translate(-370.224 -166.212)"/><path class="d" d="M371.05,256.175a.138.138,0,0,0,.007.191.057.057,0,0,1,.016.028.064.064,0,0,1-.021.03.136.136,0,1,0,.192.192.308.308,0,0,0,.1-.232.324.324,0,0,0-.107-.221A.135.135,0,0,0,371.05,256.175Z" transform="translate(-360.474 -252.333)"/><path class="d" d="M152.385,326.893h-.951v-.136a.136.136,0,0,0-.272,0v.136h-7.2a1.9,1.9,0,0,0,1.223.408h5.981v.272a.136.136,0,0,0,.136.136h1.087a.408.408,0,1,0,0-.816Zm0,.544h-.952V327.3h1.087l-.024-.073a.132.132,0,0,1,.024.073A.136.136,0,0,1,152.385,327.437Z" transform="translate(-142.288 -320.069)"/></g></g></g></svg>