<svg xmlns="http://www.w3.org/2000/svg" width="24" height="16.646" viewBox="0 0 24 16.646"><defs><style>.a{fill:#fff;}</style></defs><g transform="translate(0 7.354)"><g transform="translate(0 0)"><path class="a" d="M23.031,235.318H.969a.969.969,0,1,0,0,1.939H23.031a.969.969,0,1,0,0-1.939Z" transform="translate(0 -235.318)"/></g></g><g transform="translate(0 0)"><path class="a" d="M16.754,78.439H1.246a1,1,0,1,0,0,1.939H16.754a1,1,0,1,0,0-1.939Z" transform="translate(0 -78.439)"/></g><g transform="translate(0 14.707)"><g transform="translate(0 0)"><path class="a" d="M11.388,392.2H.612c-.338,0-.612.434-.612.969s.274.969.612.969H11.388c.338,0,.612-.434.612-.969S11.726,392.2,11.388,392.2Z" transform="translate(0 -392.197)"/></g></g></svg>