<svg xmlns="http://www.w3.org/2000/svg" width="15" height="15" viewBox="0 0 15 15"><defs><style>.a{fill:none;}.b{fill:#800000;}</style></defs><path class="a" d="M0,0H15V15H0Z"/><path class="b" d="M8.625,13.813l3.094-3.094a4.375,4.375,0,1,0-6.187,0Zm0,1.768L4.648,11.6a5.625,5.625,0,1,1,7.955,0Zm0-6.7a1.25,1.25,0,1,0-1.25-1.25A1.25,1.25,0,0,0,8.625,8.875Zm0,1.25a2.5,2.5,0,1,1,0-5A2.572,2.572,0,0,1,10.9,6.583a2.281,2.281,0,0,1,.227,1.042A2.5,2.5,0,0,1,8.625,10.125Z" transform="translate(-1.125 -1.063)"/></svg>