<svg xmlns="http://www.w3.org/2000/svg" width="20" height="20" viewBox="0 0 20 20"><defs><style>.a{fill:#edf0f7;}.b{fill:none;stroke:#333;stroke-linecap:round;stroke-linejoin:round;stroke-width:0.5px;}</style></defs><g transform="translate(-3294.857 -860)"><circle class="a" cx="10" cy="10" r="10" transform="translate(3294.857 860)"/><g transform="translate(3299.232 865)"><path class="b" d="M25.917,4.594a1.712,1.712,0,0,1-3.417,0,1.712,1.712,0,0,1,3.417,0Z" transform="translate(-15.667 -3)"/><path class="b" d="M7.917,15.094a1.654,1.654,0,0,1-1.708,1.594,1.6,1.6,0,1,1,0-3.187A1.654,1.654,0,0,1,7.917,15.094Z" transform="translate(-4.5 -9.781)"/><path class="b" d="M25.917,25.594A1.712,1.712,0,1,1,24.208,24,1.654,1.654,0,0,1,25.917,25.594Z" transform="translate(-15.667 -16.562)"/><path class="b" d="M12.885,20.265l3.889,2.114" transform="translate(-9.702 -14.15)"/><path class="b" d="M16.769,9.765l-3.884,2.114" transform="translate(-9.702 -7.369)"/></g></g></svg>