<svg xmlns="http://www.w3.org/2000/svg" xmlns:xlink="http://www.w3.org/1999/xlink" width="27.748" height="27.748" viewBox="0 0 27.748 27.748"><defs><style>.a{fill:#800000;}.b{clip-path:url(#a);}.c{fill:#0d214b;}.d{fill:#fff;}.e{fill:#d1d1d1;}</style><clipPath id="a"><circle class="a" cx="13.874" cy="13.874" r="13.874" transform="translate(-0.56)"/></clipPath></defs><g transform="translate(0.56)"><g class="b"><circle class="a" cx="13.874" cy="13.874" r="13.874" transform="translate(-0.56)"/><path class="c" d="M125.975,139.326a27.044,27.044,0,0,0-4.062,3.894c-2.893,3.489-6.428,8.438-11.239,7.7l8.6,8.584a13.874,13.874,0,0,0,13.152-13.732Z" transform="translate(-104.676 -131.775)"/><path class="d" d="M125.1,135.651a6.28,6.28,0,0,1-1.1.369,3.413,3.413,0,0,0,.9-1.435.179.179,0,0,0-.262-.209,6.315,6.315,0,0,1-1.674.692.422.422,0,0,1-.1.013.444.444,0,0,1-.293-.112,3.424,3.424,0,0,0-2.266-.855,3.66,3.66,0,0,0-1.085.168,3.318,3.318,0,0,0-2.236,2.39,3.653,3.653,0,0,0-.081,1.261.123.123,0,0,1-.031.1.127.127,0,0,1-.095.043h-.012a8.978,8.978,0,0,1-6.171-3.3.179.179,0,0,0-.293.023,3.428,3.428,0,0,0,.557,4.162,3.07,3.07,0,0,1-.781-.3.179.179,0,0,0-.266.155,3.429,3.429,0,0,0,2,3.159h-.073a3.067,3.067,0,0,1-.577-.055.179.179,0,0,0-.2.23,3.432,3.432,0,0,0,2.711,2.334,6.319,6.319,0,0,1-3.539,1.075h-.4a.262.262,0,0,0-.256.2.271.271,0,0,0,.13.3,9.4,9.4,0,0,0,4.722,1.273,9.524,9.524,0,0,0,4.036-.856,8.912,8.912,0,0,0,2.953-2.213,9.7,9.7,0,0,0,1.808-3.028,9.567,9.567,0,0,0,.615-3.314v-.052a.583.583,0,0,1,.218-.454,6.769,6.769,0,0,0,1.361-1.494.179.179,0,0,0-.221-.263Z" transform="translate(-103.533 -126.846)"/><path class="e" d="M263.144,135.651a6.284,6.284,0,0,1-1.1.369,3.414,3.414,0,0,0,.9-1.435.179.179,0,0,0-.262-.209,6.316,6.316,0,0,1-1.674.692.422.422,0,0,1-.1.013.444.444,0,0,1-.293-.112,3.424,3.424,0,0,0-2.266-.855,3.66,3.66,0,0,0-1.085.168,3.317,3.317,0,0,0-1.842,1.439v11.136a8.872,8.872,0,0,0,3.939-2.6,9.7,9.7,0,0,0,1.808-3.028,9.567,9.567,0,0,0,.615-3.314v-.052a.583.583,0,0,1,.218-.454,6.769,6.769,0,0,0,1.361-1.494A.179.179,0,0,0,263.144,135.651Z" transform="translate(-241.581 -126.846)"/></g></g></svg>