<svg xmlns="http://www.w3.org/2000/svg" xmlns:xlink="http://www.w3.org/1999/xlink" width="28" height="28" viewBox="0 0 28 28"><defs><style>.a{fill:#800000;}.b{clip-path:url(#a);}.c{fill:#0d214b;}.d{fill:#fff;}.e{fill:#d1d1d1;}</style><clipPath id="a"><circle class="a" cx="14" cy="14" r="14" transform="translate(-0.457 -0.009)"/></clipPath></defs><g transform="translate(0.457 0.009)"><g class="b"><circle class="a" cx="14" cy="14" r="14" transform="translate(-0.457 -0.009)"/><path class="c" d="M135.978,125.8a23.355,23.355,0,0,1-5.125.037c-2.429-.187-5.979-1.308-7.287.934-2.1,3.59-1.065,8.185-.575,12.252l9.537,9.077c7.066-.375,10.494-7.814,10.871-14.88Z" transform="translate(-115.671 -119.25)"/><g transform="translate(5.933 5.277)"><path class="d" d="M120.619,109.468H114.2a4.737,4.737,0,0,0-4.731,4.731v6.42a4.737,4.737,0,0,0,4.731,4.731h6.42a4.737,4.737,0,0,0,4.731-4.731V114.2a4.737,4.737,0,0,0-4.732-4.731Zm3.134,11.151a3.134,3.134,0,0,1-3.134,3.134H114.2a3.134,3.134,0,0,1-3.134-3.134V114.2a3.134,3.134,0,0,1,3.134-3.134h6.42a3.134,3.134,0,0,1,3.134,3.134Z" transform="translate(-109.468 -109.468)"/><path class="d" d="M184.31,180.2a4.108,4.108,0,1,0,4.108,4.108,4.113,4.113,0,0,0-4.108-4.108Zm0,6.618a2.51,2.51,0,1,1,2.51-2.51,2.51,2.51,0,0,1-2.51,2.51Z" transform="translate(-176.369 -176.369)"/></g><g transform="translate(13.843 5.277)"><path class="e" d="M315.746,163.6a.984.984,0,1,1-.984-.984.984.984,0,0,1,.984.984Z" transform="translate(-310.615 -159.731)"/><path class="e" d="M258.667,109.468h-3.241v1.6h3.241A3.134,3.134,0,0,1,261.8,114.2v6.42a3.134,3.134,0,0,1-3.134,3.134h-3.241v1.6h3.241a4.737,4.737,0,0,0,4.731-4.731V114.2A4.737,4.737,0,0,0,258.667,109.468Z" transform="translate(-255.426 -109.468)"/><path class="e" d="M255.457,180.2h-.031v1.6h.031a2.51,2.51,0,0,1,0,5.02h-.031v1.6h.031a4.108,4.108,0,0,0,0-8.215Z" transform="translate(-255.426 -176.369)"/></g></g></g></svg>