<svg xmlns="http://www.w3.org/2000/svg" xmlns:xlink="http://www.w3.org/1999/xlink" width="27.748" height="27.748" viewBox="0 0 27.748 27.748"><defs><style>.a{fill:#800000;}.b{clip-path:url(#a);}.c{fill:#0d214b;}.d{fill:#fff;}.e{fill:#d1d1d1;}</style><clipPath id="a"><circle class="a" cx="13.874" cy="13.874" r="13.874" transform="translate(-0.56)"/></clipPath></defs><g transform="translate(0.56)"><g class="b"><circle class="a" cx="13.874" cy="13.874" r="13.874" transform="translate(-0.56)"/><path class="c" d="M125.307,124.923c-.824-.207-2.036-.922-2.821-1.208-3.063-.961-7.179-.192-8.328,3.365a.574.574,0,0,1-.383.1c-2.3,2.692-.766,5.96-.957,8.94a4.644,4.644,0,0,1-1.323,2.765l5.957,5.976a14.21,14.21,0,0,0,16.074-11.68Z" transform="translate(-105.453 -116.65)"/><g transform="translate(5.933 5.868)"><path class="d" d="M117.02,108.285a7.944,7.944,0,0,0-6.689,11.538l-.843,4.092a.309.309,0,0,0,.374.363l4.01-.95a7.942,7.942,0,1,0,3.148-15.044Zm4.785,12.329a6.222,6.222,0,0,1-7.164,1.173l-.558-.278-2.459.582.518-2.512-.275-.539a6.223,6.223,0,0,1,1.145-7.219,6.218,6.218,0,0,1,8.794,8.794Z" transform="translate(-109.467 -108.276)"/><path class="d" d="M190.028,189.725l-1.538-.442a.574.574,0,0,0-.567.15l-.376.383a.56.56,0,0,1-.609.129,8.211,8.211,0,0,1-2.649-2.336.56.56,0,0,1,.044-.621l.328-.425a.573.573,0,0,0,.071-.582l-.647-1.464a.574.574,0,0,0-.9-.205,2.587,2.587,0,0,0-1,1.526c-.109,1.078.353,2.436,2.1,4.068,2.019,1.885,3.636,2.134,4.689,1.879a2.585,2.585,0,0,0,1.375-1.2.574.574,0,0,0-.325-.86Z" transform="translate(-178.233 -180.062)"/></g><g transform="translate(5.963 8.005)"><path class="e" d="M123.359,147.708l-1.2,1.234c.061.057.122.114.182.173a6.219,6.219,0,0,1-7.164,9.966l-.558-.278-2.459.582.051-.247-2.177,2.231a.309.309,0,0,0,.365.2l4.01-.95a7.942,7.942,0,0,0,8.955-12.916Z" transform="translate(-110.028 -147.708)"/><path class="e" d="M225.014,268.755l-1.538-.442a.574.574,0,0,0-.567.15l-.376.383a.56.56,0,0,1-.609.129,7.016,7.016,0,0,1-1.69-1.241l-1.069,1.1.111.106c2.019,1.885,3.636,2.134,4.689,1.879a2.586,2.586,0,0,0,1.375-1.2A.574.574,0,0,0,225.014,268.755Z" transform="translate(-213.249 -261.228)"/></g></g></g></svg>