<svg xmlns="http://www.w3.org/2000/svg" xmlns:xlink="http://www.w3.org/1999/xlink" width="27.748" height="27.748" viewBox="0 0 27.748 27.748"><defs><style>.a{fill:#800000;}.b{clip-path:url(#a);}.c{fill:#0d214b;}.d{fill:#fff;}.e{fill:#dce1eb;}</style><clipPath id="a"><path class="a" d="M27.748,13.874A13.874,13.874,0,1,1,13.874,0,13.874,13.874,0,0,1,27.748,13.874Zm0,0"/></clipPath></defs><g class="b"><path class="a" d="M27.748,13.874A13.874,13.874,0,1,1,13.874,0,13.874,13.874,0,0,1,27.748,13.874Zm0,0"/><path class="c" d="M150.926,98.965A13.873,13.873,0,0,0,164.191,85.1c0-.054,0-.108,0-.162l-9.63-9.631-10.3,10.763,5.721,5.721-2.638,3.587Zm0,0" transform="translate(-136.444 -71.231)"/><path class="d" d="M154.555,71.359V74.5s-3.607-.524-3.607,1.8v2.327h3.258L153.8,82.18h-2.851v9.25h-3.607V82.18l-3.083-.058v-3.49h3.025V75.955a4.568,4.568,0,0,1,3.723-4.712A10.482,10.482,0,0,1,154.555,71.359Zm0,0" transform="translate(-136.44 -67.278)"/><path class="e" d="M259.905,74.5V71.359a10.482,10.482,0,0,0-3.549-.116,5.5,5.5,0,0,0-.712.181V91.429h.654v-9.25h2.85l.407-3.549H256.3V76.3C256.3,73.977,259.905,74.5,259.905,74.5Zm0,0" transform="translate(-241.79 -67.277)"/></g></svg>