<svg xmlns="http://www.w3.org/2000/svg" width="32" height="32" viewBox="0 0 32 32"><defs><style>.a{fill:#800000;}</style></defs><path class="a" d="M16.938,29a3,3,0,1,1,3,3A3,3,0,0,1,16.938,29Zm2,0a1,1,0,1,0,1-1A1,1,0,0,0,18.938,29ZM27,29.989H23v-2h4v0a.948.948,0,0,0,1-1h2a2.934,2.934,0,0,1-3,3Zm-2-5V13h1a5.867,5.867,0,0,1,6,6,5.867,5.867,0,0,1-6,6Zm2-2.11a3.84,3.84,0,0,0,3-3.889,3.841,3.841,0,0,0-3-3.889ZM6,24.993a5.867,5.867,0,0,1-6-6,5.867,5.867,0,0,1,6-6H7v12Zm-4-6a3.84,3.84,0,0,0,3,3.889V15.106A3.842,3.842,0,0,0,2,18.994ZM25,11A9,9,0,1,0,7,11H5a11,11,0,1,1,22,0Z"/></svg>