<svg xmlns="http://www.w3.org/2000/svg" width="15" height="15" viewBox="0 0 15 15"><defs><style>.a{fill:none;}.b{fill:maroon;}</style></defs><g transform="translate(0.001)"><path class="a" d="M0,0H15V15H0Z" transform="translate(-0.001)"/><g transform="translate(0.937 0.938)"><g transform="translate(0 0)"><rect class="b" width="1.315" height="0.438" transform="translate(9.426 8.741)"/><rect class="b" width="1.315" height="0.438" transform="translate(7.672 8.741)"/><rect class="b" width="1.315" height="0.438" transform="translate(5.919 8.741)"/><path class="b" d="M12.931,5.048,8.593.71A.655.655,0,0,0,8.127.516h0A.649.649,0,0,0,7.663.71l-4.6,4.6H.658A.658.658,0,0,0,0,5.968v6.138a.658.658,0,0,0,.658.658H3.906l.654.655a.655.655,0,0,0,.466.194h0a.649.649,0,0,0,.463-.194l.655-.655H11.18a.658.658,0,0,0,.658-.658V7.072L12.93,5.98a.654.654,0,0,0,0-.931ZM10.142,2.88,7.711,5.311H5.85L9.211,1.949ZM7.973,1.019a.216.216,0,0,1,.306,0l0,0,.619.62L5.229,5.311H3.681ZM5.18,13.11a.213.213,0,0,1-.153.066.219.219,0,0,1-.156-.066l-.344-.346h1Zm6.22-1a.219.219,0,0,1-.219.219H.658a.219.219,0,0,1-.219-.219V9.037H11.4Zm0-3.507H.438V7.284H11.4Zm0-1.754H.438V5.968a.219.219,0,0,1,.219-.219H11.18a.219.219,0,0,1,.219.219Zm1.222-1.177h0l-.783.783V5.968a.658.658,0,0,0-.658-.658H8.33L10.451,3.19,12.62,5.358a.219.219,0,0,1,.066.157A.215.215,0,0,1,12.621,5.669Z" transform="translate(0 -0.516)"/><path class="b" d="M25.246,361.03a.876.876,0,0,0,.09-.09.869.869,0,0,0,1.154.149.891.891,0,0,0,.381-.723.877.877,0,0,0-.877-.877.663.663,0,0,0-.13.011l-.006,0h-.006a.866.866,0,0,0-.516.291.877.877,0,1,0-.09,1.237Zm.692-1.1a.266.266,0,0,1,.055,0,.438.438,0,0,1,.438.438.43.43,0,0,1-.086.257c-.008.011-.014.022-.023.033l-.005,0a.436.436,0,1,1-.379-.729Zm-1.26,0a.438.438,0,1,1-.438.438A.438.438,0,0,1,24.678,359.928Z" transform="translate(-23.143 -349.653)"/></g></g></g></svg>